{
.appVersion = "1043";
copyright = "Copyright (c) 2011 by Gesine Todt. All rights reserved.";
customParameters = (
{
name = fsType;
value = (
);
},
{
name = vendorID;
value = "";
},
{
name = description;
value = "Copyright (c) 2011 by . All rights reserved.";
},
{
name = macintoshFONDFamilyID;
value = 128;
},
{
name = openTypeHeadLowestRecPPEM;
value = 9;
},
{
name = openTypeNameCompatibleFullName;
value = "Amaranth Regular";
},
{
name = openTypeNameUniqueID;
value = "GesineTodt: Amaranth Regular: 2011";
},
{
name = openTypeNameVersion;
value = "Version 1.000";
},
{
name = openTypeOS2CodePageRanges;
value = (
);
},
{
name = openTypeOS2FamilyClass;
value = (
0,
0
);
},
{
name = openTypeOS2Panose;
value = (
2,
0,
5,
3,
5,
0,
0,
2,
0,
4
);
},
{
name = openTypeOS2StrikeoutPosition;
value = 250;
},
{
name = openTypeOS2StrikeoutSize;
value = 50;
},
{
name = openTypeOS2SubscriptXOffset;
value = 0;
},
{
name = openTypeOS2SubscriptXSize;
value = 700;
},
{
name = openTypeOS2SubscriptYOffset;
value = 140;
},
{
name = openTypeOS2SubscriptYSize;
value = 650;
},
{
name = openTypeOS2SuperscriptXOffset;
value = 0;
},
{
name = openTypeOS2SuperscriptXSize;
value = 700;
},
{
name = openTypeOS2SuperscriptYOffset;
value = 477;
},
{
name = openTypeOS2SuperscriptYSize;
value = 650;
},
{
name = openTypeOS2UnicodeRanges;
value = (
0,
1,
2,
5,
31,
32,
33,
38
);
},
{
name = postscriptBlueFuzz;
value = 1;
},
{
name = postscriptBlueScale;
value = 0.0396;
},
{
name = postscriptBlueShift;
value = 7;
},
{
name = postscriptDefaultWidthX;
value = 500;
},
{
name = postscriptForceBold;
value = 0;
},
{
name = postscriptIsFixedPitch;
value = 0;
},
{
name = postscriptSlantAngle;
value = 0;
},
{
name = postscriptUniqueID;
value = -1;
},
{
name = postscriptWindowsCharacterSet;
value = 1;
},
{
name = trademark;
value = "Amaranth Regular is a trademark of Gesine Todt.";
},
{
name = year;
value = 2011;
},
{
name = "Use Typo Metrics";
value = 1;
},
{
name = license;

glyphs = (
{
glyphname = A;
layers = (
{
anchors = (
{
name = topUC;
position = "{301, 677}";
}
);
layerId = "5DBF9900-19CD-41BF-A30E-BB0302EA3177";
paths = (
{
closed = 1;
nodes = (
"-5 0 LINE",
"113 0 LINE",
"177 177 LINE",
"421 177 LINE",
"483 0 LINE",
"610 0 LINE",
"349 677 LINE",
"255 677 LINE"
);
},
{
closed = 1;
nodes = (
"209 265 LINE",
"250 381 OFFCURVE",
"282 485 OFFCURVE",
"300 544 CURVE",
"316 489 OFFCURVE",
"348 384 OFFCURVE",
"390 265 CURVE"
);
}
);
width = 605;
},
{
anchors = (
{
name = topUC;
position = "{301, 677}";
}
);
layerId = "EB17B230-7FBB-41DE-BCDE-73D8D15F9114";
paths = (
{
closed = 1;
nodes = (
"-1 0 LINE",
"163 0 LINE",
"215 163 LINE",
"434 163 LINE",
"484 0 LINE",
"651 0 LINE",
"403 677 LINE",
"256 677 LINE"
);
},
{
closed = 1;
nodes = (
"253 285 LINE",
"280 362 OFFCURVE",
"310 457 OFFCURVE",
"325 508 CURVE",
"340 459 OFFCURVE",
"370 363 OFFCURVE",
"397 285 CURVE"
);
}
);
width = 649;
}
);
leftKerningGroup = A;
rightKerningGroup = A;
unicode = 0041;
},
{
glyphname = Aacute;
layers = (
{
layerId = "5DBF9900-19CD-41BF-A30E-BB0302EA3177";
paths = (
{
closed = 1;
nodes = (
"-5 0 LINE",
"113 0 LINE",
"177 177 LINE",
"421 177 LINE",
"483 0 LINE",
"610 0 LINE",
"349 677 LINE",
"255 677 LINE"
);
},
{
closed = 1;
nodes = (
"209 265 LINE",
"250 381 OFFCURVE",
"282 485 OFFCURVE",
"300 544 CURVE",
"316 489 OFFCURVE",
"348 384 OFFCURVE",
"390 265 CURVE"
);
},
{
closed = 1;
nodes = (
"299 718 LINE",
"298 718 OFFCURVE",
"457 761 OFFCURVE",
"550 846 CURVE",
"498 928 LINE",
"271 776 LINE"
);
}
);
width = 605;
},
{
layerId = "EB17B230-7FBB-41DE-BCDE-73D8D15F9114";
paths = (
{
closed = 1;
nodes = (
"-1 0 LINE",
"163 0 LINE",
"215 163 LINE",
"434 163 LINE",
"484 0 LINE",
"651 0 LINE",
"403 677 LINE",
"256 677 LINE"
);
},
{
closed = 1;
nodes = (
"253 285 LINE",
"280 362 OFFCURVE",
"310 457 OFFCURVE",
"325 508 CURVE",
"340 459 OFFCURVE",
"370 363 OFFCURVE",
"397 285 CURVE"
);
},
{
closed = 1;
nodes = (
"326 725 LINE",
"350 732 OFFCURVE",
"482 774 OFFCURVE",
"571 871 CURVE",
"471 972 LINE",
"264 799 LINE"
);
}
);
width = 649;
}
);
leftKerningGroup = A;
rightKerningGroup = A;
unicode = 00C1;
},
{
glyphname = Acircumflex;
layers = (
{
layerId = "5DBF9900-19CD-41BF-A30E-BB0302EA3177";
paths = (
{
closed = 1;
nodes = (
"-5 0 LINE",
"113 0 LINE",
"177 177 LINE",
"421 177 LINE",
"483 0 LINE",
"610 0 LINE",
"349 677 LINE",
"255 677 LINE"
);
},
{
closed = 1;
nodes = (
"209 265 LINE",
"250 381 OFFCURVE",
"282 485 OFFCURVE",
"300 544 CURVE",
"316 489 OFFCURVE",
"348 384 OFFCURVE",
"390 265 CURVE"
);
},
{
closed = 1;
nodes = (
"146 718 LINE",
"145 717 OFFCURVE",
"220 750 OFFCURVE",
"300 808 CURVE",
"379 750 OFFCURVE",
"455 717 OFFCURVE",
"454 718 CURVE",
"498 771 LINE",
"300 928 LINE",
"102 771 LINE"
);
}
);
width = 605;
},
{
layerId = "EB17B230-7FBB-41DE-BCDE-73D8D15F9114";
paths = (
{
closed = 1;
nodes = (
"-1 0 LINE",
"163 0 LINE",
"215 163 LINE",
"434 163 LINE",
"484 0 LINE",
"651 0 LINE",
"403 677 LINE",
"256 677 LINE"
);
},
{
closed = 1;
nodes = (
"253 285 LINE",
"280 362 OFFCURVE",
"310 457 OFFCURVE",
"325 508 CURVE",
"340 459 OFFCURVE",
"370 363 OFFCURVE",
"397 285 CURVE"
);
},
{
closed = 1;
nodes = (
"185 725 LINE",
"213 737 OFFCURVE",
"268 760 OFFCURVE",
"329 803 CURVE",
"390 760 OFFCURVE",
"446 736 OFFCURVE",
"472 725 CURVE",
"534 800 LINE",
"329 976 LINE",
"124 800 LINE"
);
}
);
width = 649;
}
);
leftKerningGroup = A;
rightKerningGroup = A;
unicode = 00C2;
},
{
glyphname = Adieresis;
layers = (
{
layerId = "5DBF9900-19CD-41BF-A30E-BB0302EA3177";
paths = (
{
closed = 1;
nodes = (
"-5 0 LINE",
"113 0 LINE",
"177 177 LINE",
"421 177 LINE",
"483 0 LINE",
"610 0 LINE",
"349 677 LINE",
"255 677 LINE"
);
},
{
closed = 1;
nodes = (
"209 265 LINE",
"250 381 OFFCURVE",
"282 485 OFFCURVE",
"300 544 CURVE",
"316 489 OFFCURVE",
"348 384 OFFCURVE",
"390 265 CURVE"
);
},
{
closed = 1;
nodes = (
"264 811 CURVE SMOOTH",
"264 847 OFFCURVE",
"242 874 OFFCURVE",
"203 874 CURVE SMOOTH",
"162 874 OFFCURVE",
"140 846 OFFCURVE",
"140 809 CURVE SMOOTH",
"140 775 OFFCURVE",
"162 747 OFFCURVE",
"200 747 CURVE SMOOTH",
"242 747 OFFCURVE",
"264 775 OFFCURVE"
);
},
{
closed = 1;
nodes = (
"464 811 CURVE SMOOTH",
"464 847 OFFCURVE",
"442 874 OFFCURVE",
"403 874 CURVE SMOOTH",
"361 874 OFFCURVE",
"339 846 OFFCURVE",
"339 809 CURVE SMOOTH",
"339 775 OFFCURVE",
"361 747 OFFCURVE",
"400 747 CURVE SMOOTH",
"442 747 OFFCURVE",
"464 775 OFFCURVE"
);
}
);
width = 605;
},
{
layerId = "EB17B230-7FBB-41DE-BCDE-73D8D15F9114";
paths = (
{
closed = 1;
nodes = (
"-1 0 LINE",
"163 0 LINE",
"215 163 LINE",
"434 163 LINE",
"484 0 LINE",
"651 0 LINE",
"403 677 LINE",
"256 677 LINE"
);
},
{
closed = 1;
nodes = (
"253 285 LINE",
"280 362 OFFCURVE",
"310 457 OFFCURVE",
"325 508 CURVE",
"340 459 OFFCURVE",
"370 363 OFFCURVE",
"397 285 CURVE"
);
},
{
closed = 1;
nodes = (
"290 822 CURVE SMOOTH",
"290 862 OFFCURVE",
"264 896 OFFCURVE",
"218 896 CURVE SMOOTH",
"168 896 OFFCURVE",
"143 862 OFFCURVE",
"143 818 CURVE SMOOTH",
"143 778 OFFCURVE",
"168 745 OFFCURVE",
"215 745 CURVE SMOOTH",
"264 745 OFFCURVE",
"290 778 OFFCURVE"
);
},
{
closed = 1;
nodes = (
"505 822 CURVE SMOOTH",
"505 862 OFFCURVE",
"479 896 OFFCURVE",
"433 896 CURVE SMOOTH",
"383 896 OFFCURVE",
"358 862 OFFCURVE",
"358 818 CURVE SMOOTH",
"358 778 OFFCURVE",
"383 745 OFFCURVE",
"430 745 CURVE SMOOTH",
"479 745 OFFCURVE",
"505 778 OFFCURVE"
);
}
);
width = 649;
}
);
leftKerningGroup = A;
rightKerningGroup = A;
unicode = 00C4;
},
{
glyphname = Agrave;
layers = (
{
layerId = "5DBF9900-19CD-41BF-A30E-BB0302EA3177";
paths = (
{
closed = 1;
nodes = (
"-5 0 LINE",
"113 0 LINE",
"177 177 LINE",
"421 177 LINE",
"483 0 LINE",
"610 0 LINE",
"349 677 LINE",
"255 677 LINE"
);
},
{
closed = 1;
nodes = (
"209 265 LINE",
"250 381 OFFCURVE",
"282 485 OFFCURVE",
"300 544 CURVE",
"316 489 OFFCURVE",
"348 384 OFFCURVE",
"390 265 CURVE"
);
},
{
closed = 1;
nodes = (
"324 776 LINE",
"97 928 LINE",
"45 846 LINE",
"138 761 OFFCURVE",
"297 718 OFFCURVE",
"296 718 CURVE"
);
}
);
width = 605;
},
{
layerId = "EB17B230-7FBB-41DE-BCDE-73D8D15F9114";
paths = (
{
closed = 1;
nodes = (
"-1 0 LINE",
"163 0 LINE",
"215 163 LINE",
"434 163 LINE",
"484 0 LINE",
"651 0 LINE",
"403 677 LINE",
"256 677 LINE"
);
},
{
closed = 1;
nodes = (
"253 285 LINE",
"280 362 OFFCURVE",
"310 457 OFFCURVE",
"325 508 CURVE",
"340 459 OFFCURVE",
"370 363 OFFCURVE",
"397 285 CURVE"
);
},
{
closed = 1;
nodes = (
"384 799 LINE",
"177 972 LINE",
"77 871 LINE",
"165 774 OFFCURVE",
"297 732 OFFCURVE",
"322 725 CURVE"
);
}
);
width = 649;
}
);
leftKerningGroup = A;
rightKerningGroup = A;
unicode = 00C0;
},
{
glyphname = Aring;
layers = (
{
layerId = "5DBF9900-19CD-41BF-A30E-BB0302EA3177";
paths = (
{
closed = 1;
nodes = (
"202 727 CURVE SMOOTH",
"202 692 OFFCURVE",
"217 662 OFFCURVE",
"242 644 CURVE",
"-5 0 LINE",
"113 0 LINE",
"177 177 LINE",
"421 177 LINE",
"483 0 LINE",
"610 0 LINE",
"361 645 LINE",
"385 663 OFFCURVE",
"401 693 OFFCURVE",
"401 727 CURVE SMOOTH",
"401 785 OFFCURVE",
"360 827 OFFCURVE",
"303 827 CURVE SMOOTH",
"245 827 OFFCURVE",
"202 784 OFFCURVE"
);
},
{
closed = 1;
nodes = (
"209 265 LINE",
"250 381 OFFCURVE",
"282 485 OFFCURVE",
"300 544 CURVE",
"316 489 OFFCURVE",
"348 384 OFFCURVE",
"390 265 CURVE"
);
},
{
closed = 1;
nodes = (
"258 728 CURVE SMOOTH",
"258 759 OFFCURVE",
"274 777 OFFCURVE",
"301 777 CURVE SMOOTH",
"329 777 OFFCURVE",
"345 757 OFFCURVE",
"345 727 CURVE SMOOTH",
"345 700 OFFCURVE",
"334 682 OFFCURVE",
"314 677 CURVE",
"287 677 LINE",
"268 683 OFFCURVE",
"258 703 OFFCURVE"
);
}
);
width = 605;
},
{
layerId = "EB17B230-7FBB-41DE-BCDE-73D8D15F9114";
paths = (
{
closed = 1;
nodes = (
"215 719 CURVE SMOOTH",
"215 688 OFFCURVE",
"224 661 OFFCURVE",
"242 642 CURVE",
"-1 0 LINE",
"163 0 LINE",
"215 163 LINE",
"434 163 LINE",
"484 0 LINE",
"651 0 LINE",
"412 652 LINE",
"424 670 OFFCURVE",
"432 693 OFFCURVE",
"432 719 CURVE SMOOTH",
"432 782 OFFCURVE",
"391 829 OFFCURVE",
"325 829 CURVE SMOOTH",
"262 829 OFFCURVE",
"215 786 OFFCURVE"
);
},
{
closed = 1;
nodes = (
"253 285 LINE",
"280 362 OFFCURVE",
"310 457 OFFCURVE",
"325 508 CURVE",
"340 459 OFFCURVE",
"370 363 OFFCURVE",
"397 285 CURVE"
);
},
{
closed = 1;
nodes = (
"289 720 CURVE SMOOTH",
"289 746 OFFCURVE",
"302 760 OFFCURVE",
"323 760 CURVE SMOOTH",
"345 760 OFFCURVE",
"358 744 OFFCURVE",
"358 719 CURVE SMOOTH",
"358 693 OFFCURVE",
"347 679 OFFCURVE",
"328 677 CURVE",
"319 677 LINE",
"302 679 OFFCURVE",
"289 693 OFFCURVE"
);
}
);
width = 649;
}
);
leftKerningGroup = A;
rightKerningGroup = A;
unicode = 00C5;
},
{
glyphname = Atilde;
layers = (
{
layerId = "5DBF9900-19CD-41BF-A30E-BB0302EA3177";
paths = (
{
closed = 1;
nodes = (
"-5 0 LINE",
"113 0 LINE",
"177 177 LINE",
"421 177 LINE",
"483 0 LINE",
"610 0 LINE",
"349 677 LINE",
"255 677 LINE"
);
},
{
closed = 1;
nodes = (
"209 265 LINE",
"250 381 OFFCURVE",
"282 485 OFFCURVE",
"300 544 CURVE",
"316 489 OFFCURVE",
"348 384 OFFCURVE",
"390 265 CURVE"
);
},
{
closed = 1;
nodes = (
"137 760 LINE",
"137 760 OFFCURVE",
"171 774 OFFCURVE",
"216 774 CURVE SMOOTH",
"265 774 OFFCURVE",
"320 754 OFFCURVE",
"369 754 CURVE SMOOTH",
"414 754 OFFCURVE",
"449 777 OFFCURVE",
"449 777 CURVE",
"449 851 LINE",
"449 851 OFFCURVE",
"414 837 OFFCURVE",
"369 837 CURVE SMOOTH",
"320 837 OFFCURVE",
"265 857 OFFCURVE",
"216 857 CURVE SMOOTH",
"171 857 OFFCURVE",
"137 834 OFFCURVE",
"137 834 CURVE"
);
}
);
width = 605;
},
{
layerId = "EB17B230-7FBB-41DE-BCDE-73D8D15F9114";
paths = (
{
closed = 1;
nodes = (
"-1 0 LINE",
"163 0 LINE",
"215 163 LINE",
"434 163 LINE",
"484 0 LINE",
"651 0 LINE",
"403 677 LINE",
"256 677 LINE"
);
},
{
closed = 1;
nodes = (
"253 285 LINE",
"280 362 OFFCURVE",
"310 457 OFFCURVE",
"325 508 CURVE",
"340 459 OFFCURVE",
"370 363 OFFCURVE",
"397 285 CURVE"
);
},
{
closed = 1;
nodes = (
"154 757 LINE",
"154 757 OFFCURVE",
"193 771 OFFCURVE",
"242 771 CURVE SMOOTH",
"294 771 OFFCURVE",
"349 751 OFFCURVE",
"402 751 CURVE SMOOTH",
"451 751 OFFCURVE",
"482 774 OFFCURVE",
"482 774 CURVE",
"482 874 LINE",
"482 874 OFFCURVE",
"451 860 OFFCURVE",
"402 860 CURVE SMOOTH",
"349 860 OFFCURVE",
"294 880 OFFCURVE",
"242 880 CURVE SMOOTH",
"193 880 OFFCURVE",
"154 857 OFFCURVE",
"154 857 CURVE"
);
}
);
width = 649;
}
);
leftKerningGroup = A;
rightKerningGroup = A;
unicode = 00C3;
},
{
glyphname = AE;
layers = (
{
layerId = "5DBF9900-19CD-41BF-A30E-BB0302EA3177";
paths = (
{
closed = 1;
nodes = (
"435 0 LINE",
"850 0 LINE",
"850 90 LINE",
"552 90 LINE",
"552 307 LINE",
"770 307 LINE",
"785 398 LINE",
"552 398 LINE",
"552 587 LINE",
"835 587 LINE",
"835 677 LINE",
"405 677 LINE",
"-5 0 LINE",
"133 0 LINE",
"234 177 LINE",
"435 177 LINE"
);
},
{
closed = 1;
nodes = (
"435 555 CURVE",
"435 265 LINE",
"284 265 LINE",
"337 367 OFFCURVE",
"419 521 OFFCURVE"
);
}
);
width = 876;
},
{
layerId = "EB17B230-7FBB-41DE-BCDE-73D8D15F9114";
paths = (
{
closed = 1;
nodes = (
"460 0 LINE",
"904 0 LINE",
"904 121 LINE",
"624 121 LINE",
"624 292 LINE",
"826 292 LINE",
"845 411 LINE",
"624 411 LINE",
"624 556 LINE",
"890 556 LINE",
"890 677 LINE",
"395 677 LINE",
"-13 0 LINE",
"173 0 LINE",
"266 163 LINE",
"460 163 LINE"
);
},
{
closed = 1;
nodes = (
"460 526 LINE",
"460 285 LINE",
"334 285 LINE"
);
}
);
width = 921;
}
);
rightKerningGroup = E;
unicode = 00C6;
},
{
glyphname = B;
layers = (
{
layerId = "5DBF9900-19CD-41BF-A30E-BB0302EA3177";
paths = (
{
closed = 1;
nodes = (
"70 0 LINE",
"93 0 OFFCURVE",
"195 -1 OFFCURVE",
"267 -1 CURVE SMOOTH",
"443 -1 OFFCURVE",
"529 75 OFFCURVE",
"529 190 CURVE SMOOTH",
"529 263 OFFCURVE",
"485 322 OFFCURVE",
"406 352 CURVE",
"469 384 OFFCURVE",
"508 438 OFFCURVE",
"508 503 CURVE SMOOTH",
"508 614 OFFCURVE",
"425 679 OFFCURVE",
"271 679 CURVE SMOOTH",
"218 679 OFFCURVE",
"90 677 OFFCURVE",
"70 677 CURVE"
);
},
{
closed = 1;
nodes = (
"189 303 LINE",
"207 304 OFFCURVE",
"232 304 OFFCURVE",
"264 304 CURVE SMOOTH",
"371 304 OFFCURVE",
"402 248 OFFCURVE",
"402 192 CURVE SMOOTH",
"402 131 OFFCURVE",
"366 85 OFFCURVE",
"275 85 CURVE SMOOTH",
"189 85 LINE"
);
},
{
closed = 1;
nodes = (
"189 593 LINE",
"205 594 OFFCURVE",
"227 594 OFFCURVE",
"256 594 CURVE SMOOTH",
"354 594 OFFCURVE",
"383 541 OFFCURVE",
"383 489 CURVE SMOOTH",
"383 433 OFFCURVE",
"350 389 OFFCURVE",
"266 389 CURVE SMOOTH",
"189 389 LINE"
);
}
);
width = 565;
},
{
layerId = "EB17B230-7FBB-41DE-BCDE-73D8D15F9114";
paths = (
{
closed = 1;
nodes = (
"62 0 LINE",
"91 0 OFFCURVE",
"221 -1 OFFCURVE",
"259 -1 CURVE SMOOTH",
"450 -1 OFFCURVE",
"546 64 OFFCURVE",
"546 189 CURVE SMOOTH",
"546 266 OFFCURVE",
"498 324 OFFCURVE",
"398 353 CURVE",
"482 381 OFFCURVE",
"526 435 OFFCURVE",
"526 503 CURVE SMOOTH",
"526 611 OFFCURVE",
"438 679 OFFCURVE",
"270 679 CURVE SMOOTH",
"228 679 OFFCURVE",
"86 677 OFFCURVE",
"62 677 CURVE"
);
},
{
closed = 1;
nodes = (
"227 288 LINE",
"236 289 OFFCURVE",
"253 290 OFFCURVE",
"271 290 CURVE SMOOTH",
"347 290 OFFCURVE",
"372 243 OFFCURVE",
"372 193 CURVE SMOOTH",
"372 127 OFFCURVE",
"330 108 OFFCURVE",
"276 108 CURVE SMOOTH",
"227 108 LINE"
);
},
{
closed = 1;
nodes = (
"227 569 LINE",
"235 570 OFFCURVE",
"252 570 OFFCURVE",
"269 570 CURVE SMOOTH",
"328 570 OFFCURVE",
"353 536 OFFCURVE",
"353 481 CURVE SMOOTH",
"353 414 OFFCURVE",
"314 393 OFFCURVE",
"273 393 CURVE SMOOTH",
"227 393 LINE"
);
}
);
width = 574;
}
);
leftKerningGroup = I;
unicode = 0042;
},
{
glyphname = C;
layers = (
{
anchors = (
{
name = bottom;
position = "{316, 0}";
}
);
layerId = "5DBF9900-19CD-41BF-A30E-BB0302EA3177";
paths = (
{
closed = 1;
nodes = (
"503 614 LINE",
"471 651 OFFCURVE",
"422 686 OFFCURVE",
"342 686 CURVE SMOOTH",
"142 686 OFFCURVE",
"47 540 OFFCURVE",
"47 330 CURVE SMOOTH",
"47 112 OFFCURVE",
"138 -6 OFFCURVE",
"316 -6 CURVE SMOOTH",
"419 -6 OFFCURVE",
"494 29 OFFCURVE",
"493 28 CURVE",
"465 112 LINE",
"456 110 OFFCURVE",
"400 86 OFFCURVE",
"339 86 CURVE SMOOTH",
"211 86 OFFCURVE",
"176 201 OFFCURVE",
"176 341 CURVE SMOOTH",
"176 482 OFFCURVE",
"216 594 OFFCURVE",
"330 594 CURVE SMOOTH",
"376 594 OFFCURVE",
"410 575 OFFCURVE",
"442 541 CURVE"
);
}
);
width = 523;
},
{
anchors = (
{
name = bottom;
position = "{316, 0}";
}
);
layerId = "EB17B230-7FBB-41DE-BCDE-73D8D15F9114";
paths = (
{
closed = 1;
nodes = (
"537 603 LINE",
"499 646 OFFCURVE",
"448 686 OFFCURVE",
"341 686 CURVE SMOOTH",
"137 686 OFFCURVE",
"39 537 OFFCURVE",
"39 330 CURVE SMOOTH",
"39 116 OFFCURVE",
"130 -6 OFFCURVE",
"335 -6 CURVE SMOOTH",
"416 -6 OFFCURVE",
"480 10 OFFCURVE",
"521 27 CURVE",
"485 139 LINE",
"448 124 OFFCURVE",
"402 111 OFFCURVE",
"355 111 CURVE SMOOTH",
"249 111 OFFCURVE",
"217 205 OFFCURVE",
"217 341 CURVE SMOOTH",
"217 483 OFFCURVE",
"255 569 OFFCURVE",
"341 569 CURVE SMOOTH",
"376 569 OFFCURVE",
"410 557 OFFCURVE",
"447 512 CURVE"
);
}
);
width = 549;
}
);
leftKerningGroup = O;
rightKerningGroup = C;
unicode = 0043;
},
{
glyphname = Ccedilla;
layers = (
{
layerId = "5DBF9900-19CD-41BF-A30E-BB0302EA3177";
paths = (
{
closed = 1;
nodes = (
"503 614 LINE",
"471 651 OFFCURVE",
"422 686 OFFCURVE",
"342 686 CURVE SMOOTH",
"142 686 OFFCURVE",
"47 540 OFFCURVE",
"47 330 CURVE SMOOTH",
"47 126 OFFCURVE",
"128 9 OFFCURVE",
"284 -4 CURVE",
"264 -85 LINE",
"303 -85 OFFCURVE",
"356 -98 OFFCURVE",
"356 -129 CURVE SMOOTH",
"356 -149 OFFCURVE",
"342 -160 OFFCURVE",
"306 -160 CURVE SMOOTH",
"283 -160 OFFCURVE",
"257 -152 OFFCURVE",
"242 -147 CURVE",
"226 -201 LINE",
"249 -210 OFFCURVE",
"280 -218 OFFCURVE",
"313 -218 CURVE SMOOTH",
"367 -218 OFFCURVE",
"430 -199 OFFCURVE",
"430 -126 CURVE SMOOTH",
"430 -77 OFFCURVE",
"392 -51 OFFCURVE",
"340 -47 CURVE",
"349 -5 LINE",
"434 1 OFFCURVE",
"494 28 OFFCURVE",
"493 28 CURVE",
"465 112 LINE",
"456 110 OFFCURVE",
"400 86 OFFCURVE",
"339 86 CURVE SMOOTH",
"211 86 OFFCURVE",
"176 201 OFFCURVE",
"176 341 CURVE SMOOTH",
"176 482 OFFCURVE",
"216 594 OFFCURVE",
"330 594 CURVE SMOOTH",
"376 594 OFFCURVE",
"410 575 OFFCURVE",
"442 541 CURVE"
);
}
);
width = 523;
},
{
layerId = "EB17B230-7FBB-41DE-BCDE-73D8D15F9114";
paths = (
{
closed = 1;
nodes = (
"537 603 LINE",
"499 646 OFFCURVE",
"448 686 OFFCURVE",
"341 686 CURVE SMOOTH",
"137 686 OFFCURVE",
"39 537 OFFCURVE",
"39 330 CURVE SMOOTH",
"39 139 OFFCURVE",
"111 21 OFFCURVE",
"273 -2 CURVE",
"251 -87 LINE",
"293 -87 OFFCURVE",
"345 -100 OFFCURVE",
"345 -127 CURVE SMOOTH",
"345 -143 OFFCURVE",
"331 -151 OFFCURVE",
"300 -151 CURVE SMOOTH",
"279 -151 OFFCURVE",
"252 -145 OFFCURVE",
"234 -137 CURVE",
"211 -212 LINE",
"241 -226 OFFCURVE",
"284 -236 OFFCURVE",
"326 -236 CURVE SMOOTH",
"397 -236 OFFCURVE",
"457 -204 OFFCURVE",
"457 -126 CURVE SMOOTH",
"457 -70 OFFCURVE",
"416 -42 OFFCURVE",
"364 -37 CURVE",
"371 -5 LINE",
"435 -1 OFFCURVE",
"486 13 OFFCURVE",
"521 27 CURVE",
"485 139 LINE",
"448 124 OFFCURVE",
"402 111 OFFCURVE",
"355 111 CURVE SMOOTH",
"249 111 OFFCURVE",
"217 205 OFFCURVE",
"217 341 CURVE SMOOTH",
"217 483 OFFCURVE",
"255 569 OFFCURVE",
"341 569 CURVE SMOOTH",
"376 569 OFFCURVE",
"410 557 OFFCURVE",
"447 512 CURVE"
);
}
);
width = 549;
}
);
leftKerningGroup = O;
rightKerningGroup = C;
unicode = 00C7;
},
{
glyphname = D;
layers = (
{
layerId = "5DBF9900-19CD-41BF-A30E-BB0302EA3177";
paths = (
{
closed = 1;
nodes = (
"70 0 LINE",
"91 0 OFFCURVE",
"171 -2 OFFCURVE",
"253 -2 CURVE SMOOTH",
"492 -2 OFFCURVE",
"600 120 OFFCURVE",
"600 343 CURVE SMOOTH",
"600 564 OFFCURVE",
"491 679 OFFCURVE",
"266 679 CURVE SMOOTH",
"204 679 OFFCURVE",
"90 677 OFFCURVE",
"70 677 CURVE"
);
},
{
closed = 1;
nodes = (
"252 590 CURVE SMOOTH",
"412 590 OFFCURVE",
"471 487 OFFCURVE",
"471 332 CURVE SMOOTH",
"471 170 OFFCURVE",
"407 87 OFFCURVE",
"268 87 CURVE SMOOTH",
"224 87 OFFCURVE",
"204 87 OFFCURVE",
"189 88 CURVE",
"189 589 LINE",
"201 589 OFFCURVE",
"222 590 OFFCURVE"
);
}
);
width = 643;
},
{
layerId = "EB17B230-7FBB-41DE-BCDE-73D8D15F9114";
paths = (
{
closed = 1;
nodes = (
"62 0 LINE",
"160 0 OFFCURVE",
"206 -2 OFFCURVE",
"282 -2 CURVE SMOOTH",
"509 -2 OFFCURVE",
"611 126 OFFCURVE",
"611 333 CURVE SMOOTH",
"611 535 OFFCURVE",
"511 679 OFFCURVE",
"285 679 CURVE SMOOTH",
"211 679 OFFCURVE",
"81 677 OFFCURVE",
"62 677 CURVE"
);
},
{
closed = 1;
nodes = (
"278 563 CURVE SMOOTH",
"383 563 OFFCURVE",
"433 485 OFFCURVE",
"433 331 CURVE SMOOTH",
"433 197 OFFCURVE",
"395 114 OFFCURVE",
"278 114 CURVE SMOOTH",
"254 114 OFFCURVE",
"244 114 OFFCURVE",
"227 115 CURVE",
"227 562 LINE",
"248 562 OFFCURVE",
"256 563 OFFCURVE"
);
}
);
width = 647;
}
);
leftKerningGroup = I;
rightKerningGroup = D;
unicode = 0044;
},
{
glyphname = Eth;
layers = (
{
layerId = "5DBF9900-19CD-41BF-A30E-BB0302EA3177";
paths = (
{
closed = 1;
nodes = (
"70 0 LINE",
"91 0 OFFCURVE",
"171 -2 OFFCURVE",
"253 -2 CURVE SMOOTH",
"492 -2 OFFCURVE",
"600 120 OFFCURVE",
"600 343 CURVE SMOOTH",
"600 564 OFFCURVE",
"491 679 OFFCURVE",
"266 679 CURVE SMOOTH",
"204 679 OFFCURVE",
"90 677 OFFCURVE",
"70 677 CURVE",
"70 391 LINE",
"0 391 LINE",
"0 303 LINE",
"70 303 LINE"
);
},
{
closed = 1;
nodes = (
"252 590 CURVE SMOOTH",
"412 590 OFFCURVE",
"471 487 OFFCURVE",
"471 332 CURVE SMOOTH",
"471 170 OFFCURVE",
"407 87 OFFCURVE",
"268 87 CURVE SMOOTH",
"224 87 OFFCURVE",
"204 87 OFFCURVE",
"189 88 CURVE",
"189 303 LINE",
"369 303 LINE",
"369 391 LINE",
"189 391 LINE",
"189 589 LINE",
"201 589 OFFCURVE",
"222 590 OFFCURVE"
);
}
);
width = 643;
},
{
layerId = "EB17B230-7FBB-41DE-BCDE-73D8D15F9114";
paths = (
{
closed = 1;
nodes = (
"62 0 LINE",
"160 0 OFFCURVE",
"206 -2 OFFCURVE",
"282 -2 CURVE SMOOTH",
"509 -2 OFFCURVE",
"611 126 OFFCURVE",
"611 333 CURVE SMOOTH",
"611 535 OFFCURVE",
"511 679 OFFCURVE",
"285 679 CURVE SMOOTH",
"211 679 OFFCURVE",
"81 677 OFFCURVE",
"62 677 CURVE",
"62 407 LINE",
"-8 407 LINE",
"-8 289 LINE",
"62 289 LINE"
);
},
{
closed = 1;
nodes = (
"278 563 CURVE SMOOTH",
"383 563 OFFCURVE",
"433 485 OFFCURVE",
"433 331 CURVE SMOOTH",
"433 197 OFFCURVE",
"395 114 OFFCURVE",
"278 114 CURVE SMOOTH",
"254 114 OFFCURVE",
"244 114 OFFCURVE",
"227 115 CURVE",
"227 289 LINE",
"339 289 LINE",
"339 407 LINE",
"227 407 LINE",
"227 562 LINE",
"248 562 OFFCURVE",
"256 563 OFFCURVE"
);
}
);
width = 647;
}
);
leftKerningGroup = I;
rightKerningGroup = D;
unicode = 00D0;
},
{
glyphname = E;
layers = (
{
anchors = (
{
name = topUC;
position = "{284, 677}";
}
);
layerId = "5DBF9900-19CD-41BF-A30E-BB0302EA3177";
paths = (
{
closed = 1;
nodes = (
"70 0 LINE",
"487 0 LINE",
"487 90 LINE",
"189 90 LINE",
"189 307 LINE",
"407 307 LINE",
"422 398 LINE",
"189 398 LINE",
"189 587 LINE",
"472 587 LINE",
"472 677 LINE",
"70 677 LINE"
);
}
);
width = 513;
},
{
anchors = (
{
name = topUC;
position = "{284, 677}";
}
);
layerId = "EB17B230-7FBB-41DE-BCDE-73D8D15F9114";
paths = (
{
closed = 1;
nodes = (
"62 0 LINE",
"507 0 LINE",
"507 121 LINE",
"227 121 LINE",
"227 292 LINE",
"429 292 LINE",
"448 411 LINE",
"227 411 LINE",
"227 556 LINE",
"493 556 LINE",
"493 677 LINE",
"62 677 LINE"
);
}
);
width = 524;
}
);
leftKerningGroup = I;
rightKerningGroup = E;
unicode = 0045;
},
{
glyphname = Eacute;
layers = (
{
layerId = "5DBF9900-19CD-41BF-A30E-BB0302EA3177";
paths = (
{
closed = 1;
nodes = (
"70 0 LINE",
"487 0 LINE",
"487 90 LINE",
"189 90 LINE",
"189 307 LINE",
"407 307 LINE",
"422 398 LINE",
"189 398 LINE",
"189 587 LINE",
"472 587 LINE",
"472 677 LINE",
"70 677 LINE"
);
},
{
closed = 1;
nodes = (
"283 718 LINE",
"282 718 OFFCURVE",
"441 761 OFFCURVE",
"534 846 CURVE",
"482 928 LINE",
"255 776 LINE"
);
}
);
width = 513;
},
{
layerId = "EB17B230-7FBB-41DE-BCDE-73D8D15F9114";
paths = (
{
closed = 1;
nodes = (
"62 0 LINE",
"507 0 LINE",
"507 121 LINE",
"227 121 LINE",
"227 292 LINE",
"429 292 LINE",
"448 411 LINE",
"227 411 LINE",
"227 556 LINE",
"493 556 LINE",
"493 677 LINE",
"62 677 LINE"
);
},
{
closed = 1;
nodes = (
"297 725 LINE",
"321 732 OFFCURVE",
"453 774 OFFCURVE",
"542 871 CURVE",
"442 972 LINE",
"235 799 LINE"
);
}
);
width = 524;
}
);
leftKerningGroup = I;
rightKerningGroup = E;
unicode = 00C9;
},
{
glyphname = Ecircumflex;
layers = (
{
layerId = "5DBF9900-19CD-41BF-A30E-BB0302EA3177";
paths = (
{
closed = 1;
nodes = (
"70 0 LINE",
"487 0 LINE",
"487 90 LINE",
"189 90 LINE",
"189 307 LINE",
"407 307 LINE",
"422 398 LINE",
"189 398 LINE",
"189 587 LINE",
"472 587 LINE",
"472 677 LINE",
"70 677 LINE"
);
},
{
closed = 1;
nodes = (
"129 718 LINE",
"128 717 OFFCURVE",
"203 750 OFFCURVE",
"283 808 CURVE",
"362 750 OFFCURVE",
"438 717 OFFCURVE",
"437 718 CURVE",
"481 771 LINE",
"283 928 LINE",
"85 771 LINE"
);
}
);
width = 513;
},
{
layerId = "EB17B230-7FBB-41DE-BCDE-73D8D15F9114";
paths = (
{
closed = 1;
nodes = (
"62 0 LINE",
"507 0 LINE",
"507 121 LINE",
"227 121 LINE",
"227 292 LINE",
"429 292 LINE",
"448 411 LINE",
"227 411 LINE",
"227 556 LINE",
"493 556 LINE",
"493 677 LINE",
"62 677 LINE"
);
},
{
closed = 1;
nodes = (
"156 725 LINE",
"184 737 OFFCURVE",
"239 760 OFFCURVE",
"300 803 CURVE",
"361 760 OFFCURVE",
"417 736 OFFCURVE",
"443 725 CURVE",
"505 800 LINE",
"300 976 LINE",
"95 800 LINE"
);
}
);
width = 524;
}
);
leftKerningGroup = I;
rightKerningGroup = E;
unicode = 00CA;
},
{
glyphname = Edieresis;
layers = (
{
layerId = "5DBF9900-19CD-41BF-A30E-BB0302EA3177";
paths = (
{
closed = 1;
nodes = (
"70 0 LINE",
"487 0 LINE",
"487 90 LINE",
"189 90 LINE",
"189 307 LINE",
"407 307 LINE",
"422 398 LINE",
"189 398 LINE",
"189 587 LINE",
"472 587 LINE",
"472 677 LINE",
"70 677 LINE"
);
},
{
closed = 1;
nodes = (
"218 811 CURVE SMOOTH",
"218 847 OFFCURVE",
"196 874 OFFCURVE",
"157 874 CURVE SMOOTH",
"116 874 OFFCURVE",
"94 846 OFFCURVE",
"94 809 CURVE SMOOTH",
"94 775 OFFCURVE",
"116 747 OFFCURVE",
"154 747 CURVE SMOOTH",
"196 747 OFFCURVE",
"218 775 OFFCURVE"
);
},
{
closed = 1;
nodes = (
"418 811 CURVE SMOOTH",
"418 847 OFFCURVE",
"396 874 OFFCURVE",
"357 874 CURVE SMOOTH",
"315 874 OFFCURVE",
"293 846 OFFCURVE",
"293 809 CURVE SMOOTH",
"293 775 OFFCURVE",
"315 747 OFFCURVE",
"354 747 CURVE SMOOTH",
"396 747 OFFCURVE",
"418 775 OFFCURVE"
);
}
);
width = 513;
},
{
layerId = "EB17B230-7FBB-41DE-BCDE-73D8D15F9114";
paths = (
{
closed = 1;
nodes = (
"62 0 LINE",
"507 0 LINE",
"507 121 LINE",
"227 121 LINE",
"227 292 LINE",
"429 292 LINE",
"448 411 LINE",
"227 411 LINE",
"227 556 LINE",
"493 556 LINE",
"493 677 LINE",
"62 677 LINE"
);
},
{
closed = 1;
nodes = (
"239 822 CURVE SMOOTH",
"239 862 OFFCURVE",
"213 896 OFFCURVE",
"167 896 CURVE SMOOTH",
"117 896 OFFCURVE",
"92 862 OFFCURVE",
"92 818 CURVE SMOOTH",
"92 778 OFFCURVE",
"117 745 OFFCURVE",
"164 745 CURVE SMOOTH",
"213 745 OFFCURVE",
"239 778 OFFCURVE"
);
},
{
closed = 1;
nodes = (
"454 822 CURVE SMOOTH",
"454 862 OFFCURVE",
"428 896 OFFCURVE",
"382 896 CURVE SMOOTH",
"332 896 OFFCURVE",
"307 862 OFFCURVE",
"307 818 CURVE SMOOTH",
"307 778 OFFCURVE",
"332 745 OFFCURVE",
"379 745 CURVE SMOOTH",
"428 745 OFFCURVE",
"454 778 OFFCURVE"
);
}
);
width = 524;
}
);
leftKerningGroup = I;
rightKerningGroup = E;
unicode = 00CB;
},
{
glyphname = Egrave;
layers = (
{
layerId = "5DBF9900-19CD-41BF-A30E-BB0302EA3177";
paths = (
{
closed = 1;
nodes = (
"70 0 LINE",
"487 0 LINE",
"487 90 LINE",
"189 90 LINE",
"189 307 LINE",
"407 307 LINE",
"422 398 LINE",
"189 398 LINE",
"189 587 LINE",
"472 587 LINE",
"472 677 LINE",
"70 677 LINE"
);
},
{
closed = 1;
nodes = (
"307 776 LINE",
"80 928 LINE",
"28 846 LINE",
"121 761 OFFCURVE",
"280 718 OFFCURVE",
"279 718 CURVE"
);
}
);
width = 513;
},
{
layerId = "EB17B230-7FBB-41DE-BCDE-73D8D15F9114";
paths = (
{
closed = 1;
nodes = (
"62 0 LINE",
"507 0 LINE",
"507 121 LINE",
"227 121 LINE",
"227 292 LINE",
"429 292 LINE",
"448 411 LINE",
"227 411 LINE",
"227 556 LINE",
"493 556 LINE",
"493 677 LINE",
"62 677 LINE"
);
},
{
closed = 1;
nodes = (
"355 799 LINE",
"148 972 LINE",
"48 871 LINE",
"136 774 OFFCURVE",
"268 732 OFFCURVE",
"293 725 CURVE"
);
}
);
width = 524;
}
);
leftKerningGroup = I;
rightKerningGroup = E;
unicode = 00C8;
},
{
glyphname = F;
layers = (
{
layerId = "5DBF9900-19CD-41BF-A30E-BB0302EA3177";
paths = (
{
closed = 1;
nodes = (
"70 0 LINE",
"189 0 LINE",
"189 302 LINE",
"407 302 LINE",
"422 392 LINE",
"189 392 LINE",
"189 587 LINE",
"472 587 LINE",
"472 677 LINE",
"70 677 LINE"
);
}
);
width = 488;
},
{
layerId = "EB17B230-7FBB-41DE-BCDE-73D8D15F9114";
paths = (
{
closed = 1;
nodes = (
"62 0 LINE",
"227 0 LINE",
"227 283 LINE",
"430 283 LINE",
"450 402 LINE",
"227 402 LINE",
"227 557 LINE",
"493 557 LINE",
"493 677 LINE",
"62 677 LINE"
);
}
);
width = 501;
}
);
leftKerningGroup = I;
unicode = 0046;
},
{
glyphname = G;
layers = (
{
layerId = "5DBF9900-19CD-41BF-A30E-BB0302EA3177";
paths = (
{
closed = 1;
nodes = (
"377 -223 LINE",
"459 -182 OFFCURVE",
"555 -135 OFFCURVE",
"555 27 CURVE SMOOTH",
"555 328 LINE",
"438 328 LINE",
"438 237 LINE SMOOTH",
"438 142 OFFCURVE",
"366 85 OFFCURVE",
"304 85 CURVE SMOOTH",
"209 85 OFFCURVE",
"172 188 OFFCURVE",
"172 339 CURVE SMOOTH",
"172 480 OFFCURVE",
"211 594 OFFCURVE",
"325 594 CURVE SMOOTH",
"377 594 OFFCURVE",
"431 573 OFFCURVE",
"465 539 CURVE",
"523 615 LINE",
"489 651 OFFCURVE",
"428 686 OFFCURVE",
"339 686 CURVE SMOOTH",
"137 686 OFFCURVE",
"43 537 OFFCURVE",
"43 329 CURVE SMOOTH",
"43 127 OFFCURVE",
"114 -8 OFFCURVE",
"281 -8 CURVE SMOOTH",
"358 -8 OFFCURVE",
"420 23 OFFCURVE",
"450 79 CURVE",
"450 65 LINE SMOOTH",
"450 0 OFFCURVE",
"451 -85 OFFCURVE",
"331 -144 CURVE"
);
}
);
width = 605;
},
{
layerId = "EB17B230-7FBB-41DE-BCDE-73D8D15F9114";
paths = (
{
closed = 1;
nodes = (
"372 -223 LINE",
"469 -182 OFFCURVE",
"568 -131 OFFCURVE",
"568 31 CURVE SMOOTH",
"568 350 LINE",
"410 350 LINE",
"410 275 LINE SMOOTH",
"410 199 OFFCURVE",
"366 111 OFFCURVE",
"313 111 CURVE SMOOTH",
"245 111 OFFCURVE",
"213 201 OFFCURVE",
"213 340 CURVE SMOOTH",
"213 483 OFFCURVE",
"251 569 OFFCURVE",
"345 569 CURVE SMOOTH",
"388 569 OFFCURVE",
"434 540 OFFCURVE",
"472 503 CURVE",
"549 597 LINE",
"501 655 OFFCURVE",
"423 686 OFFCURVE",
"345 686 CURVE SMOOTH",
"132 686 OFFCURVE",
"35 536 OFFCURVE",
"35 330 CURVE SMOOTH",
"35 120 OFFCURVE",
"121 -7 OFFCURVE",
"278 -7 CURVE SMOOTH",
"347 -7 OFFCURVE",
"399 22 OFFCURVE",
"426 72 CURVE",
"426 65 LINE SMOOTH",
"426 -24 OFFCURVE",
"397 -72 OFFCURVE",
"312 -119 CURVE"
);
}
);
width = 611;
}
);
leftKerningGroup = O;
unicode = 0047;
},
{
glyphname = H;
layers = (
{
layerId = "5DBF9900-19CD-41BF-A30E-BB0302EA3177";
paths = (
{
closed = 1;
nodes = (
"468 0 LINE",
"587 0 LINE",
"587 677 LINE",
"468 677 LINE",
"468 395 LINE",
"189 395 LINE",
"189 677 LINE",
"70 677 LINE",
"70 0 LINE",
"189 0 LINE",
"189 308 LINE",
"468 308 LINE"
);
}
);
width = 657;
},
{
layerId = "EB17B230-7FBB-41DE-BCDE-73D8D15F9114";
paths = (
{
closed = 1;
nodes = (
"461 0 LINE",
"625 0 LINE",
"625 677 LINE",
"461 677 LINE",
"461 412 LINE",
"227 412 LINE",
"227 677 LINE",
"62 677 LINE",
"62 0 LINE",
"227 0 LINE",
"227 290 LINE",
"461 290 LINE"
);
}
);
width = 688;
}
);
leftKerningGroup = I;
rightKerningGroup = I;
unicode = 0048;
},
{
glyphname = I;
layers = (
{
anchors = (
{
name = topUC;
position = "{131, 677}";
}
);
layerId = "5DBF9900-19CD-41BF-A30E-BB0302EA3177";
paths = (
{
closed = 1;
nodes = (
"70 0 LINE",
"189 0 LINE",
"189 677 LINE",
"70 677 LINE"
);
}
);
width = 259;
},
{
anchors = (
{
name = topUC;
position = "{131, 677}";
}
);
layerId = "EB17B230-7FBB-41DE-BCDE-73D8D15F9114";
paths = (
{
closed = 1;
nodes = (
"62 0 LINE",
"227 0 LINE",
"227 677 LINE",
"62 677 LINE"
);
}
);
width = 289;
}
);
leftKerningGroup = I;
rightKerningGroup = I;
unicode = 0049;
},
{
glyphname = Iacute;
layers = (
{
layerId = "5DBF9900-19CD-41BF-A30E-BB0302EA3177";
paths = (
{
closed = 1;
nodes = (
"70 0 LINE",
"189 0 LINE",
"189 677 LINE",
"70 677 LINE"
);
},
{
closed = 1;
nodes = (
"130 718 LINE",
"129 718 OFFCURVE",
"288 761 OFFCURVE",
"381 846 CURVE",
"329 928 LINE",
"102 776 LINE"
);
}
);
width = 259;
},
{
layerId = "EB17B230-7FBB-41DE-BCDE-73D8D15F9114";
paths = (
{
closed = 1;
nodes = (
"62 0 LINE",
"227 0 LINE",
"227 677 LINE",
"62 677 LINE"
);
},
{
closed = 1;
nodes = (
"146 725 LINE",
"170 732 OFFCURVE",
"302 774 OFFCURVE",
"391 871 CURVE",
"291 972 LINE",
"84 799 LINE"
);
}
);
width = 289;
}
);
leftKerningGroup = I;
rightKerningGroup = I;
unicode = 00CD;
},
{
glyphname = Icircumflex;
layers = (
{
layerId = "5DBF9900-19CD-41BF-A30E-BB0302EA3177";
paths = (
{
closed = 1;
nodes = (
"70 0 LINE",
"189 0 LINE",
"189 677 LINE",
"70 677 LINE"
);
},
{
closed = 1;
nodes = (
"-24 718 LINE",
"-25 717 OFFCURVE",
"50 750 OFFCURVE",
"130 808 CURVE",
"209 750 OFFCURVE",
"285 717 OFFCURVE",
"284 718 CURVE",
"328 771 LINE",
"130 928 LINE",
"-68 771 LINE"
);
}
);
width = 259;
},
{
layerId = "EB17B230-7FBB-41DE-BCDE-73D8D15F9114";
paths = (
{
closed = 1;
nodes = (
"62 0 LINE",
"227 0 LINE",
"227 677 LINE",
"62 677 LINE"
);
},
{
closed = 1;
nodes = (
"6 725 LINE",
"34 737 OFFCURVE",
"89 760 OFFCURVE",
"150 803 CURVE",
"211 760 OFFCURVE",
"267 736 OFFCURVE",
"293 725 CURVE",
"355 800 LINE",
"150 976 LINE",
"-55 800 LINE"
);
}
);
width = 289;
}
);
leftKerningGroup = I;
rightKerningGroup = I;
unicode = 00CE;
},
{
glyphname = Idieresis;
layers = (
{
layerId = "5DBF9900-19CD-41BF-A30E-BB0302EA3177";
paths = (
{
closed = 1;
nodes = (
"70 0 LINE",
"189 0 LINE",
"189 677 LINE",
"70 677 LINE"
);
},
{
closed = 1;
nodes = (
"92 811 CURVE SMOOTH",
"92 847 OFFCURVE",
"70 874 OFFCURVE",
"31 874 CURVE SMOOTH",
"-10 874 OFFCURVE",
"-32 846 OFFCURVE",
"-32 809 CURVE SMOOTH",
"-32 775 OFFCURVE",
"-10 747 OFFCURVE",
"28 747 CURVE SMOOTH",
"70 747 OFFCURVE",
"92 775 OFFCURVE"
);
},
{
closed = 1;
nodes = (
"292 811 CURVE SMOOTH",
"292 847 OFFCURVE",
"270 874 OFFCURVE",
"231 874 CURVE SMOOTH",
"189 874 OFFCURVE",
"167 846 OFFCURVE",
"167 809 CURVE SMOOTH",
"167 775 OFFCURVE",
"189 747 OFFCURVE",
"228 747 CURVE SMOOTH",
"270 747 OFFCURVE",
"292 775 OFFCURVE"
);
}
);
width = 259;
},
{
layerId = "EB17B230-7FBB-41DE-BCDE-73D8D15F9114";
paths = (
{
closed = 1;
nodes = (
"62 0 LINE",
"227 0 LINE",
"227 677 LINE",
"62 677 LINE"
);
},
{
closed = 1;
nodes = (
"111 822 CURVE SMOOTH",
"111 862 OFFCURVE",
"85 896 OFFCURVE",
"39 896 CURVE SMOOTH",
"-11 896 OFFCURVE",
"-36 862 OFFCURVE",
"-36 818 CURVE SMOOTH",
"-36 778 OFFCURVE",
"-11 745 OFFCURVE",
"36 745 CURVE SMOOTH",
"85 745 OFFCURVE",
"111 778 OFFCURVE"
);
},
{
closed = 1;
nodes = (
"326 822 CURVE SMOOTH",
"326 862 OFFCURVE",
"300 896 OFFCURVE",
"254 896 CURVE SMOOTH",
"204 896 OFFCURVE",
"179 862 OFFCURVE",
"179 818 CURVE SMOOTH",
"179 778 OFFCURVE",
"204 745 OFFCURVE",
"251 745 CURVE SMOOTH",
"300 745 OFFCURVE",
"326 778 OFFCURVE"
);
}
);
width = 289;
}
);
leftKerningGroup = I;
rightKerningGroup = I;
unicode = 00CF;
},
{
glyphname = Igrave;
layers = (
{
layerId = "5DBF9900-19CD-41BF-A30E-BB0302EA3177";
paths = (
{
closed = 1;
nodes = (
"70 0 LINE",
"189 0 LINE",
"189 677 LINE",
"70 677 LINE"
);
},
{
closed = 1;
nodes = (
"154 776 LINE",
"-73 928 LINE",
"-125 846 LINE",
"-32 761 OFFCURVE",
"127 718 OFFCURVE",
"126 718 CURVE"
);
}
);
width = 259;
},
{
layerId = "EB17B230-7FBB-41DE-BCDE-73D8D15F9114";
paths = (
{
closed = 1;
nodes = (
"62 0 LINE",
"227 0 LINE",
"227 677 LINE",
"62 677 LINE"
);
},
{
closed = 1;
nodes = (
"205 799 LINE",
"-2 972 LINE",
"-102 871 LINE",
"-14 774 OFFCURVE",
"118 732 OFFCURVE",
"143 725 CURVE"
);
}
);
width = 289;
}
);
leftKerningGroup = I;
rightKerningGroup = I;
unicode = 00CC;
},
{
glyphname = J;
layers = (
{
layerId = "5DBF9900-19CD-41BF-A30E-BB0302EA3177";
paths = (
{
closed = 1;
nodes = (
"189 677 LINE",
"70 677 LINE",
"70 13 LINE SMOOTH",
"70 -29 OFFCURVE",
"70 -92 OFFCURVE",
"-35 -144 CURVE",
"12 -223 LINE",
"93 -182 OFFCURVE",
"189 -136 OFFCURVE",
"189 25 CURVE SMOOTH"
);
}
);
width = 259;
},
{
layerId = "EB17B230-7FBB-41DE-BCDE-73D8D15F9114";
paths = (
{
closed = 1;
nodes = (
"222 677 LINE",
"58 677 LINE",
"58 41 LINE SMOOTH",
"58 -7 OFFCURVE",
"58 -59 OFFCURVE",
"-43 -112 CURVE",
"24 -223 LINE",
"136 -169 OFFCURVE",
"222 -107 OFFCURVE",
"222 43 CURVE SMOOTH"
);
}
);
width = 285;
}
);
unicode = 004A;
},
{
glyphname = K;
layers = (
{
layerId = "5DBF9900-19CD-41BF-A30E-BB0302EA3177";
paths = (
{
closed = 1;
nodes = (
"70 0 LINE",
"189 0 LINE",
"189 677 LINE",
"70 677 LINE"
);
},
{
closed = 1;
nodes = (
"539 677 CURVE",
"422 677 LINE",
"386 524 OFFCURVE",
"325 418 OFFCURVE",
"202 373 CURVE",
"202 366 LINE",
"460 0 LINE",
"598 0 LINE",
"352 352 LINE",
"436 408 OFFCURVE",
"496 477 OFFCURVE"
);
}
);
width = 591;
},
{
layerId = "EB17B230-7FBB-41DE-BCDE-73D8D15F9114";
paths = (
{
closed = 1;
nodes = (
"62 0 LINE",
"227 0 LINE",
"227 677 LINE",
"62 677 LINE"
);
},
{
closed = 1;
nodes = (
"590 677 CURVE",
"426 677 LINE",
"394 533 OFFCURVE",
"356 440 OFFCURVE",
"238 383 CURVE",
"238 371 LINE",
"468 0 LINE",
"652 0 LINE",
"418 356 LINE",
"490 412 OFFCURVE",
"552 488 OFFCURVE"
);
}
);
width = 638;
}
);
leftKerningGroup = I;
unicode = 004B;
},
{
glyphname = L;
layers = (
{
layerId = "5DBF9900-19CD-41BF-A30E-BB0302EA3177";
paths = (
{
closed = 1;
nodes = (
"70 0 LINE",
"442 0 LINE",
"442 90 LINE",
"189 90 LINE",
"189 677 LINE",
"70 677 LINE"
);
}
);
width = 442;
},
{
layerId = "EB17B230-7FBB-41DE-BCDE-73D8D15F9114";
paths = (
{
closed = 1;
nodes = (
"62 0 LINE",
"465 0 LINE",
"465 121 LINE",
"227 121 LINE",
"227 677 LINE",
"62 677 LINE"
);
}
);
width = 458;
}
);
leftKerningGroup = I;
unicode = 004C;
},
{
glyphname = M;
layers = (
{
layerId = "5DBF9900-19CD-41BF-A30E-BB0302EA3177";
paths = (
{
closed = 1;
nodes = (
"562 260 LINE",
"573 288 OFFCURVE",
"600 359 OFFCURVE",
"624 425 CURVE",
"625 361 OFFCURVE",
"628 292 OFFCURVE",
"629 259 CURVE SMOOTH",
"640 0 LINE",
"751 0 LINE",
"711 679 LINE",
"620 679 LINE",
"448 255 LINE SMOOTH",
"435 223 OFFCURVE",
"419 186 OFFCURVE",
"406 152 CURVE",
"393 187 OFFCURVE",
"376 225 OFFCURVE",
"364 255 CURVE SMOOTH",
"193 679 LINE",
"100 679 LINE",
"60 0 LINE",
"172 0 LINE",
"182 262 LINE SMOOTH",
"183 288 OFFCURVE",
"185 360 OFFCURVE",
"186 429 CURVE",
"211 361 OFFCURVE",
"240 287 OFFCURVE",
"253 257 CURVE SMOOTH",
"366 0 LINE",
"450 0 LINE"
);
}
);
width = 811;
},
{
layerId = "EB17B230-7FBB-41DE-BCDE-73D8D15F9114";
paths = (
{
closed = 1;
nodes = (
"576 201 LINE SMOOTH",
"590 233 OFFCURVE",
"626 323 OFFCURVE",
"646 380 CURVE",
"645 313 OFFCURVE",
"645 186 OFFCURVE",
"647 136 CURVE SMOOTH",
"653 0 LINE",
"808 0 LINE",
"768 677 LINE",
"629 677 LINE",
"473 287 LINE SMOOTH",
"463 262 OFFCURVE",
"446 215 OFFCURVE",
"431 166 CURVE",
"416 216 OFFCURVE",
"399 263 OFFCURVE",
"390 287 CURVE SMOOTH",
"234 677 LINE",
"92 677 LINE",
"52 0 LINE",
"204 0 LINE",
"209 136 LINE SMOOTH",
"211 185 OFFCURVE",
"211 312 OFFCURVE",
"211 380 CURVE",
"234 317 OFFCURVE",
"274 214 OFFCURVE",
"283 192 CURVE SMOOTH",
"366 0 LINE",
"491 0 LINE"
);
}
);
width = 860;
}
);
unicode = 004D;
},
{
glyphname = N;
layers = (
{
layerId = "5DBF9900-19CD-41BF-A30E-BB0302EA3177";
paths = (
{
closed = 1;
nodes = (
"473 323 LINE SMOOTH",
"473 292 OFFCURVE",
"476 246 OFFCURVE",
"479 203 CURVE",
"453 243 OFFCURVE",
"424 289 OFFCURVE",
"398 327 CURVE SMOOTH",
"163 679 LINE",
"70 679 LINE",
"70 0 LINE",
"189 0 LINE",
"186 354 LINE SMOOTH",
"186 396 OFFCURVE",
"182 445 OFFCURVE",
"178 488 CURVE",
"204 447 OFFCURVE",
"237 393 OFFCURVE",
"262 355 CURVE SMOOTH",
"490 -1 LINE",
"589 -1 LINE",
"589 677 LINE",
"470 677 LINE"
);
}
);
width = 659;
},
{
layerId = "EB17B230-7FBB-41DE-BCDE-73D8D15F9114";
paths = (
{
closed = 1;
nodes = (
"465 418 LINE SMOOTH",
"466 376 OFFCURVE",
"471 299 OFFCURVE",
"473 257 CURVE",
"454 288 OFFCURVE",
"416 351 OFFCURVE",
"392 387 CURVE SMOOTH",
"197 677 LINE",
"62 677 LINE",
"62 0 LINE",
"227 0 LINE",
"224 260 LINE SMOOTH",
"224 298 OFFCURVE",
"218 377 OFFCURVE",
"215 418 CURVE",
"233 389 OFFCURVE",
"276 317 OFFCURVE",
"293 292 CURVE SMOOTH",
"486 0 LINE",
"627 0 LINE",
"627 677 LINE",
"462 677 LINE"
);
}
);
width = 689;
}
);
leftKerningGroup = I;
rightKerningGroup = I;
unicode = 004E;
},
{
glyphname = Ntilde;
layers = (
{
layerId = "5DBF9900-19CD-41BF-A30E-BB0302EA3177";
paths = (
{
closed = 1;
nodes = (
"473 323 LINE SMOOTH",
"473 292 OFFCURVE",
"476 246 OFFCURVE",
"479 203 CURVE",
"453 243 OFFCURVE",
"424 289 OFFCURVE",
"398 327 CURVE SMOOTH",
"163 679 LINE",
"70 679 LINE",
"70 0 LINE",
"189 0 LINE",
"186 354 LINE SMOOTH",
"186 396 OFFCURVE",
"182 445 OFFCURVE",
"178 488 CURVE",
"204 447 OFFCURVE",
"237 393 OFFCURVE",
"262 355 CURVE SMOOTH",
"490 -1 LINE",
"589 -1 LINE",
"589 677 LINE",
"470 677 LINE"
);
},
{
closed = 1;
nodes = (
"173 768 LINE",
"173 768 OFFCURVE",
"207 782 OFFCURVE",
"252 782 CURVE SMOOTH",
"301 782 OFFCURVE",
"356 762 OFFCURVE",
"405 762 CURVE SMOOTH",
"450 762 OFFCURVE",
"485 785 OFFCURVE",
"485 785 CURVE",
"485 859 LINE",
"485 859 OFFCURVE",
"450 845 OFFCURVE",
"405 845 CURVE SMOOTH",
"356 845 OFFCURVE",
"301 865 OFFCURVE",
"252 865 CURVE SMOOTH",
"207 865 OFFCURVE",
"173 842 OFFCURVE",
"173 842 CURVE"
);
}
);
width = 659;
},
{
layerId = "EB17B230-7FBB-41DE-BCDE-73D8D15F9114";
paths = (
{
closed = 1;
nodes = (
"465 418 LINE SMOOTH",
"466 376 OFFCURVE",
"471 299 OFFCURVE",
"473 257 CURVE",
"454 288 OFFCURVE",
"416 351 OFFCURVE",
"392 387 CURVE SMOOTH",
"197 677 LINE",
"62 677 LINE",
"62 0 LINE",
"227 0 LINE",
"224 260 LINE SMOOTH",
"224 298 OFFCURVE",
"218 377 OFFCURVE",
"215 418 CURVE",
"233 389 OFFCURVE",
"276 317 OFFCURVE",
"293 292 CURVE SMOOTH",
"486 0 LINE",
"627 0 LINE",
"627 677 LINE",
"462 677 LINE"
);
},
{
closed = 1;
nodes = (
"180 760 LINE",
"180 760 OFFCURVE",
"219 774 OFFCURVE",
"268 774 CURVE SMOOTH",
"320 774 OFFCURVE",
"375 754 OFFCURVE",
"428 754 CURVE SMOOTH",
"477 754 OFFCURVE",
"508 777 OFFCURVE",
"508 777 CURVE",
"508 877 LINE",
"508 877 OFFCURVE",
"477 863 OFFCURVE",
"428 863 CURVE SMOOTH",
"375 863 OFFCURVE",
"320 883 OFFCURVE",
"268 883 CURVE SMOOTH",
"219 883 OFFCURVE",
"180 860 OFFCURVE",
"180 860 CURVE"
);
}
);
width = 689;
}
);
leftKerningGroup = I;
rightKerningGroup = I;
unicode = 00D1;
},
{
glyphname = O;
layers = (
{
anchors = (
{
name = topUC;
position = "{333, 677}";
}
);
layerId = "5DBF9900-19CD-41BF-A30E-BB0302EA3177";
paths = (
{
closed = 1;
nodes = (
"341 686 CURVE SMOOTH",
"138 686 OFFCURVE",
"45 539 OFFCURVE",
"45 330 CURVE SMOOTH",
"45 118 OFFCURVE",
"128 -6 OFFCURVE",
"328 -6 CURVE SMOOTH",
"530 -6 OFFCURVE",
"623 136 OFFCURVE",
"623 344 CURVE SMOOTH",
"623 555 OFFCURVE",
"540 686 OFFCURVE"
);
},
{
closed = 1;
nodes = (
"327 594 CURVE SMOOTH",
"465 594 OFFCURVE",
"495 469 OFFCURVE",
"495 334 CURVE SMOOTH",
"495 192 OFFCURVE",
"458 86 OFFCURVE",
"342 86 CURVE SMOOTH",
"204 86 OFFCURVE",
"174 206 OFFCURVE",
"174 341 CURVE SMOOTH",
"174 484 OFFCURVE",
"211 594 OFFCURVE"
);
}
);
width = 668;
},
{
anchors = (
{
name = topUC;
position = "{333, 677}";
}
);
layerId = "EB17B230-7FBB-41DE-BCDE-73D8D15F9114";
paths = (
{
closed = 1;
nodes = (
"353 686 CURVE SMOOTH",
"139 686 OFFCURVE",
"37 539 OFFCURVE",
"37 330 CURVE SMOOTH",
"37 118 OFFCURVE",
"129 -6 OFFCURVE",
"340 -6 CURVE SMOOTH",
"553 -6 OFFCURVE",
"655 136 OFFCURVE",
"655 344 CURVE SMOOTH",
"655 555 OFFCURVE",
"563 686 OFFCURVE"
);
},
{
closed = 1;
nodes = (
"339 569 CURVE SMOOTH",
"447 569 OFFCURVE",
"477 469 OFFCURVE",
"477 334 CURVE SMOOTH",
"477 192 OFFCURVE",
"440 111 OFFCURVE",
"354 111 CURVE SMOOTH",
"245 111 OFFCURVE",
"215 206 OFFCURVE",
"215 341 CURVE SMOOTH",
"215 484 OFFCURVE",
"252 569 OFFCURVE"
);
}
);
width = 693;
}
);
leftKerningGroup = O;
rightKerningGroup = O;
unicode = 004F;
},
{
glyphname = Oacute;
layers = (
{
layerId = "5DBF9900-19CD-41BF-A30E-BB0302EA3177";
paths = (
{
closed = 1;
nodes = (
"341 686 CURVE SMOOTH",
"138 686 OFFCURVE",
"45 539 OFFCURVE",
"45 330 CURVE SMOOTH",
"45 118 OFFCURVE",
"128 -6 OFFCURVE",
"328 -6 CURVE SMOOTH",
"530 -6 OFFCURVE",
"623 136 OFFCURVE",
"623 344 CURVE SMOOTH",
"623 555 OFFCURVE",
"540 686 OFFCURVE"
);
},
{
closed = 1;
nodes = (
"327 594 CURVE SMOOTH",
"465 594 OFFCURVE",
"495 469 OFFCURVE",
"495 334 CURVE SMOOTH",
"495 192 OFFCURVE",
"458 86 OFFCURVE",
"342 86 CURVE SMOOTH",
"204 86 OFFCURVE",
"174 206 OFFCURVE",
"174 341 CURVE SMOOTH",
"174 484 OFFCURVE",
"211 594 OFFCURVE"
);
},
{
closed = 1;
nodes = (
"331 718 LINE",
"330 718 OFFCURVE",
"489 761 OFFCURVE",
"582 846 CURVE",
"530 928 LINE",
"303 776 LINE"
);
}
);
width = 668;
},
{
layerId = "EB17B230-7FBB-41DE-BCDE-73D8D15F9114";
paths = (
{
closed = 1;
nodes = (
"353 686 CURVE SMOOTH",
"139 686 OFFCURVE",
"37 539 OFFCURVE",
"37 330 CURVE SMOOTH",
"37 118 OFFCURVE",
"129 -6 OFFCURVE",
"340 -6 CURVE SMOOTH",
"553 -6 OFFCURVE",
"655 136 OFFCURVE",
"655 344 CURVE SMOOTH",
"655 555 OFFCURVE",
"563 686 OFFCURVE"
);
},
{
closed = 1;
nodes = (
"339 569 CURVE SMOOTH",
"447 569 OFFCURVE",
"477 469 OFFCURVE",
"477 334 CURVE SMOOTH",
"477 192 OFFCURVE",
"440 111 OFFCURVE",
"354 111 CURVE SMOOTH",
"245 111 OFFCURVE",
"215 206 OFFCURVE",
"215 341 CURVE SMOOTH",
"215 484 OFFCURVE",
"252 569 OFFCURVE"
);
},
{
closed = 1;
nodes = (
"356 725 LINE",
"380 732 OFFCURVE",
"512 774 OFFCURVE",
"601 871 CURVE",
"501 972 LINE",
"294 799 LINE"
);
}
);
width = 693;
}
);
leftKerningGroup = O;
rightKerningGroup = O;
unicode = 00D3;
},
{
glyphname = Ocircumflex;
layers = (
{
layerId = "5DBF9900-19CD-41BF-A30E-BB0302EA3177";
paths = (
{
closed = 1;
nodes = (
"341 686 CURVE SMOOTH",
"138 686 OFFCURVE",
"45 539 OFFCURVE",
"45 330 CURVE SMOOTH",
"45 118 OFFCURVE",
"128 -6 OFFCURVE",
"328 -6 CURVE SMOOTH",
"530 -6 OFFCURVE",
"623 136 OFFCURVE",
"623 344 CURVE SMOOTH",
"623 555 OFFCURVE",
"540 686 OFFCURVE"
);
},
{
closed = 1;
nodes = (
"327 594 CURVE SMOOTH",
"465 594 OFFCURVE",
"495 469 OFFCURVE",
"495 334 CURVE SMOOTH",
"495 192 OFFCURVE",
"458 86 OFFCURVE",
"342 86 CURVE SMOOTH",
"204 86 OFFCURVE",
"174 206 OFFCURVE",
"174 341 CURVE SMOOTH",
"174 484 OFFCURVE",
"211 594 OFFCURVE"
);
},
{
closed = 1;
nodes = (
"178 718 LINE",
"177 717 OFFCURVE",
"252 750 OFFCURVE",
"332 808 CURVE",
"411 750 OFFCURVE",
"487 717 OFFCURVE",
"486 718 CURVE",
"530 771 LINE",
"332 928 LINE",
"134 771 LINE"
);
}
);
width = 668;
},
{
layerId = "EB17B230-7FBB-41DE-BCDE-73D8D15F9114";
paths = (
{
closed = 1;
nodes = (
"353 686 CURVE SMOOTH",
"139 686 OFFCURVE",
"37 539 OFFCURVE",
"37 330 CURVE SMOOTH",
"37 118 OFFCURVE",
"129 -6 OFFCURVE",
"340 -6 CURVE SMOOTH",
"553 -6 OFFCURVE",
"655 136 OFFCURVE",
"655 344 CURVE SMOOTH",
"655 555 OFFCURVE",
"563 686 OFFCURVE"
);
},
{
closed = 1;
nodes = (
"339 569 CURVE SMOOTH",
"447 569 OFFCURVE",
"477 469 OFFCURVE",
"477 334 CURVE SMOOTH",
"477 192 OFFCURVE",
"440 111 OFFCURVE",
"354 111 CURVE SMOOTH",
"245 111 OFFCURVE",
"215 206 OFFCURVE",
"215 341 CURVE SMOOTH",
"215 484 OFFCURVE",
"252 569 OFFCURVE"
);
},
{
closed = 1;
nodes = (
"216 725 LINE",
"244 737 OFFCURVE",
"299 760 OFFCURVE",
"360 803 CURVE",
"421 760 OFFCURVE",
"477 736 OFFCURVE",
"503 725 CURVE",
"565 800 LINE",
"360 976 LINE",
"155 800 LINE"
);
}
);
width = 693;
}
);
leftKerningGroup = O;
rightKerningGroup = O;
unicode = 00D4;
},
{
glyphname = Odieresis;
layers = (
{
layerId = "5DBF9900-19CD-41BF-A30E-BB0302EA3177";
paths = (
{
closed = 1;
nodes = (
"341 686 CURVE SMOOTH",
"138 686 OFFCURVE",
"45 539 OFFCURVE",
"45 330 CURVE SMOOTH",
"45 118 OFFCURVE",
"128 -6 OFFCURVE",
"328 -6 CURVE SMOOTH",
"530 -6 OFFCURVE",
"623 136 OFFCURVE",
"623 344 CURVE SMOOTH",
"623 555 OFFCURVE",
"540 686 OFFCURVE"
);
},
{
closed = 1;
nodes = (
"327 594 CURVE SMOOTH",
"465 594 OFFCURVE",
"495 469 OFFCURVE",
"495 334 CURVE SMOOTH",
"495 192 OFFCURVE",
"458 86 OFFCURVE",
"342 86 CURVE SMOOTH",
"204 86 OFFCURVE",
"174 206 OFFCURVE",
"174 341 CURVE SMOOTH",
"174 484 OFFCURVE",
"211 594 OFFCURVE"
);
},
{
closed = 1;
nodes = (
"296 811 CURVE SMOOTH",
"296 847 OFFCURVE",
"274 874 OFFCURVE",
"235 874 CURVE SMOOTH",
"194 874 OFFCURVE",
"172 846 OFFCURVE",
"172 809 CURVE SMOOTH",
"172 775 OFFCURVE",
"194 747 OFFCURVE",
"232 747 CURVE SMOOTH",
"274 747 OFFCURVE",
"296 775 OFFCURVE"
);
},
{
closed = 1;
nodes = (
"496 811 CURVE SMOOTH",
"496 847 OFFCURVE",
"474 874 OFFCURVE",
"435 874 CURVE SMOOTH",
"393 874 OFFCURVE",
"371 846 OFFCURVE",
"371 809 CURVE SMOOTH",
"371 775 OFFCURVE",
"393 747 OFFCURVE",
"432 747 CURVE SMOOTH",
"474 747 OFFCURVE",
"496 775 OFFCURVE"
);
}
);
width = 668;
},
{
layerId = "EB17B230-7FBB-41DE-BCDE-73D8D15F9114";
paths = (
{
closed = 1;
nodes = (
"353 686 CURVE SMOOTH",
"139 686 OFFCURVE",
"37 539 OFFCURVE",
"37 330 CURVE SMOOTH",
"37 118 OFFCURVE",
"129 -6 OFFCURVE",
"340 -6 CURVE SMOOTH",
"553 -6 OFFCURVE",
"655 136 OFFCURVE",
"655 344 CURVE SMOOTH",
"655 555 OFFCURVE",
"563 686 OFFCURVE"
);
},
{
closed = 1;
nodes = (
"339 569 CURVE SMOOTH",
"447 569 OFFCURVE",
"477 469 OFFCURVE",
"477 334 CURVE SMOOTH",
"477 192 OFFCURVE",
"440 111 OFFCURVE",
"354 111 CURVE SMOOTH",
"245 111 OFFCURVE",
"215 206 OFFCURVE",
"215 341 CURVE SMOOTH",
"215 484 OFFCURVE",
"252 569 OFFCURVE"
);
},
{
closed = 1;
nodes = (
"312 822 CURVE SMOOTH",
"312 862 OFFCURVE",
"286 896 OFFCURVE",
"240 896 CURVE SMOOTH",
"190 896 OFFCURVE",
"165 862 OFFCURVE",
"165 818 CURVE SMOOTH",
"165 778 OFFCURVE",
"190 745 OFFCURVE",
"237 745 CURVE SMOOTH",
"286 745 OFFCURVE",
"312 778 OFFCURVE"
);
},
{
closed = 1;
nodes = (
"527 822 CURVE SMOOTH",
"527 862 OFFCURVE",
"501 896 OFFCURVE",
"455 896 CURVE SMOOTH",
"405 896 OFFCURVE",
"380 862 OFFCURVE",
"380 818 CURVE SMOOTH",
"380 778 OFFCURVE",
"405 745 OFFCURVE",
"452 745 CURVE SMOOTH",
"501 745 OFFCURVE",
"527 778 OFFCURVE"
);
}
);
width = 693;
}
);
leftKerningGroup = O;
rightKerningGroup = O;
unicode = 00D6;
},
{
glyphname = Ograve;
layers = (
{
layerId = "5DBF9900-19CD-41BF-A30E-BB0302EA3177";
paths = (
{
closed = 1;
nodes = (
"341 686 CURVE SMOOTH",
"138 686 OFFCURVE",
"45 539 OFFCURVE",
"45 330 CURVE SMOOTH",
"45 118 OFFCURVE",
"128 -6 OFFCURVE",
"328 -6 CURVE SMOOTH",
"530 -6 OFFCURVE",
"623 136 OFFCURVE",
"623 344 CURVE SMOOTH",
"623 555 OFFCURVE",
"540 686 OFFCURVE"
);
},
{
closed = 1;
nodes = (
"327 594 CURVE SMOOTH",
"465 594 OFFCURVE",
"495 469 OFFCURVE",
"495 334 CURVE SMOOTH",
"495 192 OFFCURVE",
"458 86 OFFCURVE",
"342 86 CURVE SMOOTH",
"204 86 OFFCURVE",
"174 206 OFFCURVE",
"174 341 CURVE SMOOTH",
"174 484 OFFCURVE",
"211 594 OFFCURVE"
);
},
{
closed = 1;
nodes = (
"356 776 LINE",
"129 928 LINE",
"77 846 LINE",
"170 761 OFFCURVE",
"329 718 OFFCURVE",
"328 718 CURVE"
);
}
);
width = 668;
},
{
layerId = "EB17B230-7FBB-41DE-BCDE-73D8D15F9114";
paths = (
{
closed = 1;
nodes = (
"353 686 CURVE SMOOTH",
"139 686 OFFCURVE",
"37 539 OFFCURVE",
"37 330 CURVE SMOOTH",
"37 118 OFFCURVE",
"129 -6 OFFCURVE",
"340 -6 CURVE SMOOTH",
"553 -6 OFFCURVE",
"655 136 OFFCURVE",
"655 344 CURVE SMOOTH",
"655 555 OFFCURVE",
"563 686 OFFCURVE"
);
},
{
closed = 1;
nodes = (
"339 569 CURVE SMOOTH",
"447 569 OFFCURVE",
"477 469 OFFCURVE",
"477 334 CURVE SMOOTH",
"477 192 OFFCURVE",
"440 111 OFFCURVE",
"354 111 CURVE SMOOTH",
"245 111 OFFCURVE",
"215 206 OFFCURVE",
"215 341 CURVE SMOOTH",
"215 484 OFFCURVE",
"252 569 OFFCURVE"
);
},
{
closed = 1;
nodes = (
"415 799 LINE",
"208 972 LINE",
"108 871 LINE",
"196 774 OFFCURVE",
"328 732 OFFCURVE",
"353 725 CURVE"
);
}
);
width = 693;
}
);
leftKerningGroup = O;
rightKerningGroup = O;
unicode = 00D2;
},
{
glyphname = Oslash;
layers = (
{
layerId = "5DBF9900-19CD-41BF-A30E-BB0302EA3177";
paths = (
{
closed = 1;
nodes = (
"341 686 CURVE SMOOTH",
"138 686 OFFCURVE",
"45 539 OFFCURVE",
"45 330 CURVE SMOOTH",
"45 194 OFFCURVE",
"79 94 OFFCURVE",
"156 40 CURVE",
"131 -23 LINE",
"228 -63 LINE",
"253 0 LINE",
"276 -4 OFFCURVE",
"301 -6 OFFCURVE",
"328 -6 CURVE SMOOTH",
"530 -6 OFFCURVE",
"623 136 OFFCURVE",
"623 344 CURVE SMOOTH",
"623 479 OFFCURVE",
"588 582 OFFCURVE",
"511 638 CURVE",
"537 702 LINE",
"439 742 LINE",
"414 679 LINE",
"391 684 OFFCURVE",
"367 686 OFFCURVE"
);
},
{
closed = 1;
nodes = (
"495 334 CURVE SMOOTH",
"495 192 OFFCURVE",
"458 86 OFFCURVE",
"342 86 CURVE SMOOTH",
"323 86 OFFCURVE",
"305 88 OFFCURVE",
"290 92 CURVE",
"462 516 LINE",
"487 468 OFFCURVE",
"495 402 OFFCURVE"
);
},
{
closed = 1;
nodes = (
"327 594 CURVE SMOOTH",
"345 594 OFFCURVE",
"362 591 OFFCURVE",
"377 587 CURVE",
"206 163 LINE",
"181 210 OFFCURVE",
"174 273 OFFCURVE",
"174 341 CURVE SMOOTH",
"174 484 OFFCURVE",
"211 594 OFFCURVE"
);
}
);
width = 668;
},
{
layerId = "EB17B230-7FBB-41DE-BCDE-73D8D15F9114";
paths = (
{
closed = 1;
nodes = (
"353 686 CURVE SMOOTH",
"139 686 OFFCURVE",
"37 539 OFFCURVE",
"37 330 CURVE SMOOTH",
"37 205 OFFCURVE",
"68 111 OFFCURVE",
"137 55 CURVE",
"107 -13 LINE",
"246 -70 LINE",
"276 -2 LINE",
"296 -5 OFFCURVE",
"317 -6 OFFCURVE",
"340 -6 CURVE SMOOTH",
"553 -6 OFFCURVE",
"655 136 OFFCURVE",
"655 344 CURVE SMOOTH",
"655 466 OFFCURVE",
"624 562 OFFCURVE",
"557 621 CURVE",
"588 690 LINE",
"448 746 LINE",
"419 681 LINE",
"398 684 OFFCURVE",
"376 686 OFFCURVE"
);
},
{
closed = 1;
nodes = (
"339 569 CURVE SMOOTH",
"349 569 OFFCURVE",
"358 568 OFFCURVE",
"367 566 CURVE",
"222 243 LINE",
"217 272 OFFCURVE",
"215 305 OFFCURVE",
"215 341 CURVE SMOOTH",
"215 484 OFFCURVE",
"252 569 OFFCURVE"
);
},
{
closed = 1;
nodes = (
"477 334 CURVE SMOOTH",
"477 192 OFFCURVE",
"440 111 OFFCURVE",
"354 111 CURVE SMOOTH",
"345 111 OFFCURVE",
"336 111 OFFCURVE",
"328 113 CURVE",
"470 428 LINE",
"475 400 OFFCURVE",
"477 368 OFFCURVE"
);
}
);
width = 693;
}
);
leftKerningGroup = O;
rightKerningGroup = O;
unicode = 00D8;
},
{
glyphname = Otilde;
layers = (
{
layerId = "5DBF9900-19CD-41BF-A30E-BB0302EA3177";
paths = (
{
closed = 1;
nodes = (
"341 686 CURVE SMOOTH",
"138 686 OFFCURVE",
"45 539 OFFCURVE",
"45 330 CURVE SMOOTH",
"45 118 OFFCURVE",
"128 -6 OFFCURVE",
"328 -6 CURVE SMOOTH",
"530 -6 OFFCURVE",
"623 136 OFFCURVE",
"623 344 CURVE SMOOTH",
"623 555 OFFCURVE",
"540 686 OFFCURVE"
);
},
{
closed = 1;
nodes = (
"327 594 CURVE SMOOTH",
"465 594 OFFCURVE",
"495 469 OFFCURVE",
"495 334 CURVE SMOOTH",
"495 192 OFFCURVE",
"458 86 OFFCURVE",
"342 86 CURVE SMOOTH",
"204 86 OFFCURVE",
"174 206 OFFCURVE",
"174 341 CURVE SMOOTH",
"174 484 OFFCURVE",
"211 594 OFFCURVE"
);
},
{
closed = 1;
nodes = (
"169 760 LINE",
"169 760 OFFCURVE",
"203 774 OFFCURVE",
"248 774 CURVE SMOOTH",
"297 774 OFFCURVE",
"352 754 OFFCURVE",
"401 754 CURVE SMOOTH",
"446 754 OFFCURVE",
"481 777 OFFCURVE",
"481 777 CURVE",
"481 851 LINE",
"481 851 OFFCURVE",
"446 837 OFFCURVE",
"401 837 CURVE SMOOTH",
"352 837 OFFCURVE",
"297 857 OFFCURVE",
"248 857 CURVE SMOOTH",
"203 857 OFFCURVE",
"169 834 OFFCURVE",
"169 834 CURVE"
);
}
);
width = 668;
},
{
layerId = "EB17B230-7FBB-41DE-BCDE-73D8D15F9114";
paths = (
{
closed = 1;
nodes = (
"353 686 CURVE SMOOTH",
"139 686 OFFCURVE",
"37 539 OFFCURVE",
"37 330 CURVE SMOOTH",
"37 118 OFFCURVE",
"129 -6 OFFCURVE",
"340 -6 CURVE SMOOTH",
"553 -6 OFFCURVE",
"655 136 OFFCURVE",
"655 344 CURVE SMOOTH",
"655 555 OFFCURVE",
"563 686 OFFCURVE"
);
},
{
closed = 1;
nodes = (
"339 569 CURVE SMOOTH",
"447 569 OFFCURVE",
"477 469 OFFCURVE",
"477 334 CURVE SMOOTH",
"477 192 OFFCURVE",
"440 111 OFFCURVE",
"354 111 CURVE SMOOTH",
"245 111 OFFCURVE",
"215 206 OFFCURVE",
"215 341 CURVE SMOOTH",
"215 484 OFFCURVE",
"252 569 OFFCURVE"
);
},
{
closed = 1;
nodes = (
"184 757 LINE",
"184 757 OFFCURVE",
"223 771 OFFCURVE",
"272 771 CURVE SMOOTH",
"324 771 OFFCURVE",
"379 751 OFFCURVE",
"432 751 CURVE SMOOTH",
"481 751 OFFCURVE",
"512 774 OFFCURVE",
"512 774 CURVE",
"512 874 LINE",
"512 874 OFFCURVE",
"481 860 OFFCURVE",
"432 860 CURVE SMOOTH",
"379 860 OFFCURVE",
"324 880 OFFCURVE",
"272 880 CURVE SMOOTH",
"223 880 OFFCURVE",
"184 857 OFFCURVE",
"184 857 CURVE"
);
}
);
width = 693;
}
);
leftKerningGroup = O;
rightKerningGroup = O;
unicode = 00D5;
},
{
glyphname = OE;
layers = (
{
layerId = "5DBF9900-19CD-41BF-A30E-BB0302EA3177";
paths = (
{
closed = 1;
nodes = (
"411 0 CURVE",
"829 0 LINE",
"829 90 LINE",
"530 90 LINE",
"530 307 LINE",
"749 307 LINE",
"764 398 LINE",
"530 398 LINE",
"530 587 LINE",
"814 587 LINE",
"814 677 LINE",
"423 677 LINE",
"404 682 OFFCURVE",
"377 686 OFFCURVE",
"341 686 CURVE SMOOTH",
"138 686 OFFCURVE",
"45 539 OFFCURVE",
"45 330 CURVE SMOOTH",
"45 118 OFFCURVE",
"128 -6 OFFCURVE",
"328 -6 CURVE SMOOTH",
"352 -6 OFFCURVE",
"382 -3 OFFCURVE"
);
},
{
closed = 1;
nodes = (
"342 86 CURVE SMOOTH",
"204 86 OFFCURVE",
"174 206 OFFCURVE",
"174 341 CURVE SMOOTH",
"174 484 OFFCURVE",
"211 594 OFFCURVE",
"327 594 CURVE SMOOTH",
"366 594 OFFCURVE",
"394 587 OFFCURVE",
"412 581 CURVE",
"412 92 LINE",
"387 89 OFFCURVE",
"361 86 OFFCURVE"
);
}
);
width = 854;
},
{
layerId = "EB17B230-7FBB-41DE-BCDE-73D8D15F9114";
paths = (
{
closed = 1;
nodes = (
"443 0 CURVE",
"866 0 LINE",
"866 121 LINE",
"586 121 LINE",
"586 292 LINE",
"788 292 LINE",
"808 411 LINE",
"586 411 LINE",
"586 556 LINE",
"852 556 LINE",
"852 677 LINE",
"428 677 LINE",
"404 683 OFFCURVE",
"375 686 OFFCURVE",
"339 686 CURVE SMOOTH",
"134 686 OFFCURVE",
"37 537 OFFCURVE",
"37 330 CURVE SMOOTH",
"37 118 OFFCURVE",
"126 -6 OFFCURVE",
"336 -6 CURVE SMOOTH",
"374 -6 OFFCURVE",
"410 -5 OFFCURVE"
);
},
{
closed = 1;
nodes = (
"354 111 CURVE SMOOTH",
"245 111 OFFCURVE",
"215 206 OFFCURVE",
"215 341 CURVE SMOOTH",
"215 484 OFFCURVE",
"252 569 OFFCURVE",
"339 569 CURVE SMOOTH",
"367 569 OFFCURVE",
"394 564 OFFCURVE",
"422 552 CURVE",
"422 115 LINE",
"398 112 OFFCURVE",
"375 111 OFFCURVE"
);
}
);
width = 883;
}
);
leftKerningGroup = O;
rightKerningGroup = E;
unicode = 0152;
},
{
glyphname = P;
layers = (
{
layerId = "5DBF9900-19CD-41BF-A30E-BB0302EA3177";
paths = (
{
closed = 1;
nodes = (
"70 0 LINE",
"189 0 LINE",
"189 265 LINE",
"259 265 LINE SMOOTH",
"424 265 OFFCURVE",
"509 352 OFFCURVE",
"509 475 CURVE SMOOTH",
"509 601 OFFCURVE",
"433 679 OFFCURVE",
"271 679 CURVE SMOOTH",
"218 679 OFFCURVE",
"90 677 OFFCURVE",
"70 677 CURVE"
);
},
{
closed = 1;
nodes = (
"189 593 LINE",
"205 594 OFFCURVE",
"227 594 OFFCURVE",
"256 594 CURVE SMOOTH",
"354 594 OFFCURVE",
"383 533 OFFCURVE",
"383 471 CURVE SMOOTH",
"383 404 OFFCURVE",
"350 354 OFFCURVE",
"266 354 CURVE SMOOTH",
"189 354 LINE"
);
}
);
width = 535;
},
{
layerId = "EB17B230-7FBB-41DE-BCDE-73D8D15F9114";
paths = (
{
closed = 1;
nodes = (
"62 0 LINE",
"227 0 LINE",
"227 259 LINE",
"257 259 LINE SMOOTH",
"423 259 OFFCURVE",
"526 331 OFFCURVE",
"526 473 CURVE SMOOTH",
"526 602 OFFCURVE",
"440 679 OFFCURVE",
"270 679 CURVE SMOOTH",
"218 679 OFFCURVE",
"82 677 OFFCURVE",
"62 677 CURVE"
);
},
{
closed = 1;
nodes = (
"227 568 LINE",
"235 569 OFFCURVE",
"247 570 OFFCURVE",
"264 570 CURVE SMOOTH",
"327 569 OFFCURVE",
"353 521 OFFCURVE",
"353 465 CURVE SMOOTH",
"353 399 OFFCURVE",
"314 368 OFFCURVE",
"269 368 CURVE SMOOTH",
"227 368 LINE"
);
}
);
width = 544;
}
);
leftKerningGroup = I;
unicode = 0050;
},
{
glyphname = Thorn;
layers = (
{
layerId = "5DBF9900-19CD-41BF-A30E-BB0302EA3177";
paths = (
{
closed = 1;
nodes = (
"70 0 LINE",
"189 0 LINE",
"189 142 LINE",
"259 142 LINE SMOOTH",
"427 142 OFFCURVE",
"511 225 OFFCURVE",
"511 352 CURVE SMOOTH",
"511 481 OFFCURVE",
"436 555 OFFCURVE",
"271 555 CURVE SMOOTH",
"189 555 LINE",
"189 677 LINE",
"70 677 LINE"
);
},
{
closed = 1;
nodes = (
"189 470 LINE",
"205 471 OFFCURVE",
"227 471 OFFCURVE",
"256 471 CURVE SMOOTH",
"354 471 OFFCURVE",
"383 411 OFFCURVE",
"383 348 CURVE SMOOTH",
"383 281 OFFCURVE",
"350 230 OFFCURVE",
"266 230 CURVE SMOOTH",
"189 230 LINE"
);
}
);
width = 537;
},
{
layerId = "EB17B230-7FBB-41DE-BCDE-73D8D15F9114";
paths = (
{
closed = 1;
nodes = (
"62 0 LINE",
"227 0 LINE",
"227 139 LINE",
"257 139 LINE SMOOTH",
"424 139 OFFCURVE",
"527 211 OFFCURVE",
"527 353 CURVE SMOOTH",
"527 483 OFFCURVE",
"440 559 OFFCURVE",
"270 559 CURVE SMOOTH",
"227 559 LINE",
"227 677 LINE",
"62 677 LINE"
);
},
{
closed = 1;
nodes = (
"227 443 LINE",
"235 444 OFFCURVE",
"247 445 OFFCURVE",
"264 445 CURVE SMOOTH",
"327 444 OFFCURVE",
"349 392 OFFCURVE",
"349 345 CURVE SMOOTH",
"349 287 OFFCURVE",
"314 253 OFFCURVE",
"269 253 CURVE SMOOTH",
"227 253 LINE"
);
}
);
width = 544;
}
);
leftKerningGroup = I;
unicode = 00DE;
},
{
glyphname = Q;
layers = (
{
layerId = "5DBF9900-19CD-41BF-A30E-BB0302EA3177";
paths = (
{
closed = 1;
nodes = (
"615 -64 LINE",
"547 -97 OFFCURVE",
"492 -115 OFFCURVE",
"444 -115 CURVE SMOOTH",
"409 -115 OFFCURVE",
"376 -106 OFFCURVE",
"345 -83 CURVE",
"495 -56 OFFCURVE",
"626 95 OFFCURVE",
"626 343 CURVE SMOOTH",
"626 554 OFFCURVE",
"544 686 OFFCURVE",
"344 686 CURVE SMOOTH",
"141 686 OFFCURVE",
"43 537 OFFCURVE",
"43 335 CURVE SMOOTH",
"43 205 OFFCURVE",
"104 57 OFFCURVE",
"265 47 CURVE",
"278 132 LINE",
"191 152 OFFCURVE",
"168 222 OFFCURVE",
"168 344 CURVE SMOOTH",
"168 477 OFFCURVE",
"214 594 OFFCURVE",
"330 594 CURVE SMOOTH",
"468 594 OFFCURVE",
"498 467 OFFCURVE",
"498 332 CURVE SMOOTH",
"498 111 OFFCURVE",
"390 -14 OFFCURVE",
"257 -14 CURVE SMOOTH",
"242 -14 OFFCURVE",
"227 -12 OFFCURVE",
"211 -9 CURVE",
"189 -75 LINE",
"272 -168 OFFCURVE",
"374 -214 OFFCURVE",
"460 -214 CURVE SMOOTH",
"534 -214 OFFCURVE",
"601 -185 OFFCURVE",
"656 -148 CURVE"
);
}
);
width = 672;
},
{
layerId = "EB17B230-7FBB-41DE-BCDE-73D8D15F9114";
paths = (
{
closed = 1;
nodes = (
"642 -37 LINE",
"585 -65 OFFCURVE",
"534 -91 OFFCURVE",
"475 -91 CURVE SMOOTH",
"454 -91 OFFCURVE",
"434 -87 OFFCURVE",
"414 -77 CURVE",
"555 -30 OFFCURVE",
"660 115 OFFCURVE",
"660 343 CURVE SMOOTH",
"660 554 OFFCURVE",
"554 686 OFFCURVE",
"354 686 CURVE SMOOTH",
"151 686 OFFCURVE",
"35 537 OFFCURVE",
"35 335 CURVE SMOOTH",
"35 188 OFFCURVE",
"114 57 OFFCURVE",
"281 47 CURVE",
"297 155 LINE",
"239 176 OFFCURVE",
"213 218 OFFCURVE",
"213 344 CURVE SMOOTH",
"213 482 OFFCURVE",
"254 569 OFFCURVE",
"340 569 CURVE SMOOTH",
"449 569 OFFCURVE",
"481 468 OFFCURVE",
"481 332 CURVE SMOOTH",
"481 119 OFFCURVE",
"399 -6 OFFCURVE",
"269 -6 CURVE SMOOTH",
"255 -6 OFFCURVE",
"235 -5 OFFCURVE",
"221 -2 CURVE",
"192 -91 LINE",
"290 -178 OFFCURVE",
"404 -214 OFFCURVE",
"488 -214 CURVE SMOOTH",
"570 -214 OFFCURVE",
"633 -189 OFFCURVE",
"696 -147 CURVE"
);
}
);
width = 704;
}
);
unicode = 0051;
},
{
glyphname = R;
layers = (
{
layerId = "5DBF9900-19CD-41BF-A30E-BB0302EA3177";
paths = (
{
closed = 1;
nodes = (
"70 0 LINE",
"189 0 LINE",
"189 293 LINE",
"218 293 LINE SMOOTH",
"318 293 OFFCURVE",
"352 212 OFFCURVE",
"443 0 CURVE",
"572 0 LINE",
"496 177 OFFCURVE",
"460 284 OFFCURVE",
"385 326 CURVE",
"473 353 OFFCURVE",
"509 417 OFFCURVE",
"509 494 CURVE SMOOTH",
"509 611 OFFCURVE",
"436 679 OFFCURVE",
"271 679 CURVE SMOOTH",
"218 679 OFFCURVE",
"90 677 OFFCURVE",
"70 677 CURVE"
);
},
{
closed = 1;
nodes = (
"189 594 LINE",
"256 594 LINE SMOOTH",
"354 594 OFFCURVE",
"383 538 OFFCURVE",
"383 479 CURVE SMOOTH",
"383 414 OFFCURVE",
"340 380 OFFCURVE",
"266 380 CURVE SMOOTH",
"189 380 LINE"
);
}
);
width = 574;
},
{
layerId = "EB17B230-7FBB-41DE-BCDE-73D8D15F9114";
paths = (
{
closed = 1;
nodes = (
"62 0 LINE",
"227 0 LINE",
"227 287 LINE",
"244 287 LINE SMOOTH",
"313 287 OFFCURVE",
"335 187 OFFCURVE",
"421 0 CURVE",
"598 0 LINE",
"528 164 OFFCURVE",
"490 270 OFFCURVE",
"411 315 CURVE",
"481 346 OFFCURVE",
"526 400 OFFCURVE",
"526 485 CURVE SMOOTH",
"526 612 OFFCURVE",
"440 679 OFFCURVE",
"270 679 CURVE SMOOTH",
"226 679 OFFCURVE",
"85 677 OFFCURVE",
"62 677 CURVE"
);
},
{
closed = 1;
nodes = (
"227 571 LINE",
"264 571 LINE SMOOTH",
"332 571 OFFCURVE",
"353 529 OFFCURVE",
"353 479 CURVE SMOOTH",
"353 418 OFFCURVE",
"316 390 OFFCURVE",
"269 390 CURVE SMOOTH",
"227 390 LINE"
);
}
);
width = 599;
}
);
leftKerningGroup = I;
unicode = 0052;
},
{
glyphname = S;
layers = (
{
layerId = "5DBF9900-19CD-41BF-A30E-BB0302EA3177";
paths = (
{
closed = 1;
nodes = (
"265 686 CURVE SMOOTH",
"358 686 OFFCURVE",
"442 646 OFFCURVE",
"461 633 CURVE",
"412 547 LINE",
"413 547 OFFCURVE",
"333 593 OFFCURVE",
"271 593 CURVE SMOOTH",
"223 593 OFFCURVE",
"182 571 OFFCURVE",
"182 523 CURVE SMOOTH",
"182 463 OFFCURVE",
"220 429 OFFCURVE",
"302 397 CURVE SMOOTH",
"408 355 OFFCURVE",
"472 309 OFFCURVE",
"472 198 CURVE SMOOTH",
"472 96 OFFCURVE",
"393 -6 OFFCURVE",
"247 -6 CURVE SMOOTH",
"143 -6 OFFCURVE",
"57 43 OFFCURVE",
"30 59 CURVE",
"72 151 LINE",
"71 151 OFFCURVE",
"182 87 OFFCURVE",
"239 87 CURVE SMOOTH",
"309 87 OFFCURVE",
"344 124 OFFCURVE",
"344 186 CURVE SMOOTH",
"344 246 OFFCURVE",
"306 268 OFFCURVE",
"244 293 CURVE SMOOTH",
"124 343 OFFCURVE",
"52 390 OFFCURVE",
"52 506 CURVE SMOOTH",
"52 604 OFFCURVE",
"141 686 OFFCURVE"
);
}
);
width = 507;
},
{
layerId = "EB17B230-7FBB-41DE-BCDE-73D8D15F9114";
paths = (
{
closed = 1;
nodes = (
"267 686 CURVE SMOOTH",
"363 686 OFFCURVE",
"447 652 OFFCURVE",
"492 621 CURVE",
"434 511 LINE",
"403 528 OFFCURVE",
"340 566 OFFCURVE",
"289 566 CURVE SMOOTH",
"243 566 OFFCURVE",
"220 544 OFFCURVE",
"220 515 CURVE",
"223 471 OFFCURVE",
"254 446 OFFCURVE",
"339 410 CURVE SMOOTH",
"446 365 OFFCURVE",
"498 317 OFFCURVE",
"498 215 CURVE SMOOTH",
"498 92 OFFCURVE",
"406 -6 OFFCURVE",
"260 -6 CURVE SMOOTH",
"156 -6 OFFCURVE",
"70 37 OFFCURVE",
"22 66 CURVE",
"76 184 LINE",
"95 171 OFFCURVE",
"186 115 OFFCURVE",
"239 115 CURVE SMOOTH",
"295 115 OFFCURVE",
"320 142 OFFCURVE",
"320 190 CURVE SMOOTH",
"320 238 OFFCURVE",
"285 257 OFFCURVE",
"226 281 CURVE SMOOTH",
"110 329 OFFCURVE",
"42 384 OFFCURVE",
"42 492 CURVE SMOOTH",
"42 611 OFFCURVE",
"148 686 OFFCURVE"
);
}
);
width = 526;
}
);
unicode = 0053;
},
{
glyphname = T;
layers = (
{
layerId = "5DBF9900-19CD-41BF-A30E-BB0302EA3177";
paths = (
{
closed = 1;
nodes = (
"10 677 LINE",
"10 587 LINE",
"181 587 LINE",
"181 0 LINE",
"299 0 LINE",
"299 587 LINE",
"467 587 LINE",
"482 677 LINE"
);
}
);
width = 493;
},
{
layerId = "EB17B230-7FBB-41DE-BCDE-73D8D15F9114";
paths = (
{
closed = 1;
nodes = (
"2 677 LINE",
"2 556 LINE",
"163 556 LINE",
"163 0 LINE",
"328 0 LINE",
"328 556 LINE",
"484 556 LINE",
"505 677 LINE"
);
}
);
width = 507;
}
);
unicode = 0054;
},
{
glyphname = U;
layers = (
{
anchors = (
{
name = topUC;
position = "{319, 677}";
}
);
layerId = "5DBF9900-19CD-41BF-A30E-BB0302EA3177";
paths = (
{
closed = 1;
nodes = (
"60 677 LINE",
"60 249 LINE SMOOTH",
"60 111 OFFCURVE",
"122 -6 OFFCURVE",
"310 -6 CURVE SMOOTH",
"508 -6 OFFCURVE",
"575 111 OFFCURVE",
"575 249 CURVE SMOOTH",
"575 677 LINE",
"456 677 LINE",
"456 258 LINE SMOOTH",
"456 150 OFFCURVE",
"413 86 OFFCURVE",
"323 86 CURVE SMOOTH",
"234 86 OFFCURVE",
"178 134 OFFCURVE",
"178 258 CURVE SMOOTH",
"178 677 LINE"
);
}
);
width = 635;
},
{
anchors = (
{
name = topUC;
position = "{319, 677}";
}
);
layerId = "EB17B230-7FBB-41DE-BCDE-73D8D15F9114";
paths = (
{
closed = 1;
nodes = (
"52 677 LINE",
"52 265 LINE SMOOTH",
"52 123 OFFCURVE",
"123 -6 OFFCURVE",
"327 -6 CURVE SMOOTH",
"540 -6 OFFCURVE",
"616 122 OFFCURVE",
"616 265 CURVE SMOOTH",
"616 677 LINE",
"451 677 LINE",
"451 274 LINE SMOOTH",
"451 173 OFFCURVE",
"411 121 OFFCURVE",
"340 121 CURVE SMOOTH",
"270 121 OFFCURVE",
"216 158 OFFCURVE",
"216 274 CURVE SMOOTH",
"216 677 LINE"
);
}
);
width = 668;
}
);
leftKerningGroup = U;
rightKerningGroup = U;
unicode = 0055;
},
{
glyphname = Uacute;
layers = (
{
layerId = "5DBF9900-19CD-41BF-A30E-BB0302EA3177";
paths = (
{
closed = 1;
nodes = (
"60 677 LINE",
"60 249 LINE SMOOTH",
"60 111 OFFCURVE",
"122 -6 OFFCURVE",
"310 -6 CURVE SMOOTH",
"508 -6 OFFCURVE",
"575 111 OFFCURVE",
"575 249 CURVE SMOOTH",
"575 677 LINE",
"456 677 LINE",
"456 258 LINE SMOOTH",
"456 150 OFFCURVE",
"413 86 OFFCURVE",
"323 86 CURVE SMOOTH",
"234 86 OFFCURVE",
"178 134 OFFCURVE",
"178 258 CURVE SMOOTH",
"178 677 LINE"
);
},
{
closed = 1;
nodes = (
"318 718 LINE",
"317 718 OFFCURVE",
"476 761 OFFCURVE",
"569 846 CURVE",
"517 928 LINE",
"290 776 LINE"
);
}
);
width = 635;
},
{
layerId = "EB17B230-7FBB-41DE-BCDE-73D8D15F9114";
paths = (
{
closed = 1;
nodes = (
"52 677 LINE",
"52 265 LINE SMOOTH",
"52 123 OFFCURVE",
"123 -6 OFFCURVE",
"327 -6 CURVE SMOOTH",
"540 -6 OFFCURVE",
"616 122 OFFCURVE",
"616 265 CURVE SMOOTH",
"616 677 LINE",
"451 677 LINE",
"451 274 LINE SMOOTH",
"451 173 OFFCURVE",
"411 121 OFFCURVE",
"340 121 CURVE SMOOTH",
"270 121 OFFCURVE",
"216 158 OFFCURVE",
"216 274 CURVE SMOOTH",
"216 677 LINE"
);
},
{
closed = 1;
nodes = (
"330 725 LINE",
"354 732 OFFCURVE",
"486 774 OFFCURVE",
"575 871 CURVE",
"475 972 LINE",
"268 799 LINE"
);
}
);
width = 668;
}
);
leftKerningGroup = U;
rightKerningGroup = U;
unicode = 00DA;
},
{
glyphname = Ucircumflex;
layers = (
{
layerId = "5DBF9900-19CD-41BF-A30E-BB0302EA3177";
paths = (
{
closed = 1;
nodes = (
"60 677 LINE",
"60 249 LINE SMOOTH",
"60 111 OFFCURVE",
"122 -6 OFFCURVE",
"310 -6 CURVE SMOOTH",
"508 -6 OFFCURVE",
"575 111 OFFCURVE",
"575 249 CURVE SMOOTH",
"575 677 LINE",
"456 677 LINE",
"456 258 LINE SMOOTH",
"456 150 OFFCURVE",
"413 86 OFFCURVE",
"323 86 CURVE SMOOTH",
"234 86 OFFCURVE",
"178 134 OFFCURVE",
"178 258 CURVE SMOOTH",
"178 677 LINE"
);
},
{
closed = 1;
nodes = (
"164 718 LINE",
"163 717 OFFCURVE",
"238 750 OFFCURVE",
"318 808 CURVE",
"397 750 OFFCURVE",
"473 717 OFFCURVE",
"472 718 CURVE",
"516 771 LINE",
"318 928 LINE",
"120 771 LINE"
);
}
);
width = 635;
},
{
layerId = "EB17B230-7FBB-41DE-BCDE-73D8D15F9114";
paths = (
{
closed = 1;
nodes = (
"52 677 LINE",
"52 265 LINE SMOOTH",
"52 123 OFFCURVE",
"123 -6 OFFCURVE",
"327 -6 CURVE SMOOTH",
"540 -6 OFFCURVE",
"616 122 OFFCURVE",
"616 265 CURVE SMOOTH",
"616 677 LINE",
"451 677 LINE",
"451 274 LINE SMOOTH",
"451 173 OFFCURVE",
"411 121 OFFCURVE",
"340 121 CURVE SMOOTH",
"270 121 OFFCURVE",
"216 158 OFFCURVE",
"216 274 CURVE SMOOTH",
"216 677 LINE"
);
},
{
closed = 1;
nodes = (
"190 725 LINE",
"218 737 OFFCURVE",
"273 760 OFFCURVE",
"334 803 CURVE",
"395 760 OFFCURVE",
"451 736 OFFCURVE",
"477 725 CURVE",
"539 800 LINE",
"334 976 LINE",
"129 800 LINE"
);
}
);
width = 668;
}
);
leftKerningGroup = U;
rightKerningGroup = U;
unicode = 00DB;
},
{
glyphname = Udieresis;
layers = (
{
layerId = "5DBF9900-19CD-41BF-A30E-BB0302EA3177";
paths = (
{
closed = 1;
nodes = (
"60 677 LINE",
"60 249 LINE SMOOTH",
"60 111 OFFCURVE",
"122 -6 OFFCURVE",
"310 -6 CURVE SMOOTH",
"508 -6 OFFCURVE",
"575 111 OFFCURVE",
"575 249 CURVE SMOOTH",
"575 677 LINE",
"456 677 LINE",
"456 258 LINE SMOOTH",
"456 150 OFFCURVE",
"413 86 OFFCURVE",
"323 86 CURVE SMOOTH",
"234 86 OFFCURVE",
"178 134 OFFCURVE",
"178 258 CURVE SMOOTH",
"178 677 LINE"
);
},
{
closed = 1;
nodes = (
"279 811 CURVE SMOOTH",
"279 847 OFFCURVE",
"257 874 OFFCURVE",
"218 874 CURVE SMOOTH",
"177 874 OFFCURVE",
"155 846 OFFCURVE",
"155 809 CURVE SMOOTH",
"155 775 OFFCURVE",
"177 747 OFFCURVE",
"215 747 CURVE SMOOTH",
"257 747 OFFCURVE",
"279 775 OFFCURVE"
);
},
{
closed = 1;
nodes = (
"479 811 CURVE SMOOTH",
"479 847 OFFCURVE",
"457 874 OFFCURVE",
"418 874 CURVE SMOOTH",
"376 874 OFFCURVE",
"354 846 OFFCURVE",
"354 809 CURVE SMOOTH",
"354 775 OFFCURVE",
"376 747 OFFCURVE",
"415 747 CURVE SMOOTH",
"457 747 OFFCURVE",
"479 775 OFFCURVE"
);
}
);
width = 635;
},
{
layerId = "EB17B230-7FBB-41DE-BCDE-73D8D15F9114";
paths = (
{
closed = 1;
nodes = (
"52 677 LINE",
"52 265 LINE SMOOTH",
"52 123 OFFCURVE",
"123 -6 OFFCURVE",
"327 -6 CURVE SMOOTH",
"540 -6 OFFCURVE",
"616 122 OFFCURVE",
"616 265 CURVE SMOOTH",
"616 677 LINE",
"451 677 LINE",
"451 274 LINE SMOOTH",
"451 173 OFFCURVE",
"411 121 OFFCURVE",
"340 121 CURVE SMOOTH",
"270 121 OFFCURVE",
"216 158 OFFCURVE",
"216 274 CURVE SMOOTH",
"216 677 LINE"
);
},
{
closed = 1;
nodes = (
"300 822 CURVE SMOOTH",
"300 862 OFFCURVE",
"274 896 OFFCURVE",
"228 896 CURVE SMOOTH",
"178 896 OFFCURVE",
"153 862 OFFCURVE",
"153 818 CURVE SMOOTH",
"153 778 OFFCURVE",
"178 745 OFFCURVE",
"225 745 CURVE SMOOTH",
"274 745 OFFCURVE",
"300 778 OFFCURVE"
);
},
{
closed = 1;
nodes = (
"515 822 CURVE SMOOTH",
"515 862 OFFCURVE",
"489 896 OFFCURVE",
"443 896 CURVE SMOOTH",
"393 896 OFFCURVE",
"368 862 OFFCURVE",
"368 818 CURVE SMOOTH",
"368 778 OFFCURVE",
"393 745 OFFCURVE",
"440 745 CURVE SMOOTH",
"489 745 OFFCURVE",
"515 778 OFFCURVE"
);
}
);
width = 668;
}
);
leftKerningGroup = U;
rightKerningGroup = U;
unicode = 00DC;
},
{
glyphname = Ugrave;
layers = (
{
layerId = "5DBF9900-19CD-41BF-A30E-BB0302EA3177";
paths = (
{
closed = 1;
nodes = (
"60 677 LINE",
"60 249 LINE SMOOTH",
"60 111 OFFCURVE",
"122 -6 OFFCURVE",
"310 -6 CURVE SMOOTH",
"508 -6 OFFCURVE",
"575 111 OFFCURVE",
"575 249 CURVE SMOOTH",
"575 677 LINE",
"456 677 LINE",
"456 258 LINE SMOOTH",
"456 150 OFFCURVE",
"413 86 OFFCURVE",
"323 86 CURVE SMOOTH",
"234 86 OFFCURVE",
"178 134 OFFCURVE",
"178 258 CURVE SMOOTH",
"178 677 LINE"
);
},
{
closed = 1;
nodes = (
"342 776 LINE",
"115 928 LINE",
"63 846 LINE",
"156 761 OFFCURVE",
"315 718 OFFCURVE",
"314 718 CURVE"
);
}
);
width = 635;
},
{
layerId = "EB17B230-7FBB-41DE-BCDE-73D8D15F9114";
paths = (
{
closed = 1;
nodes = (
"52 677 LINE",
"52 265 LINE SMOOTH",
"52 123 OFFCURVE",
"123 -6 OFFCURVE",
"327 -6 CURVE SMOOTH",
"540 -6 OFFCURVE",
"616 122 OFFCURVE",
"616 265 CURVE SMOOTH",
"616 677 LINE",
"451 677 LINE",
"451 274 LINE SMOOTH",
"451 173 OFFCURVE",
"411 121 OFFCURVE",
"340 121 CURVE SMOOTH",
"270 121 OFFCURVE",
"216 158 OFFCURVE",
"216 274 CURVE SMOOTH",
"216 677 LINE"
);
},
{
closed = 1;
nodes = (
"389 799 LINE",
"182 972 LINE",
"82 871 LINE",
"170 774 OFFCURVE",
"302 732 OFFCURVE",
"327 725 CURVE"
);
}
);
width = 668;
}
);
leftKerningGroup = U;
rightKerningGroup = U;
unicode = 00D9;
},
{
glyphname = V;
layers = (
{
layerId = "5DBF9900-19CD-41BF-A30E-BB0302EA3177";
paths = (
{
closed = 1;
nodes = (
"591 677 LINE",
"470 677 LINE",
"383 433 LINE SMOOTH",
"338 306 OFFCURVE",
"308 210 OFFCURVE",
"293 160 CURVE",
"277 211 OFFCURVE",
"246 310 OFFCURVE",
"203 435 CURVE SMOOTH",
"119 677 LINE",
"-8 677 LINE",
"245 0 LINE",
"338 0 LINE"
);
}
);
width = 582;
},
{
layerId = "EB17B230-7FBB-41DE-BCDE-73D8D15F9114";
paths = (
{
closed = 1;
nodes = (
"644 677 LINE",
"476 677 LINE",
"384 406 LINE SMOOTH",
"355 323 OFFCURVE",
"335 252 OFFCURVE",
"322 201 CURVE",
"309 252 OFFCURVE",
"289 326 OFFCURVE",
"262 407 CURVE SMOOTH",
"172 677 LINE",
"-2 677 LINE",
"251 0 LINE",
"391 0 LINE"
);
}
);
width = 642;
}
);
unicode = 0056;
},
{
glyphname = W;
layers = (
{
layerId = "5DBF9900-19CD-41BF-A30E-BB0302EA3177";
paths = (
{
closed = 1;
nodes = (
"595 0 LINE",
"683 0 LINE",
"871 677 LINE",
"750 677 LINE",
"662 336 LINE SMOOTH",
"646 276 OFFCURVE",
"636 226 OFFCURVE",
"631 189 CURVE",
"623 226 OFFCURVE",
"609 277 OFFCURVE",
"591 336 CURVE SMOOTH",
"485 677 LINE",
"396 677 LINE",
"290 336 LINE SMOOTH",
"272 278 OFFCURVE",
"259 233 OFFCURVE",
"250 196 CURVE",
"243 233 OFFCURVE",
"232 280 OFFCURVE",
"217 338 CURVE SMOOTH",
"129 677 LINE",
"10 677 LINE",
"198 0 LINE",
"286 0 LINE",
"416 411 LINE SMOOTH",
"425 441 OFFCURVE",
"431 466 OFFCURVE",
"437 491 CURVE",
"443 466 OFFCURVE",
"451 439 OFFCURVE",
"461 411 CURVE"
);
}
);
width = 869;
},
{
layerId = "EB17B230-7FBB-41DE-BCDE-73D8D15F9114";
paths = (
{
closed = 1;
nodes = (
"591 0 LINE",
"724 0 LINE",
"912 677 LINE",
"746 677 LINE",
"683 421 LINE SMOOTH",
"664 345 OFFCURVE",
"654 278 OFFCURVE",
"648 230 CURVE",
"637 278 OFFCURVE",
"626 347 OFFCURVE",
"604 420 CURVE SMOOTH",
"526 677 LINE",
"392 677 LINE",
"316 422 LINE SMOOTH",
"298 361 OFFCURVE",
"282 283 OFFCURVE",
"271 234 CURVE",
"263 283 OFFCURVE",
"249 363 OFFCURVE",
"234 423 CURVE SMOOTH",
"170 677 LINE",
"6 677 LINE",
"194 0 LINE",
"327 0 LINE",
"422 306 LINE SMOOTH",
"437 356 OFFCURVE",
"451 436 OFFCURVE",
"457 463 CURVE",
"464 437 OFFCURVE",
"476 367 OFFCURVE",
"494 309 CURVE SMOOTH"
);
}
);
width = 912;
}
);
unicode = 0057;
},
{
glyphname = X;
layers = (
{
layerId = "5DBF9900-19CD-41BF-A30E-BB0302EA3177";
paths = (
{
closed = 1;
nodes = (
"137 0 LINE",
"249 200 LINE",
"291 282 LINE",
"306 251 OFFCURVE",
"324 218 OFFCURVE",
"334 200 CURVE SMOOTH",
"446 0 LINE",
"582 0 LINE",
"372 354 LINE",
"563 677 LINE",
"429 677 LINE",
"333 505 LINE SMOOTH",
"323 487 OFFCURVE",
"306 456 OFFCURVE",
"291 426 CURVE",
"276 457 OFFCURVE",
"260 487 OFFCURVE",
"250 506 CURVE SMOOTH",
"155 677 LINE",
"20 677 LINE",
"210 355 LINE",
"0 0 LINE"
);
}
);
width = 582;
},
{
layerId = "EB17B230-7FBB-41DE-BCDE-73D8D15F9114";
paths = (
{
closed = 1;
nodes = (
"182 0 LINE",
"294 200 LINE",
"317 243 LINE",
"326 227 OFFCURVE",
"334 210 OFFCURVE",
"341 200 CURVE",
"453 0 LINE",
"635 0 LINE",
"425 354 LINE",
"616 677 LINE",
"436 677 LINE",
"340 505 LINE",
"333 494 OFFCURVE",
"326 479 OFFCURVE",
"317 464 CURVE",
"308 480 OFFCURVE",
"300 497 OFFCURVE",
"295 506 CURVE SMOOTH",
"200 677 LINE",
"20 677 LINE",
"210 355 LINE",
"0 0 LINE"
);
}
);
width = 635;
}
);
unicode = 0058;
},
{
glyphname = Y;
layers = (
{
anchors = (
{
name = topUC;
position = "{275, 677}";
}
);
layerId = "5DBF9900-19CD-41BF-A30E-BB0302EA3177";
paths = (
{
closed = 1;
nodes = (
"210 0 LINE",
"329 0 LINE",
"329 254 LINE",
"542 677 LINE",
"416 677 LINE",
"271 370 LINE",
"129 677 LINE",
"0 677 LINE",
"210 259 LINE"
);
}
);
width = 542;
},
{
anchors = (
{
name = topUC;
position = "{275, 677}";
}
);
layerId = "EB17B230-7FBB-41DE-BCDE-73D8D15F9114";
paths = (
{
closed = 1;
nodes = (
"209 0 LINE",
"373 0 LINE",
"373 251 LINE",
"589 677 LINE",
"417 677 LINE",
"294 418 LINE",
"174 677 LINE",
"0 677 LINE",
"209 260 LINE"
);
}
);
width = 589;
}
);
leftKerningGroup = Y;
rightKerningGroup = Y;
unicode = 0059;
},
{
glyphname = Yacute;
layers = (
{
layerId = "5DBF9900-19CD-41BF-A30E-BB0302EA3177";
paths = (
{
closed = 1;
nodes = (
"210 0 LINE",
"329 0 LINE",
"329 254 LINE",
"542 677 LINE",
"416 677 LINE",
"271 370 LINE",
"129 677 LINE",
"0 677 LINE",
"210 259 LINE"
);
},
{
closed = 1;
nodes = (
"273 718 LINE",
"272 718 OFFCURVE",
"431 761 OFFCURVE",
"524 846 CURVE",
"472 928 LINE",
"245 776 LINE"
);
}
);
width = 543;
},
{
layerId = "EB17B230-7FBB-41DE-BCDE-73D8D15F9114";
paths = (
{
closed = 1;
nodes = (
"201 0 LINE",
"365 0 LINE",
"365 251 LINE",
"581 677 LINE",
"409 677 LINE",
"286 418 LINE",
"166 677 LINE",
"-8 677 LINE",
"201 260 LINE"
);
},
{
closed = 1;
nodes = (
"290 725 LINE",
"314 732 OFFCURVE",
"446 774 OFFCURVE",
"535 871 CURVE",
"435 972 LINE",
"228 799 LINE"
);
}
);
width = 574;
}
);
leftKerningGroup = Y;
rightKerningGroup = Y;
unicode = 00DD;
},
{
glyphname = Ydieresis;
layers = (
{
layerId = "5DBF9900-19CD-41BF-A30E-BB0302EA3177";
paths = (
{
closed = 1;
nodes = (
"210 0 LINE",
"329 0 LINE",
"329 254 LINE",
"542 677 LINE",
"416 677 LINE",
"271 370 LINE",
"129 677 LINE",
"0 677 LINE",
"210 259 LINE"
);
},
{
closed = 1;
nodes = (
"233 811 CURVE SMOOTH",
"233 847 OFFCURVE",
"211 874 OFFCURVE",
"172 874 CURVE SMOOTH",
"131 874 OFFCURVE",
"109 846 OFFCURVE",
"109 809 CURVE SMOOTH",
"109 775 OFFCURVE",
"131 747 OFFCURVE",
"169 747 CURVE SMOOTH",
"211 747 OFFCURVE",
"233 775 OFFCURVE"
);
},
{
closed = 1;
nodes = (
"433 811 CURVE SMOOTH",
"433 847 OFFCURVE",
"411 874 OFFCURVE",
"372 874 CURVE SMOOTH",
"330 874 OFFCURVE",
"308 846 OFFCURVE",
"308 809 CURVE SMOOTH",
"308 775 OFFCURVE",
"330 747 OFFCURVE",
"369 747 CURVE SMOOTH",
"411 747 OFFCURVE",
"433 775 OFFCURVE"
);
}
);
width = 543;
},
{
layerId = "EB17B230-7FBB-41DE-BCDE-73D8D15F9114";
paths = (
{
closed = 1;
nodes = (
"201 0 LINE",
"365 0 LINE",
"365 251 LINE",
"581 677 LINE",
"409 677 LINE",
"286 418 LINE",
"166 677 LINE",
"-8 677 LINE",
"201 260 LINE"
);
},
{
closed = 1;
nodes = (
"249 822 CURVE SMOOTH",
"249 862 OFFCURVE",
"223 896 OFFCURVE",
"177 896 CURVE SMOOTH",
"127 896 OFFCURVE",
"102 862 OFFCURVE",
"102 818 CURVE SMOOTH",
"102 778 OFFCURVE",
"127 745 OFFCURVE",
"174 745 CURVE SMOOTH",
"223 745 OFFCURVE",
"249 778 OFFCURVE"
);
},
{
closed = 1;
nodes = (
"464 822 CURVE SMOOTH",
"464 862 OFFCURVE",
"438 896 OFFCURVE",
"392 896 CURVE SMOOTH",
"342 896 OFFCURVE",
"317 862 OFFCURVE",
"317 818 CURVE SMOOTH",
"317 778 OFFCURVE",
"342 745 OFFCURVE",
"389 745 CURVE SMOOTH",
"438 745 OFFCURVE",
"464 778 OFFCURVE"
);
}
);
width = 574;
}
);
leftKerningGroup = Y;
rightKerningGroup = Y;
unicode = 0178;
},
{
glyphname = Z;
layers = (
{
layerId = "5DBF9900-19CD-41BF-A30E-BB0302EA3177";
paths = (
{
closed = 1;
nodes = (
"493 0 LINE",
"493 93 LINE",
"267 93 LINE SMOOTH",
"239 93 OFFCURVE",
"216 92 OFFCURVE",
"193 91 CURVE",
"481 606 LINE",
"481 677 LINE",
"41 677 LINE",
"57 584 LINE",
"248 584 LINE SMOOTH",
"280 584 OFFCURVE",
"307 585 OFFCURVE",
"334 587 CURVE",
"40 71 LINE",
"40 0 LINE"
);
}
);
width = 528;
},
{
layerId = "EB17B230-7FBB-41DE-BCDE-73D8D15F9114";
paths = (
{
closed = 1;
nodes = (
"520 0 LINE",
"520 137 LINE",
"305 137 LINE SMOOTH",
"281 137 OFFCURVE",
"258 136 OFFCURVE",
"237 135 CURVE",
"507 564 LINE",
"507 677 LINE",
"33 677 LINE",
"58 540 LINE",
"231 540 LINE SMOOTH",
"257 540 OFFCURVE",
"285 541 OFFCURVE",
"310 542 CURVE",
"36 112 LINE",
"36 0 LINE"
);
}
);
width = 548;
}
);
unicode = 005A;
},
{
glyphname = a;
layers = (
{
anchors = (
{
name = top;
position = "{268, 506}";
}
);
layerId = "5DBF9900-19CD-41BF-A30E-BB0302EA3177";
paths = (
{
closed = 1;
nodes = (
"467 477 LINE",
"458 479 OFFCURVE",
"354 506 OFFCURVE",
"274 506 CURVE SMOOTH",
"132 506 OFFCURVE",
"35 394 OFFCURVE",
"35 242 CURVE SMOOTH",
"35 92 OFFCURVE",
"94 -6 OFFCURVE",
"219 -6 CURVE SMOOTH",
"304 -6 OFFCURVE",
"353 35 OFFCURVE",
"375 115 CURVE",
"380 34 OFFCURVE",
"426 -8 OFFCURVE",
"426 -8 CURVE",
"515 28 LINE",
"515 28 OFFCURVE",
"467 83 OFFCURVE",
"467 241 CURVE SMOOTH"
);
},
{
closed = 1;
nodes = (
"238 74 CURVE SMOOTH",
"165 74 OFFCURVE",
"158 159 OFFCURVE",
"158 252 CURVE SMOOTH",
"158 353 OFFCURVE",
"187 426 OFFCURVE",
"287 426 CURVE SMOOTH",
"308 426 OFFCURVE",
"340 419 OFFCURVE",
"353 415 CURVE",
"353 271 LINE SMOOTH",
"353 173 OFFCURVE",
"304 74 OFFCURVE"
);
}
);
width = 536;
},
{
anchors = (
{
name = top;
position = "{268, 506}";
}
);
layerId = "EB17B230-7FBB-41DE-BCDE-73D8D15F9114";
paths = (
{
closed = 1;
nodes = (
"477 480 LINE",
"475 480 OFFCURVE",
"361 509 OFFCURVE",
"278 509 CURVE SMOOTH",
"129 509 OFFCURVE",
"27 396 OFFCURVE",
"27 243 CURVE SMOOTH",
"27 93 OFFCURVE",
"89 -6 OFFCURVE",
"220 -6 CURVE SMOOTH",
"292 -6 OFFCURVE",
"335 30 OFFCURVE",
"357 92 CURVE",
"369 26 OFFCURVE",
"405 -8 OFFCURVE",
"405 -8 CURVE",
"532 32 LINE",
"532 32 OFFCURVE",
"477 83 OFFCURVE",
"477 241 CURVE SMOOTH"
);
},
{
closed = 1;
nodes = (
"246 110 CURVE SMOOTH",
"198 110 OFFCURVE",
"195 179 OFFCURVE",
"195 253 CURVE SMOOTH",
"195 334 OFFCURVE",
"213 393 OFFCURVE",
"278 393 CURVE SMOOTH",
"290 393 OFFCURVE",
"310 389 OFFCURVE",
"319 385 CURVE",
"319 269 LINE SMOOTH",
"319 185 OFFCURVE",
"287 110 OFFCURVE"
);
}
);
width = 544;
}
);
leftKerningGroup = o;
rightKerningGroup = a;
unicode = 0061;
},
{
glyphname = aacute;
layers = (
{
layerId = "5DBF9900-19CD-41BF-A30E-BB0302EA3177";
paths = (
{
closed = 1;
nodes = (
"467 477 LINE",
"458 479 OFFCURVE",
"354 506 OFFCURVE",
"274 506 CURVE SMOOTH",
"132 506 OFFCURVE",
"35 394 OFFCURVE",
"35 242 CURVE SMOOTH",
"35 92 OFFCURVE",
"94 -6 OFFCURVE",
"219 -6 CURVE SMOOTH",
"304 -6 OFFCURVE",
"353 35 OFFCURVE",
"375 115 CURVE",
"380 34 OFFCURVE",
"426 -8 OFFCURVE",
"426 -8 CURVE",
"515 28 LINE",
"515 28 OFFCURVE",
"467 83 OFFCURVE",
"467 241 CURVE SMOOTH"
);
},
{
closed = 1;
nodes = (
"238 74 CURVE SMOOTH",
"165 74 OFFCURVE",
"158 159 OFFCURVE",
"158 252 CURVE SMOOTH",
"158 353 OFFCURVE",
"187 426 OFFCURVE",
"287 426 CURVE SMOOTH",
"308 426 OFFCURVE",
"340 419 OFFCURVE",
"353 415 CURVE",
"353 271 LINE SMOOTH",
"353 173 OFFCURVE",
"304 74 OFFCURVE"
);
},
{
closed = 1;
nodes = (
"259 538 LINE",
"259 538 OFFCURVE",
"377 610 OFFCURVE",
"456 708 CURVE",
"380 779 LINE",
"210 590 LINE"
);
}
);
width = 536;
},
{
layerId = "EB17B230-7FBB-41DE-BCDE-73D8D15F9114";
paths = (
{
closed = 1;
nodes = (
"477 480 LINE",
"475 480 OFFCURVE",
"361 509 OFFCURVE",
"278 509 CURVE SMOOTH",
"129 509 OFFCURVE",
"27 396 OFFCURVE",
"27 243 CURVE SMOOTH",
"27 93 OFFCURVE",
"89 -6 OFFCURVE",
"220 -6 CURVE SMOOTH",
"292 -6 OFFCURVE",
"335 30 OFFCURVE",
"357 92 CURVE",
"369 26 OFFCURVE",
"405 -8 OFFCURVE",
"405 -8 CURVE",
"532 32 LINE",
"532 32 OFFCURVE",
"477 83 OFFCURVE",
"477 241 CURVE SMOOTH"
);
},
{
closed = 1;
nodes = (
"246 110 CURVE SMOOTH",
"198 110 OFFCURVE",
"195 179 OFFCURVE",
"195 253 CURVE SMOOTH",
"195 334 OFFCURVE",
"213 393 OFFCURVE",
"278 393 CURVE SMOOTH",
"290 393 OFFCURVE",
"310 389 OFFCURVE",
"319 385 CURVE",
"319 269 LINE SMOOTH",
"319 185 OFFCURVE",
"287 110 OFFCURVE"
);
},
{
closed = 1;
nodes = (
"285 557 LINE",
"285 557 OFFCURVE",
"420 639 OFFCURVE",
"504 743 CURVE",
"400 842 LINE",
"218 628 LINE"
);
}
);
width = 544;
}
);
leftKerningGroup = o;
rightKerningGroup = a;
unicode = 00E1;
},
{
glyphname = acircumflex;
layers = (
{
layerId = "5DBF9900-19CD-41BF-A30E-BB0302EA3177";
paths = (
{
closed = 1;
nodes = (
"467 477 LINE",
"458 479 OFFCURVE",
"354 506 OFFCURVE",
"274 506 CURVE SMOOTH",
"132 506 OFFCURVE",
"35 394 OFFCURVE",
"35 242 CURVE SMOOTH",
"35 92 OFFCURVE",
"94 -6 OFFCURVE",
"219 -6 CURVE SMOOTH",
"304 -6 OFFCURVE",
"353 35 OFFCURVE",
"375 115 CURVE",
"380 34 OFFCURVE",
"426 -8 OFFCURVE",
"426 -8 CURVE",
"515 28 LINE",
"515 28 OFFCURVE",
"467 83 OFFCURVE",
"467 241 CURVE SMOOTH"
);
},
{
closed = 1;
nodes = (
"238 74 CURVE SMOOTH",
"165 74 OFFCURVE",
"158 159 OFFCURVE",
"158 252 CURVE SMOOTH",
"158 353 OFFCURVE",
"187 426 OFFCURVE",
"287 426 CURVE SMOOTH",
"308 426 OFFCURVE",
"340 419 OFFCURVE",
"353 415 CURVE",
"353 271 LINE SMOOTH",
"353 173 OFFCURVE",
"304 74 OFFCURVE"
);
},
{
closed = 1;
nodes = (
"130 538 LINE",
"129 538 OFFCURVE",
"198 576 OFFCURVE",
"275 642 CURVE",
"350 577 OFFCURVE",
"420 538 OFFCURVE",
"419 538 CURVE",
"462 592 LINE",
"275 779 LINE",
"87 592 LINE"
);
}
);
width = 536;
},
{
layerId = "EB17B230-7FBB-41DE-BCDE-73D8D15F9114";
paths = (
{
closed = 1;
nodes = (
"477 480 LINE",
"475 480 OFFCURVE",
"361 509 OFFCURVE",
"278 509 CURVE SMOOTH",
"129 509 OFFCURVE",
"27 396 OFFCURVE",
"27 243 CURVE SMOOTH",
"27 93 OFFCURVE",
"89 -6 OFFCURVE",
"220 -6 CURVE SMOOTH",
"292 -6 OFFCURVE",
"335 30 OFFCURVE",
"357 92 CURVE",
"369 26 OFFCURVE",
"405 -8 OFFCURVE",
"405 -8 CURVE",
"532 32 LINE",
"532 32 OFFCURVE",
"477 83 OFFCURVE",
"477 241 CURVE SMOOTH"
);
},
{
closed = 1;
nodes = (
"246 110 CURVE SMOOTH",
"198 110 OFFCURVE",
"195 179 OFFCURVE",
"195 253 CURVE SMOOTH",
"195 334 OFFCURVE",
"213 393 OFFCURVE",
"278 393 CURVE SMOOTH",
"290 393 OFFCURVE",
"310 389 OFFCURVE",
"319 385 CURVE",
"319 269 LINE SMOOTH",
"319 185 OFFCURVE",
"287 110 OFFCURVE"
);
},
{
closed = 1;
nodes = (
"148 557 LINE",
"176 571 OFFCURVE",
"224 595 OFFCURVE",
"282 639 CURVE",
"340 595 OFFCURVE",
"389 570 OFFCURVE",
"415 557 CURVE",
"476 631 LINE",
"282 828 LINE",
"87 631 LINE"
);
}
);
width = 544;
}
);
leftKerningGroup = o;
rightKerningGroup = a;
unicode = 00E2;
},
{
glyphname = adieresis;
layers = (
{
layerId = "5DBF9900-19CD-41BF-A30E-BB0302EA3177";
paths = (
{
closed = 1;
nodes = (
"467 477 LINE",
"458 479 OFFCURVE",
"354 506 OFFCURVE",
"274 506 CURVE SMOOTH",
"132 506 OFFCURVE",
"35 394 OFFCURVE",
"35 242 CURVE SMOOTH",
"35 92 OFFCURVE",
"94 -6 OFFCURVE",
"219 -6 CURVE SMOOTH",
"304 -6 OFFCURVE",
"353 35 OFFCURVE",
"375 115 CURVE",
"380 34 OFFCURVE",
"426 -8 OFFCURVE",
"426 -8 CURVE",
"515 28 LINE",
"515 28 OFFCURVE",
"467 83 OFFCURVE",
"467 241 CURVE SMOOTH"
);
},
{
closed = 1;
nodes = (
"238 74 CURVE SMOOTH",
"165 74 OFFCURVE",
"158 159 OFFCURVE",
"158 252 CURVE SMOOTH",
"158 353 OFFCURVE",
"187 426 OFFCURVE",
"287 426 CURVE SMOOTH",
"308 426 OFFCURVE",
"340 419 OFFCURVE",
"353 415 CURVE",
"353 271 LINE SMOOTH",
"353 173 OFFCURVE",
"304 74 OFFCURVE"
);
},
{
closed = 1;
nodes = (
"229 651 CURVE SMOOTH",
"229 687 OFFCURVE",
"207 714 OFFCURVE",
"168 714 CURVE SMOOTH",
"127 714 OFFCURVE",
"105 686 OFFCURVE",
"105 649 CURVE SMOOTH",
"105 615 OFFCURVE",
"127 587 OFFCURVE",
"165 587 CURVE SMOOTH",
"207 587 OFFCURVE",
"229 615 OFFCURVE"
);
},
{
closed = 1;
nodes = (
"429 651 CURVE SMOOTH",
"429 687 OFFCURVE",
"407 714 OFFCURVE",
"368 714 CURVE SMOOTH",
"326 714 OFFCURVE",
"304 686 OFFCURVE",
"304 649 CURVE SMOOTH",
"304 615 OFFCURVE",
"326 587 OFFCURVE",
"365 587 CURVE SMOOTH",
"407 587 OFFCURVE",
"429 615 OFFCURVE"
);
}
);
width = 536;
},
{
layerId = "EB17B230-7FBB-41DE-BCDE-73D8D15F9114";
paths = (
{
closed = 1;
nodes = (
"477 480 LINE",
"475 480 OFFCURVE",
"361 509 OFFCURVE",
"278 509 CURVE SMOOTH",
"129 509 OFFCURVE",
"27 396 OFFCURVE",
"27 243 CURVE SMOOTH",
"27 93 OFFCURVE",
"89 -6 OFFCURVE",
"220 -6 CURVE SMOOTH",
"292 -6 OFFCURVE",
"335 30 OFFCURVE",
"357 92 CURVE",
"369 26 OFFCURVE",
"405 -8 OFFCURVE",
"405 -8 CURVE",
"532 32 LINE",
"532 32 OFFCURVE",
"477 83 OFFCURVE",
"477 241 CURVE SMOOTH"
);
},
{
closed = 1;
nodes = (
"246 110 CURVE SMOOTH",
"198 110 OFFCURVE",
"195 179 OFFCURVE",
"195 253 CURVE SMOOTH",
"195 334 OFFCURVE",
"213 393 OFFCURVE",
"278 393 CURVE SMOOTH",
"290 393 OFFCURVE",
"310 389 OFFCURVE",
"319 385 CURVE",
"319 269 LINE SMOOTH",
"319 185 OFFCURVE",
"287 110 OFFCURVE"
);
},
{
closed = 1;
nodes = (
"253 667 CURVE SMOOTH",
"253 707 OFFCURVE",
"227 741 OFFCURVE",
"181 741 CURVE SMOOTH",
"131 741 OFFCURVE",
"106 707 OFFCURVE",
"106 663 CURVE SMOOTH",
"106 623 OFFCURVE",
"131 590 OFFCURVE",
"178 590 CURVE SMOOTH",
"227 590 OFFCURVE",
"253 623 OFFCURVE"
);
},
{
closed = 1;
nodes = (
"468 667 CURVE SMOOTH",
"468 707 OFFCURVE",
"442 741 OFFCURVE",
"396 741 CURVE SMOOTH",
"346 741 OFFCURVE",
"321 707 OFFCURVE",
"321 663 CURVE SMOOTH",
"321 623 OFFCURVE",
"346 590 OFFCURVE",
"393 590 CURVE SMOOTH",
"442 590 OFFCURVE",
"468 623 OFFCURVE"
);
}
);
width = 544;
}
);
leftKerningGroup = o;
rightKerningGroup = a;
unicode = 00E4;
},
{
glyphname = agrave;
layers = (
{
layerId = "5DBF9900-19CD-41BF-A30E-BB0302EA3177";
paths = (
{
closed = 1;
nodes = (
"467 477 LINE",
"458 479 OFFCURVE",
"354 506 OFFCURVE",
"274 506 CURVE SMOOTH",
"132 506 OFFCURVE",
"35 394 OFFCURVE",
"35 242 CURVE SMOOTH",
"35 92 OFFCURVE",
"94 -6 OFFCURVE",
"219 -6 CURVE SMOOTH",
"304 -6 OFFCURVE",
"353 35 OFFCURVE",
"375 115 CURVE",
"380 34 OFFCURVE",
"426 -8 OFFCURVE",
"426 -8 CURVE",
"515 28 LINE",
"515 28 OFFCURVE",
"467 83 OFFCURVE",
"467 241 CURVE SMOOTH"
);
},
{
closed = 1;
nodes = (
"238 74 CURVE SMOOTH",
"165 74 OFFCURVE",
"158 159 OFFCURVE",
"158 252 CURVE SMOOTH",
"158 353 OFFCURVE",
"187 426 OFFCURVE",
"287 426 CURVE SMOOTH",
"308 426 OFFCURVE",
"340 419 OFFCURVE",
"353 415 CURVE",
"353 271 LINE SMOOTH",
"353 173 OFFCURVE",
"304 74 OFFCURVE"
);
},
{
closed = 1;
nodes = (
"316 590 LINE",
"146 779 LINE",
"70 708 LINE",
"149 610 OFFCURVE",
"268 538 OFFCURVE",
"268 538 CURVE"
);
}
);
width = 536;
},
{
layerId = "EB17B230-7FBB-41DE-BCDE-73D8D15F9114";
paths = (
{
closed = 1;
nodes = (
"477 480 LINE",
"475 480 OFFCURVE",
"361 509 OFFCURVE",
"278 509 CURVE SMOOTH",
"129 509 OFFCURVE",
"27 396 OFFCURVE",
"27 243 CURVE SMOOTH",
"27 93 OFFCURVE",
"89 -6 OFFCURVE",
"220 -6 CURVE SMOOTH",
"292 -6 OFFCURVE",
"335 30 OFFCURVE",
"357 92 CURVE",
"369 26 OFFCURVE",
"405 -8 OFFCURVE",
"405 -8 CURVE",
"532 32 LINE",
"532 32 OFFCURVE",
"477 83 OFFCURVE",
"477 241 CURVE SMOOTH"
);
},
{
closed = 1;
nodes = (
"246 110 CURVE SMOOTH",
"198 110 OFFCURVE",
"195 179 OFFCURVE",
"195 253 CURVE SMOOTH",
"195 334 OFFCURVE",
"213 393 OFFCURVE",
"278 393 CURVE SMOOTH",
"290 393 OFFCURVE",
"310 389 OFFCURVE",
"319 385 CURVE",
"319 269 LINE SMOOTH",
"319 185 OFFCURVE",
"287 110 OFFCURVE"
);
},
{
closed = 1;
nodes = (
"354 628 LINE",
"171 842 LINE",
"67 743 LINE",
"151 639 OFFCURVE",
"276 565 OFFCURVE",
"287 557 CURVE"
);
}
);
width = 544;
}
);
leftKerningGroup = o;
rightKerningGroup = a;
unicode = 00E0;
},
{
glyphname = aring;
layers = (
{
layerId = "5DBF9900-19CD-41BF-A30E-BB0302EA3177";
paths = (
{
closed = 1;
nodes = (
"467 477 LINE",
"458 479 OFFCURVE",
"354 506 OFFCURVE",
"274 506 CURVE SMOOTH",
"132 506 OFFCURVE",
"35 394 OFFCURVE",
"35 242 CURVE SMOOTH",
"35 92 OFFCURVE",
"94 -6 OFFCURVE",
"219 -6 CURVE SMOOTH",
"304 -6 OFFCURVE",
"353 35 OFFCURVE",
"375 115 CURVE",
"380 34 OFFCURVE",
"426 -8 OFFCURVE",
"426 -8 CURVE",
"515 28 LINE",
"515 28 OFFCURVE",
"467 83 OFFCURVE",
"467 241 CURVE SMOOTH"
);
},
{
closed = 1;
nodes = (
"238 74 CURVE SMOOTH",
"165 74 OFFCURVE",
"158 159 OFFCURVE",
"158 252 CURVE SMOOTH",
"158 353 OFFCURVE",
"187 426 OFFCURVE",
"287 426 CURVE SMOOTH",
"308 426 OFFCURVE",
"340 419 OFFCURVE",
"353 415 CURVE",
"353 271 LINE SMOOTH",
"353 173 OFFCURVE",
"304 74 OFFCURVE"
);
},
{
closed = 1;
nodes = (
"168 646 CURVE SMOOTH",
"168 589 OFFCURVE",
"209 545 OFFCURVE",
"266 545 CURVE SMOOTH",
"324 545 OFFCURVE",
"367 589 OFFCURVE",
"367 646 CURVE SMOOTH",
"367 704 OFFCURVE",
"326 746 OFFCURVE",
"269 746 CURVE SMOOTH",
"211 746 OFFCURVE",
"168 703 OFFCURVE"
);
},
{
closed = 1;
nodes = (
"224 647 CURVE SMOOTH",
"224 678 OFFCURVE",
"240 696 OFFCURVE",
"267 696 CURVE SMOOTH",
"295 696 OFFCURVE",
"311 676 OFFCURVE",
"311 646 CURVE SMOOTH",
"311 614 OFFCURVE",
"295 594 OFFCURVE",
"267 594 CURVE SMOOTH",
"240 594 OFFCURVE",
"224 617 OFFCURVE"
);
}
);
width = 536;
},
{
layerId = "EB17B230-7FBB-41DE-BCDE-73D8D15F9114";
paths = (
{
closed = 1;
nodes = (
"477 480 LINE",
"475 480 OFFCURVE",
"361 509 OFFCURVE",
"278 509 CURVE SMOOTH",
"129 509 OFFCURVE",
"27 396 OFFCURVE",
"27 243 CURVE SMOOTH",
"27 93 OFFCURVE",
"89 -6 OFFCURVE",
"220 -6 CURVE SMOOTH",
"292 -6 OFFCURVE",
"335 30 OFFCURVE",
"357 92 CURVE",
"369 26 OFFCURVE",
"405 -8 OFFCURVE",
"405 -8 CURVE",
"532 32 LINE",
"532 32 OFFCURVE",
"477 83 OFFCURVE",
"477 241 CURVE SMOOTH"
);
},
{
closed = 1;
nodes = (
"246 110 CURVE SMOOTH",
"198 110 OFFCURVE",
"195 179 OFFCURVE",
"195 253 CURVE SMOOTH",
"195 334 OFFCURVE",
"213 393 OFFCURVE",
"278 393 CURVE SMOOTH",
"290 393 OFFCURVE",
"310 389 OFFCURVE",
"319 385 CURVE",
"319 269 LINE SMOOTH",
"319 185 OFFCURVE",
"287 110 OFFCURVE"
);
},
{
closed = 1;
nodes = (
"168 653 CURVE SMOOTH",
"168 591 OFFCURVE",
"209 543 OFFCURVE",
"275 543 CURVE SMOOTH",
"339 543 OFFCURVE",
"385 587 OFFCURVE",
"385 653 CURVE SMOOTH",
"385 716 OFFCURVE",
"344 763 OFFCURVE",
"278 763 CURVE SMOOTH",
"215 763 OFFCURVE",
"168 720 OFFCURVE"
);
},
{
closed = 1;
nodes = (
"242 654 CURVE SMOOTH",
"242 680 OFFCURVE",
"255 694 OFFCURVE",
"276 694 CURVE SMOOTH",
"298 694 OFFCURVE",
"311 678 OFFCURVE",
"311 653 CURVE SMOOTH",
"311 625 OFFCURVE",
"298 611 OFFCURVE",
"276 611 CURVE SMOOTH",
"258 611 OFFCURVE",
"242 625 OFFCURVE"
);
}
);
width = 544;
}
);
leftKerningGroup = o;
rightKerningGroup = a;
unicode = 00E5;
},
{
glyphname = atilde;
layers = (
{
layerId = "5DBF9900-19CD-41BF-A30E-BB0302EA3177";
paths = (
{
closed = 1;
nodes = (
"467 477 LINE",
"458 479 OFFCURVE",
"354 506 OFFCURVE",
"274 506 CURVE SMOOTH",
"132 506 OFFCURVE",
"35 394 OFFCURVE",
"35 242 CURVE SMOOTH",
"35 92 OFFCURVE",
"94 -6 OFFCURVE",
"219 -6 CURVE SMOOTH",
"304 -6 OFFCURVE",
"353 35 OFFCURVE",
"375 115 CURVE",
"380 34 OFFCURVE",
"426 -8 OFFCURVE",
"426 -8 CURVE",
"515 28 LINE",
"515 28 OFFCURVE",
"467 83 OFFCURVE",
"467 241 CURVE SMOOTH"
);
},
{
closed = 1;
nodes = (
"238 74 CURVE SMOOTH",
"165 74 OFFCURVE",
"158 159 OFFCURVE",
"158 252 CURVE SMOOTH",
"158 353 OFFCURVE",
"187 426 OFFCURVE",
"287 426 CURVE SMOOTH",
"308 426 OFFCURVE",
"340 419 OFFCURVE",
"353 415 CURVE",
"353 271 LINE SMOOTH",
"353 173 OFFCURVE",
"304 74 OFFCURVE"
);
},
{
closed = 1;
nodes = (
"106 589 LINE",
"106 589 OFFCURVE",
"140 603 OFFCURVE",
"185 603 CURVE SMOOTH",
"234 603 OFFCURVE",
"289 583 OFFCURVE",
"338 583 CURVE SMOOTH",
"383 583 OFFCURVE",
"418 606 OFFCURVE",
"418 606 CURVE",
"418 680 LINE",
"418 680 OFFCURVE",
"383 666 OFFCURVE",
"338 666 CURVE SMOOTH",
"289 666 OFFCURVE",
"234 686 OFFCURVE",
"185 686 CURVE SMOOTH",
"140 686 OFFCURVE",
"106 663 OFFCURVE",
"106 663 CURVE"
);
}
);
width = 536;
},
{
layerId = "EB17B230-7FBB-41DE-BCDE-73D8D15F9114";
paths = (
{
closed = 1;
nodes = (
"477 480 LINE",
"475 480 OFFCURVE",
"361 509 OFFCURVE",
"278 509 CURVE SMOOTH",
"129 509 OFFCURVE",
"27 396 OFFCURVE",
"27 243 CURVE SMOOTH",
"27 93 OFFCURVE",
"89 -6 OFFCURVE",
"220 -6 CURVE SMOOTH",
"292 -6 OFFCURVE",
"335 30 OFFCURVE",
"357 92 CURVE",
"369 26 OFFCURVE",
"405 -8 OFFCURVE",
"405 -8 CURVE",
"532 32 LINE",
"532 32 OFFCURVE",
"477 83 OFFCURVE",
"477 241 CURVE SMOOTH"
);
},
{
closed = 1;
nodes = (
"246 110 CURVE SMOOTH",
"198 110 OFFCURVE",
"195 179 OFFCURVE",
"195 253 CURVE SMOOTH",
"195 334 OFFCURVE",
"213 393 OFFCURVE",
"278 393 CURVE SMOOTH",
"290 393 OFFCURVE",
"310 389 OFFCURVE",
"319 385 CURVE",
"319 269 LINE SMOOTH",
"319 185 OFFCURVE",
"287 110 OFFCURVE"
);
},
{
closed = 1;
nodes = (
"121 586 LINE",
"121 586 OFFCURVE",
"160 600 OFFCURVE",
"209 600 CURVE SMOOTH",
"261 600 OFFCURVE",
"316 580 OFFCURVE",
"369 580 CURVE SMOOTH",
"418 580 OFFCURVE",
"449 603 OFFCURVE",
"449 603 CURVE",
"449 703 LINE",
"449 703 OFFCURVE",
"418 689 OFFCURVE",
"369 689 CURVE SMOOTH",
"316 689 OFFCURVE",
"261 709 OFFCURVE",
"209 709 CURVE SMOOTH",
"160 709 OFFCURVE",
"121 686 OFFCURVE",
"121 686 CURVE"
);
}
);
width = 544;
}
);
leftKerningGroup = o;
rightKerningGroup = a;
unicode = 00E3;
},
{
glyphname = ae;
layers = (
{
layerId = "5DBF9900-19CD-41BF-A30E-BB0302EA3177";
paths = (
{
closed = 1;
nodes = (
"274 506 CURVE SMOOTH",
"132 506 OFFCURVE",
"35 394 OFFCURVE",
"35 242 CURVE SMOOTH",
"35 92 OFFCURVE",
"94 -6 OFFCURVE",
"219 -6 CURVE SMOOTH",
"293 -6 OFFCURVE",
"339 25 OFFCURVE",
"364 86 CURVE",
"397 27 OFFCURVE",
"456 -7 OFFCURVE",
"548 -7 CURVE SMOOTH",
"649 -7 OFFCURVE",
"736 39 OFFCURVE",
"736 39 CURVE",
"706 110 LINE",
"706 110 OFFCURVE",
"622 75 OFFCURVE",
"564 75 CURVE SMOOTH",
"485 75 OFFCURVE",
"460 126 OFFCURVE",
"453 188 CURVE",
"630 190 OFFCURVE",
"740 272 OFFCURVE",
"740 368 CURVE SMOOTH",
"740 448 OFFCURVE",
"692 510 OFFCURVE",
"573 510 CURVE SMOOTH",
"522 510 OFFCURVE",
"476 497 OFFCURVE",
"438 471 CURVE",
"405 485 OFFCURVE",
"345 506 OFFCURVE"
);
},
{
closed = 1;
nodes = (
"238 74 CURVE SMOOTH",
"165 74 OFFCURVE",
"158 159 OFFCURVE",
"158 252 CURVE SMOOTH",
"158 353 OFFCURVE",
"187 426 OFFCURVE",
"287 426 CURVE SMOOTH",
"322 426 OFFCURVE",
"350 416 OFFCURVE",
"374 403 CURVE",
"348 360 OFFCURVE",
"333 304 OFFCURVE",
"333 237 CURVE SMOOTH",
"333 212 OFFCURVE",
"334 189 OFFCURVE",
"338 168 CURVE",
"320 112 OFFCURVE",
"283 74 OFFCURVE"
);
},
{
closed = 1;
nodes = (
"565 432 CURVE SMOOTH",
"601 432 OFFCURVE",
"626 407 OFFCURVE",
"626 368 CURVE SMOOTH",
"626 321 OFFCURVE",
"578 265 OFFCURVE",
"450 260 CURVE",
"452 342 OFFCURVE",
"476 432 OFFCURVE"
);
}
);
width = 760;
},
{
layerId = "EB17B230-7FBB-41DE-BCDE-73D8D15F9114";
paths = (
{
closed = 1;
nodes = (
"278 509 CURVE SMOOTH",
"129 509 OFFCURVE",
"27 396 OFFCURVE",
"27 243 CURVE SMOOTH",
"27 93 OFFCURVE",
"89 -6 OFFCURVE",
"220 -6 CURVE SMOOTH",
"285 -6 OFFCURVE",
"326 26 OFFCURVE",
"350 80 CURVE",
"386 24 OFFCURVE",
"446 -9 OFFCURVE",
"540 -9 CURVE SMOOTH",
"647 -9 OFFCURVE",
"737 36 OFFCURVE",
"737 36 CURVE",
"707 140 LINE",
"707 140 OFFCURVE",
"623 108 OFFCURVE",
"565 108 CURVE SMOOTH",
"516 108 OFFCURVE",
"493 135 OFFCURVE",
"484 175 CURVE",
"643 188 OFFCURVE",
"742 264 OFFCURVE",
"742 361 CURVE SMOOTH",
"742 447 OFFCURVE",
"692 512 OFFCURVE",
"567 512 CURVE SMOOTH",
"516 512 OFFCURVE",
"469 500 OFFCURVE",
"430 476 CURVE",
"392 492 OFFCURVE",
"340 509 OFFCURVE"
);
},
{
closed = 1;
nodes = (
"246 110 CURVE SMOOTH",
"198 110 OFFCURVE",
"195 179 OFFCURVE",
"195 253 CURVE SMOOTH",
"195 334 OFFCURVE",
"213 393 OFFCURVE",
"278 393 CURVE SMOOTH",
"301 393 OFFCURVE",
"321 386 OFFCURVE",
"341 375 CURVE",
"323 341 OFFCURVE",
"312 290 OFFCURVE",
"312 251 CURVE SMOOTH",
"312 240 OFFCURVE",
"313 224 OFFCURVE",
"314 212 CURVE",
"303 153 OFFCURVE",
"277 110 OFFCURVE"
);
},
{
closed = 1;
nodes = (
"547 399 CURVE SMOOTH",
"568 399 OFFCURVE",
"585 382 OFFCURVE",
"585 357 CURVE SMOOTH",
"585 325 OFFCURVE",
"554 278 OFFCURVE",
"476 276 CURVE",
"478 333 OFFCURVE",
"496 399 OFFCURVE"
);
}
);
width = 762;
}
);
leftKerningGroup = o;
rightKerningGroup = e;
unicode = 00E6;
},
{
glyphname = b;
layers = (
{
layerId = "5DBF9900-19CD-41BF-A30E-BB0302EA3177";
paths = (
{
closed = 1;
nodes = (
"65 23 LINE",
"65 23 OFFCURVE",
"178 -6 OFFCURVE",
"258 -6 CURVE SMOOTH",
"400 -6 OFFCURVE",
"497 106 OFFCURVE",
"497 258 CURVE SMOOTH",
"497 408 OFFCURVE",
"438 506 OFFCURVE",
"313 506 CURVE SMOOTH",
"245 506 OFFCURVE",
"203 474 OFFCURVE",
"179 420 CURVE",
"179 725 LINE",
"65 705 LINE"
);
},
{
closed = 1;
nodes = (
"294 426 CURVE SMOOTH",
"367 426 OFFCURVE",
"374 341 OFFCURVE",
"374 248 CURVE SMOOTH",
"374 147 OFFCURVE",
"345 74 OFFCURVE",
"245 74 CURVE SMOOTH",
"223 74 OFFCURVE",
"191 81 OFFCURVE",
"179 84 CURVE",
"179 229 LINE SMOOTH",
"179 327 OFFCURVE",
"228 426 OFFCURVE"
);
}
);
width = 532;
},
{
layerId = "EB17B230-7FBB-41DE-BCDE-73D8D15F9114";
paths = (
{
closed = 1;
nodes = (
"57 23 LINE",
"68 19 OFFCURVE",
"173 -6 OFFCURVE",
"256 -6 CURVE SMOOTH",
"405 -6 OFFCURVE",
"507 107 OFFCURVE",
"507 259 CURVE SMOOTH",
"507 410 OFFCURVE",
"445 509 OFFCURVE",
"319 509 CURVE SMOOTH",
"274 509 OFFCURVE",
"240 491 OFFCURVE",
"215 459 CURVE",
"215 725 LINE",
"57 698 LINE"
);
},
{
closed = 1;
nodes = (
"288 393 CURVE SMOOTH",
"336 393 OFFCURVE",
"339 324 OFFCURVE",
"339 249 CURVE SMOOTH",
"339 169 OFFCURVE",
"321 110 OFFCURVE",
"256 110 CURVE SMOOTH",
"243 110 OFFCURVE",
"223 115 OFFCURVE",
"215 117 CURVE",
"215 224 LINE SMOOTH",
"215 313 OFFCURVE",
"245 393 OFFCURVE"
);
}
);
width = 534;
}
);
leftKerningGroup = b;
rightKerningGroup = o;
unicode = 0062;
},
{
glyphname = c;
layers = (
{
anchors = (
{
name = bottom;
position = "{250, 0}";
}
);
layerId = "5DBF9900-19CD-41BF-A30E-BB0302EA3177";
paths = (
{
closed = 1;
nodes = (
"399 442 LINE",
"369 484 OFFCURVE",
"326 510 OFFCURVE",
"264 510 CURVE SMOOTH",
"135 510 OFFCURVE",
"35 413 OFFCURVE",
"35 237 CURVE SMOOTH",
"35 91 OFFCURVE",
"99 -7 OFFCURVE",
"253 -7 CURVE SMOOTH",
"337 -7 OFFCURVE",
"387 20 OFFCURVE",
"394 23 CURVE",
"366 95 LINE",
"353 91 OFFCURVE",
"305 75 OFFCURVE",
"268 75 CURVE SMOOTH",
"221 75 OFFCURVE",
"158 96 OFFCURVE",
"158 252 CURVE SMOOTH",
"158 408 OFFCURVE",
"222 422 OFFCURVE",
"263 422 CURVE SMOOTH",
"297 422 OFFCURVE",
"315 403 OFFCURVE",
"335 381 CURVE"
);
}
);
width = 410;
},
{
anchors = (
{
name = bottom;
position = "{250, 0}";
}
);
layerId = "EB17B230-7FBB-41DE-BCDE-73D8D15F9114";
paths = (
{
closed = 1;
nodes = (
"416 441 LINE",
"385 483 OFFCURVE",
"335 512 OFFCURVE",
"270 512 CURVE SMOOTH",
"131 512 OFFCURVE",
"27 417 OFFCURVE",
"27 237 CURVE SMOOTH",
"27 90 OFFCURVE",
"95 -9 OFFCURVE",
"258 -9 CURVE SMOOTH",
"347 -9 OFFCURVE",
"406 24 OFFCURVE",
"407 25 CURVE",
"378 130 LINE",
"375 129 OFFCURVE",
"326 110 OFFCURVE",
"294 110 CURVE SMOOTH",
"251 110 OFFCURVE",
"195 128 OFFCURVE",
"195 254 CURVE SMOOTH",
"195 381 OFFCURVE",
"247 394 OFFCURVE",
"280 394 CURVE SMOOTH",
"307 394 OFFCURVE",
"322 379 OFFCURVE",
"338 360 CURVE"
);
}
);
width = 419;
}
);
leftKerningGroup = o;
rightKerningGroup = c;
unicode = 0063;
},
{
glyphname = ccedilla;
layers = (
{
layerId = "5DBF9900-19CD-41BF-A30E-BB0302EA3177";
paths = (
{
closed = 1;
nodes = (
"399 442 LINE",
"369 484 OFFCURVE",
"326 510 OFFCURVE",
"264 510 CURVE SMOOTH",
"135 510 OFFCURVE",
"35 413 OFFCURVE",
"35 237 CURVE SMOOTH",
"35 102 OFFCURVE",
"89 8 OFFCURVE",
"219 -5 CURVE",
"199 -85 LINE",
"238 -85 OFFCURVE",
"291 -98 OFFCURVE",
"291 -129 CURVE SMOOTH",
"291 -149 OFFCURVE",
"277 -160 OFFCURVE",
"241 -160 CURVE SMOOTH",
"218 -160 OFFCURVE",
"192 -152 OFFCURVE",
"177 -147 CURVE",
"161 -201 LINE",
"184 -210 OFFCURVE",
"215 -218 OFFCURVE",
"247 -218 CURVE SMOOTH",
"302 -218 OFFCURVE",
"365 -199 OFFCURVE",
"365 -126 CURVE SMOOTH",
"365 -77 OFFCURVE",
"327 -51 OFFCURVE",
"275 -47 CURVE",
"284 -6 LINE",
"349 0 OFFCURVE",
"388 20 OFFCURVE",
"394 23 CURVE",
"366 95 LINE",
"353 91 OFFCURVE",
"305 75 OFFCURVE",
"268 75 CURVE SMOOTH",
"221 75 OFFCURVE",
"158 96 OFFCURVE",
"158 252 CURVE SMOOTH",
"158 408 OFFCURVE",
"222 422 OFFCURVE",
"263 422 CURVE SMOOTH",
"297 422 OFFCURVE",
"315 403 OFFCURVE",
"335 381 CURVE"
);
}
);
width = 410;
},
{
layerId = "EB17B230-7FBB-41DE-BCDE-73D8D15F9114";
paths = (
{
closed = 1;
nodes = (
"416 441 LINE",
"385 483 OFFCURVE",
"335 512 OFFCURVE",
"270 512 CURVE SMOOTH",
"131 512 OFFCURVE",
"27 417 OFFCURVE",
"27 237 CURVE SMOOTH",
"27 109 OFFCURVE",
"78 18 OFFCURVE",
"198 -4 CURVE",
"177 -87 LINE",
"219 -87 OFFCURVE",
"271 -100 OFFCURVE",
"271 -127 CURVE SMOOTH",
"271 -143 OFFCURVE",
"257 -151 OFFCURVE",
"226 -151 CURVE SMOOTH",
"205 -151 OFFCURVE",
"178 -145 OFFCURVE",
"160 -137 CURVE",
"137 -212 LINE",
"167 -226 OFFCURVE",
"210 -236 OFFCURVE",
"252 -236 CURVE SMOOTH",
"323 -236 OFFCURVE",
"383 -204 OFFCURVE",
"383 -126 CURVE SMOOTH",
"383 -70 OFFCURVE",
"342 -42 OFFCURVE",
"290 -37 CURVE",
"297 -7 LINE",
"363 0 OFFCURVE",
"406 24 OFFCURVE",
"407 25 CURVE",
"378 130 LINE",
"375 129 OFFCURVE",
"326 110 OFFCURVE",
"294 110 CURVE SMOOTH",
"251 110 OFFCURVE",
"195 128 OFFCURVE",
"195 254 CURVE SMOOTH",
"195 381 OFFCURVE",
"247 394 OFFCURVE",
"280 394 CURVE SMOOTH",
"307 394 OFFCURVE",
"322 379 OFFCURVE",
"338 360 CURVE"
);
}
);
width = 419;
}
);
leftKerningGroup = o;
rightKerningGroup = c;
unicode = 00E7;
},
{
glyphname = d;
layers = (
{
layerId = "5DBF9900-19CD-41BF-A30E-BB0302EA3177";
paths = (
{
closed = 1;
nodes = (
"515 28 LINE",
"512 35 OFFCURVE",
"467 82 OFFCURVE",
"467 241 CURVE SMOOTH",
"467 705 LINE",
"353 725 LINE",
"353 499 LINE",
"326 503 OFFCURVE",
"298 506 OFFCURVE",
"274 506 CURVE SMOOTH",
"132 506 OFFCURVE",
"35 394 OFFCURVE",
"35 242 CURVE SMOOTH",
"35 92 OFFCURVE",
"94 -6 OFFCURVE",
"219 -6 CURVE SMOOTH",
"304 -6 OFFCURVE",
"353 35 OFFCURVE",
"375 115 CURVE",
"381 35 OFFCURVE",
"422 -4 OFFCURVE",
"426 -8 CURVE"
);
},
{
closed = 1;
nodes = (
"238 75 CURVE SMOOTH",
"165 75 OFFCURVE",
"158 159 OFFCURVE",
"158 252 CURVE SMOOTH",
"158 353 OFFCURVE",
"187 426 OFFCURVE",
"287 426 CURVE SMOOTH",
"308 426 OFFCURVE",
"340 419 OFFCURVE",
"353 415 CURVE",
"353 271 LINE SMOOTH",
"353 173 OFFCURVE",
"304 75 OFFCURVE"
);
}
);
width = 536;
},
{
layerId = "EB17B230-7FBB-41DE-BCDE-73D8D15F9114";
paths = (
{
closed = 1;
nodes = (
"532 32 LINE",
"531 33 OFFCURVE",
"477 83 OFFCURVE",
"477 241 CURVE SMOOTH",
"477 698 LINE",
"319 724 LINE",
"319 506 LINE",
"305 507 OFFCURVE",
"290 509 OFFCURVE",
"278 509 CURVE SMOOTH",
"129 509 OFFCURVE",
"27 396 OFFCURVE",
"27 243 CURVE SMOOTH",
"27 93 OFFCURVE",
"89 -6 OFFCURVE",
"220 -6 CURVE SMOOTH",
"292 -6 OFFCURVE",
"335 30 OFFCURVE",
"357 92 CURVE",
"369 27 OFFCURVE",
"404 -7 OFFCURVE",
"405 -8 CURVE"
);
},
{
closed = 1;
nodes = (
"246 110 CURVE SMOOTH",
"198 110 OFFCURVE",
"195 179 OFFCURVE",
"195 253 CURVE SMOOTH",
"195 334 OFFCURVE",
"213 393 OFFCURVE",
"278 393 CURVE SMOOTH",
"290 393 OFFCURVE",
"310 389 OFFCURVE",
"319 385 CURVE",
"319 269 LINE SMOOTH",
"319 185 OFFCURVE",
"287 110 OFFCURVE"
);
}
);
width = 544;
}
);
leftKerningGroup = o;
unicode = 0064;
},
{
glyphname = eth;
layers = (
{
layerId = "5DBF9900-19CD-41BF-A30E-BB0302EA3177";
paths = (
{
closed = 1;
nodes = (
"482 250 CURVE SMOOTH",
"482 374 OFFCURVE",
"453 488 OFFCURVE",
"398 578 CURVE",
"492 598 LINE",
"472 675 LINE",
"350 643 LINE",
"320 676 OFFCURVE",
"286 705 OFFCURVE",
"247 729 CURVE",
"189 659 LINE",
"243 617 LINE",
"168 601 LINE",
"188 523 LINE",
"300 554 LINE",
"317 525 OFFCURVE",
"334 492 OFFCURVE",
"348 455 CURVE",
"325 471 OFFCURVE",
"293 484 OFFCURVE",
"253 484 CURVE SMOOTH",
"110 484 OFFCURVE",
"35 377 OFFCURVE",
"35 239 CURVE SMOOTH",
"35 94 OFFCURVE",
"101 -10 OFFCURVE",
"254 -10 CURVE SMOOTH",
"407 -10 OFFCURVE",
"482 100 OFFCURVE"
);
},
{
closed = 1;
nodes = (
"253 405 CURVE SMOOTH",
"339 405 OFFCURVE",
"359 331 OFFCURVE",
"359 240 CURVE SMOOTH",
"359 152 OFFCURVE",
"341 74 OFFCURVE",
"264 74 CURVE SMOOTH",
"178 74 OFFCURVE",
"158 157 OFFCURVE",
"158 248 CURVE SMOOTH",
"158 337 OFFCURVE",
"176 405 OFFCURVE"
);
}
);
width = 517;
},
{
layerId = "EB17B230-7FBB-41DE-BCDE-73D8D15F9114";
paths = (
{
closed = 1;
nodes = (
"492 263 CURVE SMOOTH",
"492 378 OFFCURVE",
"473 488 OFFCURVE",
"422 581 CURVE",
"494 596 LINE",
"471 686 LINE",
"371 656 LINE",
"341 692 OFFCURVE",
"305 725 OFFCURVE",
"261 752 CURVE",
"184 659 LINE",
"235 623 LINE",
"178 613 LINE",
"201 523 LINE",
"301 551 LINE",
"310 532 OFFCURVE",
"319 512 OFFCURVE",
"326 490 CURVE",
"306 499 OFFCURVE",
"282 506 OFFCURVE",
"254 506 CURVE SMOOTH",
"107 506 OFFCURVE",
"27 393 OFFCURVE",
"27 244 CURVE SMOOTH",
"27 89 OFFCURVE",
"96 -10 OFFCURVE",
"256 -10 CURVE SMOOTH",
"414 -10 OFFCURVE",
"492 104 OFFCURVE"
);
},
{
closed = 1;
nodes = (
"255 388 CURVE SMOOTH",
"312 388 OFFCURVE",
"325 325 OFFCURVE",
"325 245 CURVE SMOOTH",
"325 172 OFFCURVE",
"314 109 OFFCURVE",
"265 109 CURVE SMOOTH",
"208 109 OFFCURVE",
"195 176 OFFCURVE",
"195 255 CURVE SMOOTH",
"195 330 OFFCURVE",
"206 388 OFFCURVE"
);
}
);
width = 512;
}
);
unicode = 00F0;
},
{
glyphname = e;
layers = (
{
anchors = (
{
name = top;
position = "{257, 506}";
}
);
layerId = "5DBF9900-19CD-41BF-A30E-BB0302EA3177";
paths = (
{
closed = 1;
nodes = (
"35 237 CURVE SMOOTH",
"35 91 OFFCURVE",
"97 -7 OFFCURVE",
"251 -7 CURVE SMOOTH",
"352 -7 OFFCURVE",
"439 39 OFFCURVE",
"439 39 CURVE",
"409 110 LINE",
"409 110 OFFCURVE",
"325 75 OFFCURVE",
"267 75 CURVE SMOOTH",
"188 75 OFFCURVE",
"163 126 OFFCURVE",
"156 188 CURVE",
"332 190 OFFCURVE",
"443 272 OFFCURVE",
"443 368 CURVE SMOOTH",
"443 448 OFFCURVE",
"395 510 OFFCURVE",
"276 510 CURVE SMOOTH",
"140 510 OFFCURVE",
"35 415 OFFCURVE"
);
},
{
closed = 1;
nodes = (
"267 432 CURVE SMOOTH",
"304 432 OFFCURVE",
"329 407 OFFCURVE",
"329 368 CURVE SMOOTH",
"329 321 OFFCURVE",
"280 265 OFFCURVE",
"153 260 CURVE",
"155 342 OFFCURVE",
"179 432 OFFCURVE"
);
}
);
width = 473;
},
{
anchors = (
{
name = top;
position = "{257, 506}";
}
);
layerId = "EB17B230-7FBB-41DE-BCDE-73D8D15F9114";
paths = (
{
closed = 1;
nodes = (
"27 237 CURVE SMOOTH",
"27 90 OFFCURVE",
"92 -9 OFFCURVE",
"255 -9 CURVE SMOOTH",
"361 -9 OFFCURVE",
"452 36 OFFCURVE",
"452 36 CURVE",
"422 140 LINE",
"422 140 OFFCURVE",
"338 108 OFFCURVE",
"280 108 CURVE SMOOTH",
"230 108 OFFCURVE",
"207 135 OFFCURVE",
"198 175 CURVE",
"357 188 OFFCURVE",
"456 264 OFFCURVE",
"456 361 CURVE SMOOTH",
"456 447 OFFCURVE",
"406 512 OFFCURVE",
"281 512 CURVE SMOOTH",
"138 512 OFFCURVE",
"27 416 OFFCURVE"
);
},
{
closed = 1;
nodes = (
"261 399 CURVE SMOOTH",
"283 399 OFFCURVE",
"299 382 OFFCURVE",
"299 357 CURVE SMOOTH",
"299 325 OFFCURVE",
"269 278 OFFCURVE",
"190 276 CURVE",
"192 333 OFFCURVE",
"210 399 OFFCURVE"
);
}
);
width = 479;
}
);
leftKerningGroup = o;
rightKerningGroup = e;
unicode = 0065;
},
{
glyphname = eacute;
layers = (
{
layerId = "5DBF9900-19CD-41BF-A30E-BB0302EA3177";
paths = (
{
closed = 1;
nodes = (
"35 237 CURVE SMOOTH",
"35 91 OFFCURVE",
"97 -7 OFFCURVE",
"251 -7 CURVE SMOOTH",
"352 -7 OFFCURVE",
"439 39 OFFCURVE",
"439 39 CURVE",
"409 110 LINE",
"409 110 OFFCURVE",
"325 75 OFFCURVE",
"267 75 CURVE SMOOTH",
"188 75 OFFCURVE",
"163 126 OFFCURVE",
"156 188 CURVE",
"332 190 OFFCURVE",
"443 272 OFFCURVE",
"443 368 CURVE SMOOTH",
"443 448 OFFCURVE",
"395 510 OFFCURVE",
"276 510 CURVE SMOOTH",
"140 510 OFFCURVE",
"35 415 OFFCURVE"
);
},
{
closed = 1;
nodes = (
"267 432 CURVE SMOOTH",
"304 432 OFFCURVE",
"329 407 OFFCURVE",
"329 368 CURVE SMOOTH",
"329 321 OFFCURVE",
"280 265 OFFCURVE",
"153 260 CURVE",
"155 342 OFFCURVE",
"179 432 OFFCURVE"
);
},
{
closed = 1;
nodes = (
"249 538 LINE",
"249 538 OFFCURVE",
"367 610 OFFCURVE",
"446 708 CURVE",
"370 779 LINE",
"200 590 LINE"
);
}
);
width = 473;
},
{
layerId = "EB17B230-7FBB-41DE-BCDE-73D8D15F9114";
paths = (
{
closed = 1;
nodes = (
"27 237 CURVE SMOOTH",
"27 90 OFFCURVE",
"92 -9 OFFCURVE",
"255 -9 CURVE SMOOTH",
"361 -9 OFFCURVE",
"452 36 OFFCURVE",
"452 36 CURVE",
"422 140 LINE",
"422 140 OFFCURVE",
"338 108 OFFCURVE",
"280 108 CURVE SMOOTH",
"230 108 OFFCURVE",
"207 135 OFFCURVE",
"198 175 CURVE",
"357 188 OFFCURVE",
"456 264 OFFCURVE",
"456 361 CURVE SMOOTH",
"456 447 OFFCURVE",
"406 512 OFFCURVE",
"281 512 CURVE SMOOTH",
"138 512 OFFCURVE",
"27 416 OFFCURVE"
);
},
{
closed = 1;
nodes = (
"261 399 CURVE SMOOTH",
"283 399 OFFCURVE",
"299 382 OFFCURVE",
"299 357 CURVE SMOOTH",
"299 325 OFFCURVE",
"269 278 OFFCURVE",
"190 276 CURVE",
"192 333 OFFCURVE",
"210 399 OFFCURVE"
);
},
{
closed = 1;
nodes = (
"263 557 LINE",
"263 557 OFFCURVE",
"398 639 OFFCURVE",
"482 743 CURVE",
"378 842 LINE",
"196 628 LINE"
);
}
);
width = 479;
}
);
leftKerningGroup = o;
rightKerningGroup = e;
unicode = 00E9;
},
{
glyphname = ecircumflex;
layers = (
{
layerId = "5DBF9900-19CD-41BF-A30E-BB0302EA3177";
paths = (
{
closed = 1;
nodes = (
"35 237 CURVE SMOOTH",
"35 91 OFFCURVE",
"97 -7 OFFCURVE",
"251 -7 CURVE SMOOTH",
"352 -7 OFFCURVE",
"439 39 OFFCURVE",
"439 39 CURVE",
"409 110 LINE",
"409 110 OFFCURVE",
"325 75 OFFCURVE",
"267 75 CURVE SMOOTH",
"188 75 OFFCURVE",
"163 126 OFFCURVE",
"156 188 CURVE",
"332 190 OFFCURVE",
"443 272 OFFCURVE",
"443 368 CURVE SMOOTH",
"443 448 OFFCURVE",
"395 510 OFFCURVE",
"276 510 CURVE SMOOTH",
"140 510 OFFCURVE",
"35 415 OFFCURVE"
);
},
{
closed = 1;
nodes = (
"267 432 CURVE SMOOTH",
"304 432 OFFCURVE",
"329 407 OFFCURVE",
"329 368 CURVE SMOOTH",
"329 321 OFFCURVE",
"280 265 OFFCURVE",
"153 260 CURVE",
"155 342 OFFCURVE",
"179 432 OFFCURVE"
);
},
{
closed = 1;
nodes = (
"119 538 LINE",
"118 538 OFFCURVE",
"187 576 OFFCURVE",
"264 642 CURVE",
"339 577 OFFCURVE",
"409 538 OFFCURVE",
"408 538 CURVE",
"451 592 LINE",
"264 779 LINE",
"76 592 LINE"
);
}
);
width = 473;
},
{
layerId = "EB17B230-7FBB-41DE-BCDE-73D8D15F9114";
paths = (
{
closed = 1;
nodes = (
"27 237 CURVE SMOOTH",
"27 90 OFFCURVE",
"92 -9 OFFCURVE",
"255 -9 CURVE SMOOTH",
"361 -9 OFFCURVE",
"452 36 OFFCURVE",
"452 36 CURVE",
"422 140 LINE",
"422 140 OFFCURVE",
"338 108 OFFCURVE",
"280 108 CURVE SMOOTH",
"230 108 OFFCURVE",
"207 135 OFFCURVE",
"198 175 CURVE",
"357 188 OFFCURVE",
"456 264 OFFCURVE",
"456 361 CURVE SMOOTH",
"456 447 OFFCURVE",
"406 512 OFFCURVE",
"281 512 CURVE SMOOTH",
"138 512 OFFCURVE",
"27 416 OFFCURVE"
);
},
{
closed = 1;
nodes = (
"261 399 CURVE SMOOTH",
"283 399 OFFCURVE",
"299 382 OFFCURVE",
"299 357 CURVE SMOOTH",
"299 325 OFFCURVE",
"269 278 OFFCURVE",
"190 276 CURVE",
"192 333 OFFCURVE",
"210 399 OFFCURVE"
);
},
{
closed = 1;
nodes = (
"126 557 LINE",
"154 571 OFFCURVE",
"202 595 OFFCURVE",
"260 639 CURVE",
"318 595 OFFCURVE",
"367 570 OFFCURVE",
"393 557 CURVE",
"454 631 LINE",
"260 828 LINE",
"65 631 LINE"
);
}
);
width = 479;
}
);
leftKerningGroup = o;
rightKerningGroup = e;
unicode = 00EA;
},
{
glyphname = edieresis;
layers = (
{
layerId = "5DBF9900-19CD-41BF-A30E-BB0302EA3177";
paths = (
{
closed = 1;
nodes = (
"35 237 CURVE SMOOTH",
"35 91 OFFCURVE",
"97 -7 OFFCURVE",
"251 -7 CURVE SMOOTH",
"352 -7 OFFCURVE",
"439 39 OFFCURVE",
"439 39 CURVE",
"409 110 LINE",
"409 110 OFFCURVE",
"325 75 OFFCURVE",
"267 75 CURVE SMOOTH",
"188 75 OFFCURVE",
"163 126 OFFCURVE",
"156 188 CURVE",
"332 190 OFFCURVE",
"443 272 OFFCURVE",
"443 368 CURVE SMOOTH",
"443 448 OFFCURVE",
"395 510 OFFCURVE",
"276 510 CURVE SMOOTH",
"140 510 OFFCURVE",
"35 415 OFFCURVE"
);
},
{
closed = 1;
nodes = (
"267 432 CURVE SMOOTH",
"304 432 OFFCURVE",
"329 407 OFFCURVE",
"329 368 CURVE SMOOTH",
"329 321 OFFCURVE",
"280 265 OFFCURVE",
"153 260 CURVE",
"155 342 OFFCURVE",
"179 432 OFFCURVE"
);
},
{
closed = 1;
nodes = (
"218 651 CURVE SMOOTH",
"218 687 OFFCURVE",
"196 714 OFFCURVE",
"157 714 CURVE SMOOTH",
"116 714 OFFCURVE",
"94 686 OFFCURVE",
"94 649 CURVE SMOOTH",
"94 615 OFFCURVE",
"116 587 OFFCURVE",
"154 587 CURVE SMOOTH",
"196 587 OFFCURVE",
"218 615 OFFCURVE"
);
},
{
closed = 1;
nodes = (
"418 651 CURVE SMOOTH",
"418 687 OFFCURVE",
"396 714 OFFCURVE",
"357 714 CURVE SMOOTH",
"315 714 OFFCURVE",
"293 686 OFFCURVE",
"293 649 CURVE SMOOTH",
"293 615 OFFCURVE",
"315 587 OFFCURVE",
"354 587 CURVE SMOOTH",
"396 587 OFFCURVE",
"418 615 OFFCURVE"
);
}
);
width = 473;
},
{
layerId = "EB17B230-7FBB-41DE-BCDE-73D8D15F9114";
paths = (
{
closed = 1;
nodes = (
"27 237 CURVE SMOOTH",
"27 90 OFFCURVE",
"92 -9 OFFCURVE",
"255 -9 CURVE SMOOTH",
"361 -9 OFFCURVE",
"452 36 OFFCURVE",
"452 36 CURVE",
"422 140 LINE",
"422 140 OFFCURVE",
"338 108 OFFCURVE",
"280 108 CURVE SMOOTH",
"230 108 OFFCURVE",
"207 135 OFFCURVE",
"198 175 CURVE",
"357 188 OFFCURVE",
"456 264 OFFCURVE",
"456 361 CURVE SMOOTH",
"456 447 OFFCURVE",
"406 512 OFFCURVE",
"281 512 CURVE SMOOTH",
"138 512 OFFCURVE",
"27 416 OFFCURVE"
);
},
{
closed = 1;
nodes = (
"261 399 CURVE SMOOTH",
"283 399 OFFCURVE",
"299 382 OFFCURVE",
"299 357 CURVE SMOOTH",
"299 325 OFFCURVE",
"269 278 OFFCURVE",
"190 276 CURVE",
"192 333 OFFCURVE",
"210 399 OFFCURVE"
);
},
{
closed = 1;
nodes = (
"231 667 CURVE SMOOTH",
"231 707 OFFCURVE",
"205 741 OFFCURVE",
"159 741 CURVE SMOOTH",
"109 741 OFFCURVE",
"84 707 OFFCURVE",
"84 663 CURVE SMOOTH",
"84 623 OFFCURVE",
"109 590 OFFCURVE",
"156 590 CURVE SMOOTH",
"205 590 OFFCURVE",
"231 623 OFFCURVE"
);
},
{
closed = 1;
nodes = (
"446 667 CURVE SMOOTH",
"446 707 OFFCURVE",
"420 741 OFFCURVE",
"374 741 CURVE SMOOTH",
"324 741 OFFCURVE",
"299 707 OFFCURVE",
"299 663 CURVE SMOOTH",
"299 623 OFFCURVE",
"324 590 OFFCURVE",
"371 590 CURVE SMOOTH",
"420 590 OFFCURVE",
"446 623 OFFCURVE"
);
}
);
width = 479;
}
);
leftKerningGroup = o;
rightKerningGroup = e;
unicode = 00EB;
},
{
glyphname = egrave;
layers = (
{
layerId = "5DBF9900-19CD-41BF-A30E-BB0302EA3177";
paths = (
{
closed = 1;
nodes = (
"35 237 CURVE SMOOTH",
"35 91 OFFCURVE",
"97 -7 OFFCURVE",
"251 -7 CURVE SMOOTH",
"352 -7 OFFCURVE",
"439 39 OFFCURVE",
"439 39 CURVE",
"409 110 LINE",
"409 110 OFFCURVE",
"325 75 OFFCURVE",
"267 75 CURVE SMOOTH",
"188 75 OFFCURVE",
"163 126 OFFCURVE",
"156 188 CURVE",
"332 190 OFFCURVE",
"443 272 OFFCURVE",
"443 368 CURVE SMOOTH",
"443 448 OFFCURVE",
"395 510 OFFCURVE",
"276 510 CURVE SMOOTH",
"140 510 OFFCURVE",
"35 415 OFFCURVE"
);
},
{
closed = 1;
nodes = (
"267 432 CURVE SMOOTH",
"304 432 OFFCURVE",
"329 407 OFFCURVE",
"329 368 CURVE SMOOTH",
"329 321 OFFCURVE",
"280 265 OFFCURVE",
"153 260 CURVE",
"155 342 OFFCURVE",
"179 432 OFFCURVE"
);
},
{
closed = 1;
nodes = (
"305 590 LINE",
"135 779 LINE",
"59 708 LINE",
"138 610 OFFCURVE",
"257 538 OFFCURVE",
"257 538 CURVE"
);
}
);
width = 473;
},
{
layerId = "EB17B230-7FBB-41DE-BCDE-73D8D15F9114";
paths = (
{
closed = 1;
nodes = (
"27 237 CURVE SMOOTH",
"27 90 OFFCURVE",
"92 -9 OFFCURVE",
"255 -9 CURVE SMOOTH",
"361 -9 OFFCURVE",
"452 36 OFFCURVE",
"452 36 CURVE",
"422 140 LINE",
"422 140 OFFCURVE",
"338 108 OFFCURVE",
"280 108 CURVE SMOOTH",
"230 108 OFFCURVE",
"207 135 OFFCURVE",
"198 175 CURVE",
"357 188 OFFCURVE",
"456 264 OFFCURVE",
"456 361 CURVE SMOOTH",
"456 447 OFFCURVE",
"406 512 OFFCURVE",
"281 512 CURVE SMOOTH",
"138 512 OFFCURVE",
"27 416 OFFCURVE"
);
},
{
closed = 1;
nodes = (
"261 399 CURVE SMOOTH",
"283 399 OFFCURVE",
"299 382 OFFCURVE",
"299 357 CURVE SMOOTH",
"299 325 OFFCURVE",
"269 278 OFFCURVE",
"190 276 CURVE",
"192 333 OFFCURVE",
"210 399 OFFCURVE"
);
},
{
closed = 1;
nodes = (
"333 628 LINE",
"150 842 LINE",
"46 743 LINE",
"130 639 OFFCURVE",
"255 565 OFFCURVE",
"266 557 CURVE"
);
}
);
width = 479;
}
);
leftKerningGroup = o;
rightKerningGroup = e;
unicode = 00E8;
},
{
glyphname = f;
layers = (
{
layerId = "5DBF9900-19CD-41BF-A30E-BB0302EA3177";
paths = (
{
closed = 1;
nodes = (
"377 680 LINE",
"356 703 OFFCURVE",
"324 722 OFFCURVE",
"272 722 CURVE SMOOTH",
"178 722 OFFCURVE",
"94 667 OFFCURVE",
"94 559 CURVE SMOOTH",
"94 541 OFFCURVE",
"96 518 OFFCURVE",
"101 498 CURVE",
"14 498 LINE",
"14 417 LINE",
"104 417 LINE",
"104 14 LINE SMOOTH",
"104 -28 OFFCURVE",
"100 -96 OFFCURVE",
"0 -147 CURVE",
"46 -223 LINE",
"126 -182 OFFCURVE",
"218 -134 OFFCURVE",
"218 25 CURVE SMOOTH",
"218 417 LINE",
"322 417 LINE",
"336 498 LINE",
"212 498 LINE",
"206 521 OFFCURVE",
"204 539 OFFCURVE",
"204 554 CURVE SMOOTH",
"204 624 OFFCURVE",
"255 634 OFFCURVE",
"280 634 CURVE SMOOTH",
"298 634 OFFCURVE",
"324 619 OFFCURVE",
"328 615 CURVE"
);
}
);
width = 352;
},
{
layerId = "EB17B230-7FBB-41DE-BCDE-73D8D15F9114";
paths = (
{
closed = 1;
nodes = (
"402 659 LINE",
"370 695 OFFCURVE",
"331 722 OFFCURVE",
"258 722 CURVE SMOOTH",
"154 722 OFFCURVE",
"80 665 OFFCURVE",
"80 567 CURVE SMOOTH",
"80 543 OFFCURVE",
"85 522 OFFCURVE",
"93 502 CURVE",
"16 502 LINE",
"16 382 LINE",
"93 382 LINE",
"93 14 LINE SMOOTH",
"93 -36 OFFCURVE",
"55 -73 OFFCURVE",
"-8 -106 CURVE",
"64 -223 LINE",
"148 -183 OFFCURVE",
"251 -136 OFFCURVE",
"251 17 CURVE SMOOTH",
"251 382 LINE",
"340 382 LINE",
"360 502 LINE",
"232 502 LINE",
"229 516 OFFCURVE",
"228 530 OFFCURVE",
"228 544 CURVE SMOOTH",
"228 582 OFFCURVE",
"253 604 OFFCURVE",
"283 604 CURVE SMOOTH",
"303 604 OFFCURVE",
"319 589 OFFCURVE",
"326 579 CURVE"
);
}
);
width = 369;
}
);
unicode = 0066;
},
{
glyphname = g;
layers = (
{
layerId = "5DBF9900-19CD-41BF-A30E-BB0302EA3177";
paths = (
{
closed = 1;
nodes = (
"112 -175 LINE",
"127 -184 OFFCURVE",
"216 -217 OFFCURVE",
"295 -217 CURVE SMOOTH",
"417 -217 OFFCURVE",
"495 -147 OFFCURVE",
"495 -7 CURVE SMOOTH",
"495 73 OFFCURVE",
"463 122 OFFCURVE",
"465 202 CURVE SMOOTH",
"470 477 LINE",
"425 488 OFFCURVE",
"339 506 OFFCURVE",
"274 506 CURVE SMOOTH",
"132 506 OFFCURVE",
"35 394 OFFCURVE",
"35 242 CURVE SMOOTH",
"35 92 OFFCURVE",
"94 -6 OFFCURVE",
"219 -6 CURVE SMOOTH",
"298 -6 OFFCURVE",
"346 30 OFFCURVE",
"369 98 CURVE",
"383 64 OFFCURVE",
"391 28 OFFCURVE",
"391 -7 CURVE SMOOTH",
"391 -77 OFFCURVE",
"359 -127 OFFCURVE",
"285 -127 CURVE SMOOTH",
"234 -127 OFFCURVE",
"179 -103 OFFCURVE",
"140 -88 CURVE"
);
},
{
closed = 1;
nodes = (
"238 74 CURVE SMOOTH",
"165 74 OFFCURVE",
"158 159 OFFCURVE",
"158 252 CURVE SMOOTH",
"158 353 OFFCURVE",
"187 426 OFFCURVE",
"287 426 CURVE SMOOTH",
"308 426 OFFCURVE",
"340 419 OFFCURVE",
"353 415 CURVE",
"353 263 LINE SMOOTH",
"353 167 OFFCURVE",
"301 74 OFFCURVE"
);
}
);
width = 531;
},
{
layerId = "EB17B230-7FBB-41DE-BCDE-73D8D15F9114";
paths = (
{
closed = 1;
nodes = (
"98 -173 LINE",
"160 -199 OFFCURVE",
"230 -215 OFFCURVE",
"291 -215 CURVE SMOOTH",
"426 -215 OFFCURVE",
"512 -136 OFFCURVE",
"512 3 CURVE SMOOTH",
"512 89 OFFCURVE",
"475 146 OFFCURVE",
"476 231 CURVE SMOOTH",
"480 480 LINE",
"461 485 OFFCURVE",
"358 509 OFFCURVE",
"278 509 CURVE SMOOTH",
"129 509 OFFCURVE",
"27 396 OFFCURVE",
"27 243 CURVE SMOOTH",
"27 93 OFFCURVE",
"89 -6 OFFCURVE",
"220 -6 CURVE SMOOTH",
"290 -6 OFFCURVE",
"333 29 OFFCURVE",
"356 88 CURVE",
"365 65 OFFCURVE",
"370 36 OFFCURVE",
"370 6 CURVE SMOOTH",
"370 -51 OFFCURVE",
"334 -83 OFFCURVE",
"281 -83 CURVE SMOOTH",
"232 -83 OFFCURVE",
"193 -71 OFFCURVE",
"135 -51 CURVE"
);
},
{
closed = 1;
nodes = (
"246 110 CURVE SMOOTH",
"198 110 OFFCURVE",
"195 179 OFFCURVE",
"195 253 CURVE SMOOTH",
"195 334 OFFCURVE",
"213 393 OFFCURVE",
"278 393 CURVE SMOOTH",
"290 393 OFFCURVE",
"310 389 OFFCURVE",
"319 385 CURVE",
"319 276 LINE SMOOTH",
"319 189 OFFCURVE",
"288 110 OFFCURVE"
);
}
);
width = 539;
}
);
leftKerningGroup = o;
unicode = 0067;
},
{
glyphname = h;
layers = (
{
layerId = "5DBF9900-19CD-41BF-A30E-BB0302EA3177";
paths = (
{
closed = 1;
nodes = (
"179 725 LINE",
"65 705 LINE",
"65 0 LINE",
"179 0 LINE",
"179 264 LINE SMOOTH",
"179 355 OFFCURVE",
"245 417 OFFCURVE",
"300 417 CURVE SMOOTH",
"348 417 OFFCURVE",
"366 382 OFFCURVE",
"366 326 CURVE SMOOTH",
"366 0 LINE",
"480 0 LINE",
"480 334 LINE SMOOTH",
"480 440 OFFCURVE",
"437 506 OFFCURVE",
"334 506 CURVE SMOOTH",
"275 506 OFFCURVE",
"217 485 OFFCURVE",
"179 434 CURVE"
);
}
);
width = 540;
},
{
layerId = "EB17B230-7FBB-41DE-BCDE-73D8D15F9114";
paths = (
{
closed = 1;
nodes = (
"215 725 LINE",
"57 698 LINE",
"57 0 LINE",
"215 0 LINE",
"215 264 LINE SMOOTH",
"215 342 OFFCURVE",
"256 390 OFFCURVE",
"291 390 CURVE SMOOTH",
"322 390 OFFCURVE",
"331 359 OFFCURVE",
"331 312 CURVE SMOOTH",
"331 0 LINE",
"490 0 LINE",
"490 335 LINE SMOOTH",
"490 441 OFFCURVE",
"450 509 OFFCURVE",
"346 509 CURVE SMOOTH",
"297 509 OFFCURVE",
"250 495 OFFCURVE",
"215 464 CURVE"
);
}
);
width = 542;
}
);
leftKerningGroup = h;
rightKerningGroup = n;
unicode = 0068;
},
{
glyphname = i;
layers = (
{
layerId = "5DBF9900-19CD-41BF-A30E-BB0302EA3177";
paths = (
{
closed = 1;
nodes = (
"170 -4 CURVE SMOOTH",
"217 -4 OFFCURVE",
"241 10 OFFCURVE",
"241 10 CURVE",
"229 82 LINE",
"229 82 OFFCURVE",
"213 80 OFFCURVE",
"203 80 CURVE SMOOTH",
"184 80 OFFCURVE",
"175 89 OFFCURVE",
"175 119 CURVE SMOOTH",
"175 498 LINE",
"61 498 LINE",
"61 109 LINE SMOOTH",
"61 43 OFFCURVE",
"100 -4 OFFCURVE"
);
},
{
closed = 1;
nodes = (
"120 720 CURVE SMOOTH",
"74 720 OFFCURVE",
"50 690 OFFCURVE",
"50 649 CURVE SMOOTH",
"50 612 OFFCURVE",
"74 582 OFFCURVE",
"117 582 CURVE SMOOTH",
"162 582 OFFCURVE",
"186 612 OFFCURVE",
"186 652 CURVE SMOOTH",
"186 692 OFFCURVE",
"162 720 OFFCURVE"
);
}
);
width = 256;
},
{
layerId = "EB17B230-7FBB-41DE-BCDE-73D8D15F9114";
paths = (
{
closed = 1;
nodes = (
"179 -4 CURVE SMOOTH",
"233 -4 OFFCURVE",
"276 18 OFFCURVE",
"278 20 CURVE",
"264 119 LINE",
"261 118 OFFCURVE",
"248 115 OFFCURVE",
"238 115 CURVE SMOOTH",
"219 115 OFFCURVE",
"210 124 OFFCURVE",
"210 154 CURVE SMOOTH",
"210 502 LINE",
"52 502 LINE",
"52 109 LINE SMOOTH",
"52 38 OFFCURVE",
"104 -4 OFFCURVE"
);
},
{
closed = 1;
nodes = (
"133 743 CURVE SMOOTH",
"73 743 OFFCURVE",
"42 703 OFFCURVE",
"42 650 CURVE SMOOTH",
"42 603 OFFCURVE",
"73 564 OFFCURVE",
"129 564 CURVE SMOOTH",
"188 564 OFFCURVE",
"219 603 OFFCURVE",
"219 655 CURVE SMOOTH",
"219 705 OFFCURVE",
"188 743 OFFCURVE"
);
}
);
width = 285;
}
);
leftKerningGroup = i;
rightKerningGroup = i;
unicode = 0069;
},
{
glyphname = dotlessi;
layers = (
{
anchors = (
{
name = topdotlessi;
position = "{107, 506}";
}
);
layerId = "5DBF9900-19CD-41BF-A30E-BB0302EA3177";
paths = (
{
closed = 1;
nodes = (
"159 -4 CURVE SMOOTH",
"206 -4 OFFCURVE",
"230 10 OFFCURVE",
"230 10 CURVE",
"218 82 LINE",
"218 82 OFFCURVE",
"202 80 OFFCURVE",
"192 80 CURVE SMOOTH",
"173 80 OFFCURVE",
"164 89 OFFCURVE",
"164 119 CURVE SMOOTH",
"164 498 LINE",
"50 498 LINE",
"50 109 LINE SMOOTH",
"50 43 OFFCURVE",
"89 -4 OFFCURVE"
);
}
);
width = 245;
},
{
anchors = (
{
name = topdotlessi;
position = "{107, 506}";
}
);
layerId = "EB17B230-7FBB-41DE-BCDE-73D8D15F9114";
paths = (
{
closed = 1;
nodes = (
"169 -4 CURVE SMOOTH",
"223 -4 OFFCURVE",
"266 18 OFFCURVE",
"268 20 CURVE",
"254 119 LINE",
"252 118 OFFCURVE",
"238 115 OFFCURVE",
"228 115 CURVE SMOOTH",
"209 115 OFFCURVE",
"200 124 OFFCURVE",
"200 154 CURVE SMOOTH",
"200 502 LINE",
"42 502 LINE",
"42 109 LINE SMOOTH",
"42 38 OFFCURVE",
"94 -4 OFFCURVE"
);
}
);
width = 276;
}
);
leftKerningGroup = i;
rightKerningGroup = i;
unicode = 0131;
},
{
glyphname = iacute;
layers = (
{
layerId = "5DBF9900-19CD-41BF-A30E-BB0302EA3177";
paths = (
{
closed = 1;
nodes = (
"159 -4 CURVE SMOOTH",
"206 -4 OFFCURVE",
"230 10 OFFCURVE",
"230 10 CURVE",
"218 82 LINE",
"218 82 OFFCURVE",
"202 80 OFFCURVE",
"192 80 CURVE SMOOTH",
"173 80 OFFCURVE",
"164 89 OFFCURVE",
"164 119 CURVE SMOOTH",
"164 498 LINE",
"50 498 LINE",
"50 109 LINE SMOOTH",
"50 43 OFFCURVE",
"89 -4 OFFCURVE"
);
},
{
closed = 1;
nodes = (
"104 539 LINE",
"104 539 OFFCURVE",
"196 615 OFFCURVE",
"275 713 CURVE",
"196 780 LINE",
"56 590 LINE"
);
}
);
width = 245;
},
{
layerId = "EB17B230-7FBB-41DE-BCDE-73D8D15F9114";
paths = (
{
closed = 1;
nodes = (
"169 -4 CURVE SMOOTH",
"223 -4 OFFCURVE",
"266 18 OFFCURVE",
"268 20 CURVE",
"254 119 LINE",
"252 118 OFFCURVE",
"238 115 OFFCURVE",
"228 115 CURVE SMOOTH",
"209 115 OFFCURVE",
"200 124 OFFCURVE",
"200 154 CURVE SMOOTH",
"200 502 LINE",
"42 502 LINE",
"42 109 LINE SMOOTH",
"42 38 OFFCURVE",
"94 -4 OFFCURVE"
);
},
{
closed = 1;
nodes = (
"110 540 LINE",
"110 540 OFFCURVE",
"208 622 OFFCURVE",
"293 727 CURVE",
"188 825 LINE",
"43 611 LINE"
);
}
);
width = 276;
}
);
leftKerningGroup = i;
rightKerningGroup = i;
unicode = 00ED;
},
{
glyphname = icircumflex;
layers = (
{
layerId = "5DBF9900-19CD-41BF-A30E-BB0302EA3177";
paths = (
{
closed = 1;
nodes = (
"159 -4 CURVE SMOOTH",
"206 -4 OFFCURVE",
"230 10 OFFCURVE",
"230 10 CURVE",
"218 82 LINE",
"218 82 OFFCURVE",
"202 80 OFFCURVE",
"192 80 CURVE SMOOTH",
"173 80 OFFCURVE",
"164 89 OFFCURVE",
"164 119 CURVE SMOOTH",
"164 498 LINE",
"50 498 LINE",
"50 109 LINE SMOOTH",
"50 43 OFFCURVE",
"89 -4 OFFCURVE"
);
},
{
closed = 1;
nodes = (
"106 641 CURVE",
"176 577 OFFCURVE",
"216 550 OFFCURVE",
"230 539 CURVE",
"277 589 LINE",
"106 781 LINE",
"-64 589 LINE",
"-18 539 LINE",
"-1 552 OFFCURVE",
"35 576 OFFCURVE"
);
}
);
width = 245;
},
{
layerId = "EB17B230-7FBB-41DE-BCDE-73D8D15F9114";
paths = (
{
closed = 1;
nodes = (
"169 -4 CURVE SMOOTH",
"223 -4 OFFCURVE",
"266 18 OFFCURVE",
"268 20 CURVE",
"254 119 LINE",
"252 118 OFFCURVE",
"238 115 OFFCURVE",
"228 115 CURVE SMOOTH",
"209 115 OFFCURVE",
"200 124 OFFCURVE",
"200 154 CURVE SMOOTH",
"200 502 LINE",
"42 502 LINE",
"42 109 LINE SMOOTH",
"42 38 OFFCURVE",
"94 -4 OFFCURVE"
);
},
{
closed = 1;
nodes = (
"122 620 CURVE",
"167 584 OFFCURVE",
"206 559 OFFCURVE",
"243 537 CURVE",
"305 610 LINE",
"122 794 LINE",
"-61 610 LINE",
"1 537 LINE",
"39 559 OFFCURVE",
"77 584 OFFCURVE"
);
}
);
width = 276;
}
);
leftKerningGroup = i;
rightKerningGroup = i;
unicode = 00EE;
},
{
glyphname = idieresis;
layers = (
{
layerId = "5DBF9900-19CD-41BF-A30E-BB0302EA3177";
paths = (
{
closed = 1;
nodes = (
"159 -4 CURVE SMOOTH",
"206 -4 OFFCURVE",
"230 10 OFFCURVE",
"230 10 CURVE",
"218 82 LINE",
"218 82 OFFCURVE",
"202 80 OFFCURVE",
"192 80 CURVE SMOOTH",
"173 80 OFFCURVE",
"164 89 OFFCURVE",
"164 119 CURVE SMOOTH",
"164 498 LINE",
"50 498 LINE",
"50 109 LINE SMOOTH",
"50 43 OFFCURVE",
"89 -4 OFFCURVE"
);
},
{
closed = 1;
nodes = (
"83 646 CURVE SMOOTH",
"83 680 OFFCURVE",
"62 705 OFFCURVE",
"25 705 CURVE SMOOTH",
"-14 705 OFFCURVE",
"-35 679 OFFCURVE",
"-35 643 CURVE SMOOTH",
"-35 611 OFFCURVE",
"-14 584 OFFCURVE",
"22 584 CURVE SMOOTH",
"62 584 OFFCURVE",
"83 611 OFFCURVE"
);
},
{
closed = 1;
nodes = (
"249 646 CURVE SMOOTH",
"249 680 OFFCURVE",
"228 705 OFFCURVE",
"191 705 CURVE SMOOTH",
"151 705 OFFCURVE",
"130 679 OFFCURVE",
"130 643 CURVE SMOOTH",
"130 611 OFFCURVE",
"151 584 OFFCURVE",
"188 584 CURVE SMOOTH",
"228 584 OFFCURVE",
"249 611 OFFCURVE"
);
}
);
width = 245;
},
{
layerId = "EB17B230-7FBB-41DE-BCDE-73D8D15F9114";
paths = (
{
closed = 1;
nodes = (
"169 -4 CURVE SMOOTH",
"223 -4 OFFCURVE",
"266 18 OFFCURVE",
"268 20 CURVE",
"254 119 LINE",
"252 118 OFFCURVE",
"238 115 OFFCURVE",
"228 115 CURVE SMOOTH",
"209 115 OFFCURVE",
"200 124 OFFCURVE",
"200 154 CURVE SMOOTH",
"200 502 LINE",
"42 502 LINE",
"42 109 LINE SMOOTH",
"42 38 OFFCURVE",
"94 -4 OFFCURVE"
);
},
{
closed = 1;
nodes = (
"109 647 CURVE SMOOTH",
"109 687 OFFCURVE",
"83 721 OFFCURVE",
"37 721 CURVE SMOOTH",
"-12 721 OFFCURVE",
"-37 687 OFFCURVE",
"-37 644 CURVE SMOOTH",
"-37 604 OFFCURVE",
"-12 571 OFFCURVE",
"34 571 CURVE SMOOTH",
"83 571 OFFCURVE",
"109 604 OFFCURVE"
);
},
{
closed = 1;
nodes = (
"282 647 CURVE SMOOTH",
"282 687 OFFCURVE",
"257 721 OFFCURVE",
"211 721 CURVE SMOOTH",
"162 721 OFFCURVE",
"136 687 OFFCURVE",
"136 644 CURVE SMOOTH",
"136 604 OFFCURVE",
"162 571 OFFCURVE",
"208 571 CURVE SMOOTH",
"257 571 OFFCURVE",
"282 604 OFFCURVE"
);
}
);
width = 276;
}
);
leftKerningGroup = i;
rightKerningGroup = i;
unicode = 00EF;
},
{
glyphname = igrave;
layers = (
{
layerId = "5DBF9900-19CD-41BF-A30E-BB0302EA3177";
paths = (
{
closed = 1;
nodes = (
"159 -4 CURVE SMOOTH",
"206 -4 OFFCURVE",
"230 10 OFFCURVE",
"230 10 CURVE",
"218 82 LINE",
"218 82 OFFCURVE",
"202 80 OFFCURVE",
"192 80 CURVE SMOOTH",
"173 80 OFFCURVE",
"164 89 OFFCURVE",
"164 119 CURVE SMOOTH",
"164 498 LINE",
"50 498 LINE",
"50 109 LINE SMOOTH",
"50 43 OFFCURVE",
"89 -4 OFFCURVE"
);
},
{
closed = 1;
nodes = (
"154 590 LINE",
"15 780 LINE",
"-65 713 LINE",
"14 615 OFFCURVE",
"106 539 OFFCURVE",
"106 539 CURVE"
);
}
);
width = 245;
},
{
layerId = "EB17B230-7FBB-41DE-BCDE-73D8D15F9114";
paths = (
{
closed = 1;
nodes = (
"169 -4 CURVE SMOOTH",
"223 -4 OFFCURVE",
"266 18 OFFCURVE",
"268 20 CURVE",
"254 119 LINE",
"252 118 OFFCURVE",
"238 115 OFFCURVE",
"228 115 CURVE SMOOTH",
"209 115 OFFCURVE",
"200 124 OFFCURVE",
"200 154 CURVE SMOOTH",
"200 502 LINE",
"42 502 LINE",
"42 109 LINE SMOOTH",
"42 38 OFFCURVE",
"94 -4 OFFCURVE"
);
},
{
closed = 1;
nodes = (
"188 611 LINE",
"42 825 LINE",
"-62 727 LINE",
"22 622 OFFCURVE",
"121 540 OFFCURVE",
"121 540 CURVE"
);
}
);
width = 276;
}
);
leftKerningGroup = i;
rightKerningGroup = i;
unicode = 00EC;
},
{
glyphname = j;
layers = (
{
layerId = "5DBF9900-19CD-41BF-A30E-BB0302EA3177";
paths = (
{
closed = 1;
nodes = (
"65 13 LINE SMOOTH",
"65 -28 OFFCURVE",
"60 -96 OFFCURVE",
"-39 -147 CURVE",
"7 -223 LINE",
"86 -182 OFFCURVE",
"179 -135 OFFCURVE",
"179 24 CURVE SMOOTH",
"179 498 LINE",
"65 498 LINE"
);
},
{
closed = 1;
nodes = (
"123 720 CURVE SMOOTH",
"78 720 OFFCURVE",
"54 690 OFFCURVE",
"54 649 CURVE SMOOTH",
"54 612 OFFCURVE",
"78 582 OFFCURVE",
"120 582 CURVE SMOOTH",
"166 582 OFFCURVE",
"190 612 OFFCURVE",
"190 652 CURVE SMOOTH",
"190 692 OFFCURVE",
"166 720 OFFCURVE"
);
}
);
width = 244;
},
{
layerId = "EB17B230-7FBB-41DE-BCDE-73D8D15F9114";
paths = (
{
closed = 1;
nodes = (
"60 41 LINE SMOOTH",
"60 -18 OFFCURVE",
"46 -68 OFFCURVE",
"-40 -115 CURVE",
"26 -223 LINE",
"137 -169 OFFCURVE",
"217 -106 OFFCURVE",
"217 43 CURVE SMOOTH",
"217 502 LINE",
"60 502 LINE"
);
},
{
closed = 1;
nodes = (
"140 743 CURVE SMOOTH",
"81 743 OFFCURVE",
"50 703 OFFCURVE",
"50 650 CURVE SMOOTH",
"50 603 OFFCURVE",
"81 564 OFFCURVE",
"137 564 CURVE SMOOTH",
"196 564 OFFCURVE",
"227 603 OFFCURVE",
"227 655 CURVE SMOOTH",
"227 705 OFFCURVE",
"196 743 OFFCURVE"
);
}
);
width = 273;
}
);
unicode = 006A;
},
{
glyphname = k;
layers = (
{
layerId = "5DBF9900-19CD-41BF-A30E-BB0302EA3177";
paths = (
{
closed = 1;
nodes = (
"65 705 LINE",
"65 0 LINE",
"179 0 LINE",
"179 321 LINE SMOOTH",
"179 330 OFFCURVE",
"201 426 OFFCURVE",
"302 426 CURVE SMOOTH",
"339 426 OFFCURVE",
"364 406 OFFCURVE",
"364 367 CURVE SMOOTH",
"364 295 OFFCURVE",
"248 264 OFFCURVE",
"226 259 CURVE",
"227 249 LINE",
"371 0 LINE",
"500 0 LINE",
"360 223 LINE",
"360 223 OFFCURVE",
"480 257 OFFCURVE",
"480 375 CURVE SMOOTH",
"480 458 OFFCURVE",
"416 507 OFFCURVE",
"333 507 CURVE SMOOTH",
"245 507 OFFCURVE",
"200 466 OFFCURVE",
"179 440 CURVE",
"179 725 LINE"
);
}
);
width = 520;
},
{
layerId = "EB17B230-7FBB-41DE-BCDE-73D8D15F9114";
paths = (
{
closed = 1;
nodes = (
"57 698 LINE",
"57 0 LINE",
"215 0 LINE",
"215 310 LINE SMOOTH",
"215 325 OFFCURVE",
"233 393 OFFCURVE",
"295 393 CURVE SMOOTH",
"319 393 OFFCURVE",
"336 376 OFFCURVE",
"336 345 CURVE SMOOTH",
"336 288 OFFCURVE",
"258 268 OFFCURVE",
"239 265 CURVE",
"240 250 LINE",
"253 180 OFFCURVE",
"290 98 OFFCURVE",
"348 0 CURVE",
"528 0 LINE",
"388 223 LINE",
"388 223 OFFCURVE",
"493 257 OFFCURVE",
"493 376 CURVE SMOOTH",
"493 459 OFFCURVE",
"429 509 OFFCURVE",
"346 509 CURVE SMOOTH",
"280 509 OFFCURVE",
"240 486 OFFCURVE",
"215 463 CURVE",
"215 725 LINE"
);
}
);
width = 537;
}
);
leftKerningGroup = h;
unicode = 006B;
},
{
glyphname = l;
layers = (
{
layerId = "5DBF9900-19CD-41BF-A30E-BB0302EA3177";
paths = (
{
closed = 1;
nodes = (
"171 -4 CURVE SMOOTH",
"235 -4 OFFCURVE",
"276 14 OFFCURVE",
"276 14 CURVE",
"262 86 LINE",
"262 86 OFFCURVE",
"236 78 OFFCURVE",
"209 78 CURVE SMOOTH",
"186 78 OFFCURVE",
"174 89 OFFCURVE",
"174 119 CURVE SMOOTH",
"174 726 LINE",
"60 705 LINE",
"60 108 LINE SMOOTH",
"60 43 OFFCURVE",
"96 -4 OFFCURVE"
);
}
);
width = 291;
},
{
layerId = "EB17B230-7FBB-41DE-BCDE-73D8D15F9114";
paths = (
{
closed = 1;
nodes = (
"184 -4 CURVE SMOOTH",
"242 -4 OFFCURVE",
"294 13 OFFCURVE",
"314 22 CURVE",
"299 121 LINE",
"284 118 OFFCURVE",
"264 115 OFFCURVE",
"250 115 CURVE SMOOTH",
"220 115 OFFCURVE",
"210 126 OFFCURVE",
"210 158 CURVE SMOOTH",
"210 725 LINE",
"52 698 LINE",
"52 124 LINE SMOOTH",
"52 53 OFFCURVE",
"92 -4 OFFCURVE"
);
}
);
width = 321;
}
);
unicode = 006C;
},
{
glyphname = m;
layers = (
{
layerId = "5DBF9900-19CD-41BF-A30E-BB0302EA3177";
paths = (
{
closed = 1;
nodes = (
"749 0 LINE",
"749 334 LINE SMOOTH",
"749 437 OFFCURVE",
"716 506 OFFCURVE",
"612 506 CURVE SMOOTH",
"550 506 OFFCURVE",
"489 479 OFFCURVE",
"453 413 CURVE",
"435 467 OFFCURVE",
"399 506 OFFCURVE",
"331 506 CURVE SMOOTH",
"264 506 OFFCURVE",
"197 473 OFFCURVE",
"164 393 CURVE",
"152 464 OFFCURVE",
"115 501 OFFCURVE",
"115 501 CURVE",
"25 465 LINE",
"25 465 OFFCURVE",
"74 411 OFFCURVE",
"74 252 CURVE SMOOTH",
"74 0 LINE",
"188 0 LINE",
"188 248 LINE SMOOTH",
"188 353 OFFCURVE",
"243 417 OFFCURVE",
"297 417 CURVE SMOOTH",
"340 417 OFFCURVE",
"355 382 OFFCURVE",
"355 326 CURVE SMOOTH",
"355 0 LINE",
"468 0 LINE",
"468 266 LINE SMOOTH",
"468 358 OFFCURVE",
"528 417 OFFCURVE",
"578 417 CURVE SMOOTH",
"621 417 OFFCURVE",
"636 382 OFFCURVE",
"636 326 CURVE SMOOTH",
"636 0 LINE"
);
}
);
width = 809;
},
{
layerId = "EB17B230-7FBB-41DE-BCDE-73D8D15F9114";
paths = (
{
closed = 1;
nodes = (
"745 0 LINE",
"745 335 LINE SMOOTH",
"745 440 OFFCURVE",
"712 509 OFFCURVE",
"609 509 CURVE SMOOTH",
"551 509 OFFCURVE",
"502 489 OFFCURVE",
"467 441 CURVE",
"445 485 OFFCURVE",
"409 509 OFFCURVE",
"351 509 CURVE SMOOTH",
"282 509 OFFCURVE",
"222 480 OFFCURVE",
"190 418 CURVE",
"175 477 OFFCURVE",
"144 509 OFFCURVE",
"144 509 CURVE",
"17 469 LINE",
"17 469 OFFCURVE",
"72 418 OFFCURVE",
"72 260 CURVE SMOOTH",
"72 0 LINE",
"230 0 LINE",
"230 259 LINE SMOOTH",
"230 339 OFFCURVE",
"263 390 OFFCURVE",
"296 390 CURVE SMOOTH",
"325 390 OFFCURVE",
"329 359 OFFCURVE",
"329 312 CURVE SMOOTH",
"329 0 LINE",
"488 0 LINE",
"488 264 LINE SMOOTH",
"488 340 OFFCURVE",
"522 390 OFFCURVE",
"554 390 CURVE SMOOTH",
"582 390 OFFCURVE",
"587 359 OFFCURVE",
"587 312 CURVE SMOOTH",
"587 0 LINE"
);
}
);
width = 798;
}
);
leftKerningGroup = n;
rightKerningGroup = n;
unicode = 006D;
},
{
glyphname = n;
layers = (
{
anchors = (
{
name = top;
position = "{319, 506}";
}
);
layerId = "5DBF9900-19CD-41BF-A30E-BB0302EA3177";
paths = (
{
closed = 1;
nodes = (
"488 0 LINE",
"488 334 LINE SMOOTH",
"488 439 OFFCURVE",
"445 506 OFFCURVE",
"342 506 CURVE SMOOTH",
"270 506 OFFCURVE",
"199 473 OFFCURVE",
"164 393 CURVE",
"153 464 OFFCURVE",
"115 501 OFFCURVE",
"115 501 CURVE",
"25 465 LINE",
"25 465 OFFCURVE",
"74 411 OFFCURVE",
"74 252 CURVE SMOOTH",
"74 0 LINE",
"188 0 LINE",
"188 247 LINE SMOOTH",
"188 352 OFFCURVE",
"249 416 OFFCURVE",
"309 416 CURVE SMOOTH",
"357 416 OFFCURVE",
"375 379 OFFCURVE",
"375 323 CURVE SMOOTH",
"375 0 LINE"
);
}
);
width = 549;
},
{
anchors = (
{
name = top;
position = "{319, 506}";
}
);
layerId = "EB17B230-7FBB-41DE-BCDE-73D8D15F9114";
paths = (
{
closed = 1;
nodes = (
"505 0 LINE",
"505 335 LINE SMOOTH",
"505 440 OFFCURVE",
"465 509 OFFCURVE",
"361 509 CURVE SMOOTH",
"290 509 OFFCURVE",
"225 480 OFFCURVE",
"190 418 CURVE",
"176 477 OFFCURVE",
"144 509 OFFCURVE",
"144 509 CURVE",
"17 469 LINE",
"17 469 OFFCURVE",
"72 418 OFFCURVE",
"72 260 CURVE SMOOTH",
"72 0 LINE",
"230 0 LINE",
"230 251 LINE SMOOTH",
"230 338 OFFCURVE",
"269 390 OFFCURVE",
"306 390 CURVE SMOOTH",
"337 390 OFFCURVE",
"346 358 OFFCURVE",
"346 312 CURVE SMOOTH",
"346 0 LINE"
);
}
);
width = 557;
}
);
leftKerningGroup = n;
rightKerningGroup = n;
unicode = 006E;
},
{
glyphname = ntilde;
layers = (
{
layerId = "5DBF9900-19CD-41BF-A30E-BB0302EA3177";
paths = (
{
closed = 1;
nodes = (
"488 0 LINE",
"488 334 LINE SMOOTH",
"488 439 OFFCURVE",
"445 506 OFFCURVE",
"342 506 CURVE SMOOTH",
"270 506 OFFCURVE",
"199 473 OFFCURVE",
"164 393 CURVE",
"153 464 OFFCURVE",
"115 501 OFFCURVE",
"115 501 CURVE",
"25 465 LINE",
"25 465 OFFCURVE",
"74 411 OFFCURVE",
"74 252 CURVE SMOOTH",
"74 0 LINE",
"188 0 LINE",
"188 247 LINE SMOOTH",
"188 352 OFFCURVE",
"249 416 OFFCURVE",
"309 416 CURVE SMOOTH",
"357 416 OFFCURVE",
"375 379 OFFCURVE",
"375 323 CURVE SMOOTH",
"375 0 LINE"
);
},
{
closed = 1;
nodes = (
"157 589 LINE",
"157 589 OFFCURVE",
"191 603 OFFCURVE",
"236 603 CURVE SMOOTH",
"285 603 OFFCURVE",
"340 583 OFFCURVE",
"389 583 CURVE SMOOTH",
"434 583 OFFCURVE",
"469 606 OFFCURVE",
"469 606 CURVE",
"469 680 LINE",
"469 680 OFFCURVE",
"434 666 OFFCURVE",
"389 666 CURVE SMOOTH",
"340 666 OFFCURVE",
"285 686 OFFCURVE",
"236 686 CURVE SMOOTH",
"191 686 OFFCURVE",
"157 663 OFFCURVE",
"157 663 CURVE"
);
}
);
width = 549;
},
{
layerId = "EB17B230-7FBB-41DE-BCDE-73D8D15F9114";
paths = (
{
closed = 1;
nodes = (
"505 0 LINE",
"505 335 LINE SMOOTH",
"505 440 OFFCURVE",
"465 509 OFFCURVE",
"361 509 CURVE SMOOTH",
"290 509 OFFCURVE",
"225 480 OFFCURVE",
"190 418 CURVE",
"176 477 OFFCURVE",
"144 509 OFFCURVE",
"144 509 CURVE",
"17 469 LINE",
"17 469 OFFCURVE",
"72 418 OFFCURVE",
"72 260 CURVE SMOOTH",
"72 0 LINE",
"230 0 LINE",
"230 251 LINE SMOOTH",
"230 338 OFFCURVE",
"269 390 OFFCURVE",
"306 390 CURVE SMOOTH",
"337 390 OFFCURVE",
"346 358 OFFCURVE",
"346 312 CURVE SMOOTH",
"346 0 LINE"
);
},
{
closed = 1;
nodes = (
"170 586 LINE",
"170 586 OFFCURVE",
"209 600 OFFCURVE",
"258 600 CURVE SMOOTH",
"310 600 OFFCURVE",
"365 580 OFFCURVE",
"418 580 CURVE SMOOTH",
"467 580 OFFCURVE",
"498 603 OFFCURVE",
"498 603 CURVE",
"498 703 LINE",
"498 703 OFFCURVE",
"467 689 OFFCURVE",
"418 689 CURVE SMOOTH",
"365 689 OFFCURVE",
"310 709 OFFCURVE",
"258 709 CURVE SMOOTH",
"209 709 OFFCURVE",
"170 686 OFFCURVE",
"170 686 CURVE"
);
}
);
width = 557;
}
);
leftKerningGroup = n;
rightKerningGroup = n;
unicode = 00F1;
},
{
glyphname = o;
layers = (
{
anchors = (
{
name = top;
position = "{257, 506}";
}
);
layerId = "5DBF9900-19CD-41BF-A30E-BB0302EA3177";
paths = (
{
closed = 1;
nodes = (
"263 510 CURVE SMOOTH",
"110 510 OFFCURVE",
"35 395 OFFCURVE",
"35 244 CURVE SMOOTH",
"35 86 OFFCURVE",
"101 -10 OFFCURVE",
"254 -10 CURVE SMOOTH",
"407 -10 OFFCURVE",
"482 105 OFFCURVE",
"482 255 CURVE SMOOTH",
"482 414 OFFCURVE",
"416 510 OFFCURVE"
);
},
{
closed = 1;
nodes = (
"253 426 CURVE SMOOTH",
"339 426 OFFCURVE",
"359 345 OFFCURVE",
"359 245 CURVE SMOOTH",
"359 149 OFFCURVE",
"341 74 OFFCURVE",
"264 74 CURVE SMOOTH",
"178 74 OFFCURVE",
"158 155 OFFCURVE",
"158 254 CURVE SMOOTH",
"158 351 OFFCURVE",
"176 426 OFFCURVE"
);
}
);
width = 517;
},
{
anchors = (
{
name = top;
position = "{257, 506}";
}
);
layerId = "EB17B230-7FBB-41DE-BCDE-73D8D15F9114";
paths = (
{
closed = 1;
nodes = (
"264 512 CURVE SMOOTH",
"105 512 OFFCURVE",
"27 397 OFFCURVE",
"27 245 CURVE SMOOTH",
"27 87 OFFCURVE",
"96 -10 OFFCURVE",
"256 -10 CURVE SMOOTH",
"414 -10 OFFCURVE",
"492 105 OFFCURVE",
"492 256 CURVE SMOOTH",
"492 416 OFFCURVE",
"423 512 OFFCURVE"
);
},
{
closed = 1;
nodes = (
"255 393 CURVE SMOOTH",
"312 393 OFFCURVE",
"325 328 OFFCURVE",
"325 246 CURVE SMOOTH",
"325 171 OFFCURVE",
"314 109 OFFCURVE",
"265 109 CURVE SMOOTH",
"208 109 OFFCURVE",
"195 175 OFFCURVE",
"195 256 CURVE SMOOTH",
"195 333 OFFCURVE",
"206 393 OFFCURVE"
);
}
);
width = 520;
}
);
leftKerningGroup = o;
rightKerningGroup = o;
unicode = 006F;
},
{
glyphname = oacute;
layers = (
{
layerId = "5DBF9900-19CD-41BF-A30E-BB0302EA3177";
paths = (
{
closed = 1;
nodes = (
"263 510 CURVE SMOOTH",
"110 510 OFFCURVE",
"35 395 OFFCURVE",
"35 244 CURVE SMOOTH",
"35 86 OFFCURVE",
"101 -10 OFFCURVE",
"254 -10 CURVE SMOOTH",
"407 -10 OFFCURVE",
"482 105 OFFCURVE",
"482 255 CURVE SMOOTH",
"482 414 OFFCURVE",
"416 510 OFFCURVE"
);
},
{
closed = 1;
nodes = (
"253 426 CURVE SMOOTH",
"339 426 OFFCURVE",
"359 345 OFFCURVE",
"359 245 CURVE SMOOTH",
"359 149 OFFCURVE",
"341 74 OFFCURVE",
"264 74 CURVE SMOOTH",
"178 74 OFFCURVE",
"158 155 OFFCURVE",
"158 254 CURVE SMOOTH",
"158 351 OFFCURVE",
"176 426 OFFCURVE"
);
},
{
closed = 1;
nodes = (
"249 538 LINE",
"249 538 OFFCURVE",
"367 610 OFFCURVE",
"446 708 CURVE",
"370 779 LINE",
"200 590 LINE"
);
}
);
width = 517;
},
{
layerId = "EB17B230-7FBB-41DE-BCDE-73D8D15F9114";
paths = (
{
closed = 1;
nodes = (
"264 512 CURVE SMOOTH",
"105 512 OFFCURVE",
"27 397 OFFCURVE",
"27 245 CURVE SMOOTH",
"27 87 OFFCURVE",
"96 -10 OFFCURVE",
"256 -10 CURVE SMOOTH",
"414 -10 OFFCURVE",
"492 105 OFFCURVE",
"492 256 CURVE SMOOTH",
"492 416 OFFCURVE",
"423 512 OFFCURVE"
);
},
{
closed = 1;
nodes = (
"255 393 CURVE SMOOTH",
"312 393 OFFCURVE",
"325 328 OFFCURVE",
"325 246 CURVE SMOOTH",
"325 171 OFFCURVE",
"314 109 OFFCURVE",
"265 109 CURVE SMOOTH",
"208 109 OFFCURVE",
"195 175 OFFCURVE",
"195 256 CURVE SMOOTH",
"195 333 OFFCURVE",
"206 393 OFFCURVE"
);
},
{
closed = 1;
nodes = (
"263 557 LINE",
"263 557 OFFCURVE",
"398 639 OFFCURVE",
"482 743 CURVE",
"378 842 LINE",
"196 628 LINE"
);
}
);
width = 520;
}
);
leftKerningGroup = o;
rightKerningGroup = o;
unicode = 00F3;
},
{
glyphname = ocircumflex;
layers = (
{
layerId = "5DBF9900-19CD-41BF-A30E-BB0302EA3177";
paths = (
{
closed = 1;
nodes = (
"263 510 CURVE SMOOTH",
"110 510 OFFCURVE",
"35 395 OFFCURVE",
"35 244 CURVE SMOOTH",
"35 86 OFFCURVE",
"101 -10 OFFCURVE",
"254 -10 CURVE SMOOTH",
"407 -10 OFFCURVE",
"482 105 OFFCURVE",
"482 255 CURVE SMOOTH",
"482 414 OFFCURVE",
"416 510 OFFCURVE"
);
},
{
closed = 1;
nodes = (
"253 426 CURVE SMOOTH",
"339 426 OFFCURVE",
"359 345 OFFCURVE",
"359 245 CURVE SMOOTH",
"359 149 OFFCURVE",
"341 74 OFFCURVE",
"264 74 CURVE SMOOTH",
"178 74 OFFCURVE",
"158 155 OFFCURVE",
"158 254 CURVE SMOOTH",
"158 351 OFFCURVE",
"176 426 OFFCURVE"
);
},
{
closed = 1;
nodes = (
"119 538 LINE",
"118 538 OFFCURVE",
"187 576 OFFCURVE",
"264 642 CURVE",
"339 577 OFFCURVE",
"409 538 OFFCURVE",
"408 538 CURVE",
"451 592 LINE",
"264 779 LINE",
"76 592 LINE"
);
}
);
width = 517;
},
{
layerId = "EB17B230-7FBB-41DE-BCDE-73D8D15F9114";
paths = (
{
closed = 1;
nodes = (
"264 512 CURVE SMOOTH",
"105 512 OFFCURVE",
"27 397 OFFCURVE",
"27 245 CURVE SMOOTH",
"27 87 OFFCURVE",
"96 -10 OFFCURVE",
"256 -10 CURVE SMOOTH",
"414 -10 OFFCURVE",
"492 105 OFFCURVE",
"492 256 CURVE SMOOTH",
"492 416 OFFCURVE",
"423 512 OFFCURVE"
);
},
{
closed = 1;
nodes = (
"255 393 CURVE SMOOTH",
"312 393 OFFCURVE",
"325 328 OFFCURVE",
"325 246 CURVE SMOOTH",
"325 171 OFFCURVE",
"314 109 OFFCURVE",
"265 109 CURVE SMOOTH",
"208 109 OFFCURVE",
"195 175 OFFCURVE",
"195 256 CURVE SMOOTH",
"195 333 OFFCURVE",
"206 393 OFFCURVE"
);
},
{
closed = 1;
nodes = (
"126 557 LINE",
"154 571 OFFCURVE",
"202 595 OFFCURVE",
"260 639 CURVE",
"318 595 OFFCURVE",
"367 570 OFFCURVE",
"393 557 CURVE",
"454 631 LINE",
"260 828 LINE",
"65 631 LINE"
);
}
);
width = 520;
}
);
leftKerningGroup = o;
rightKerningGroup = o;
unicode = 00F4;
},
{
glyphname = odieresis;
layers = (
{
layerId = "5DBF9900-19CD-41BF-A30E-BB0302EA3177";
paths = (
{
closed = 1;
nodes = (
"263 510 CURVE SMOOTH",
"110 510 OFFCURVE",
"35 395 OFFCURVE",
"35 244 CURVE SMOOTH",
"35 86 OFFCURVE",
"101 -10 OFFCURVE",
"254 -10 CURVE SMOOTH",
"407 -10 OFFCURVE",
"482 105 OFFCURVE",
"482 255 CURVE SMOOTH",
"482 414 OFFCURVE",
"416 510 OFFCURVE"
);
},
{
closed = 1;
nodes = (
"253 426 CURVE SMOOTH",
"339 426 OFFCURVE",
"359 345 OFFCURVE",
"359 245 CURVE SMOOTH",
"359 149 OFFCURVE",
"341 74 OFFCURVE",
"264 74 CURVE SMOOTH",
"178 74 OFFCURVE",
"158 155 OFFCURVE",
"158 254 CURVE SMOOTH",
"158 351 OFFCURVE",
"176 426 OFFCURVE"
);
},
{
closed = 1;
nodes = (
"218 651 CURVE SMOOTH",
"218 687 OFFCURVE",
"196 714 OFFCURVE",
"157 714 CURVE SMOOTH",
"116 714 OFFCURVE",
"94 686 OFFCURVE",
"94 649 CURVE SMOOTH",
"94 615 OFFCURVE",
"116 587 OFFCURVE",
"154 587 CURVE SMOOTH",
"196 587 OFFCURVE",
"218 615 OFFCURVE"
);
},
{
closed = 1;
nodes = (
"418 651 CURVE SMOOTH",
"418 687 OFFCURVE",
"396 714 OFFCURVE",
"357 714 CURVE SMOOTH",
"315 714 OFFCURVE",
"293 686 OFFCURVE",
"293 649 CURVE SMOOTH",
"293 615 OFFCURVE",
"315 587 OFFCURVE",
"354 587 CURVE SMOOTH",
"396 587 OFFCURVE",
"418 615 OFFCURVE"
);
}
);
width = 517;
},
{
layerId = "EB17B230-7FBB-41DE-BCDE-73D8D15F9114";
paths = (
{
closed = 1;
nodes = (
"264 512 CURVE SMOOTH",
"105 512 OFFCURVE",
"27 397 OFFCURVE",
"27 245 CURVE SMOOTH",
"27 87 OFFCURVE",
"96 -10 OFFCURVE",
"256 -10 CURVE SMOOTH",
"414 -10 OFFCURVE",
"492 105 OFFCURVE",
"492 256 CURVE SMOOTH",
"492 416 OFFCURVE",
"423 512 OFFCURVE"
);
},
{
closed = 1;
nodes = (
"255 393 CURVE SMOOTH",
"312 393 OFFCURVE",
"325 328 OFFCURVE",
"325 246 CURVE SMOOTH",
"325 171 OFFCURVE",
"314 109 OFFCURVE",
"265 109 CURVE SMOOTH",
"208 109 OFFCURVE",
"195 175 OFFCURVE",
"195 256 CURVE SMOOTH",
"195 333 OFFCURVE",
"206 393 OFFCURVE"
);
},
{
closed = 1;
nodes = (
"231 667 CURVE SMOOTH",
"231 707 OFFCURVE",
"205 741 OFFCURVE",
"159 741 CURVE SMOOTH",
"109 741 OFFCURVE",
"84 707 OFFCURVE",
"84 663 CURVE SMOOTH",
"84 623 OFFCURVE",
"109 590 OFFCURVE",
"156 590 CURVE SMOOTH",
"205 590 OFFCURVE",
"231 623 OFFCURVE"
);
},
{
closed = 1;
nodes = (
"446 667 CURVE SMOOTH",
"446 707 OFFCURVE",
"420 741 OFFCURVE",
"374 741 CURVE SMOOTH",
"324 741 OFFCURVE",
"299 707 OFFCURVE",
"299 663 CURVE SMOOTH",
"299 623 OFFCURVE",
"324 590 OFFCURVE",
"371 590 CURVE SMOOTH",
"420 590 OFFCURVE",
"446 623 OFFCURVE"
);
}
);
width = 520;
}
);
leftKerningGroup = o;
rightKerningGroup = o;
unicode = 00F6;
},
{
glyphname = ograve;
layers = (
{
layerId = "5DBF9900-19CD-41BF-A30E-BB0302EA3177";
paths = (
{
closed = 1;
nodes = (
"263 510 CURVE SMOOTH",
"110 510 OFFCURVE",
"35 395 OFFCURVE",
"35 244 CURVE SMOOTH",
"35 86 OFFCURVE",
"101 -10 OFFCURVE",
"254 -10 CURVE SMOOTH",
"407 -10 OFFCURVE",
"482 105 OFFCURVE",
"482 255 CURVE SMOOTH",
"482 414 OFFCURVE",
"416 510 OFFCURVE"
);
},
{
closed = 1;
nodes = (
"253 426 CURVE SMOOTH",
"339 426 OFFCURVE",
"359 345 OFFCURVE",
"359 245 CURVE SMOOTH",
"359 149 OFFCURVE",
"341 74 OFFCURVE",
"264 74 CURVE SMOOTH",
"178 74 OFFCURVE",
"158 155 OFFCURVE",
"158 254 CURVE SMOOTH",
"158 351 OFFCURVE",
"176 426 OFFCURVE"
);
},
{
closed = 1;
nodes = (
"305 590 LINE",
"135 779 LINE",
"59 708 LINE",
"138 610 OFFCURVE",
"257 538 OFFCURVE",
"257 538 CURVE"
);
}
);
width = 517;
},
{
layerId = "EB17B230-7FBB-41DE-BCDE-73D8D15F9114";
paths = (
{
closed = 1;
nodes = (
"264 512 CURVE SMOOTH",
"105 512 OFFCURVE",
"27 397 OFFCURVE",
"27 245 CURVE SMOOTH",
"27 87 OFFCURVE",
"96 -10 OFFCURVE",
"256 -10 CURVE SMOOTH",
"414 -10 OFFCURVE",
"492 105 OFFCURVE",
"492 256 CURVE SMOOTH",
"492 416 OFFCURVE",
"423 512 OFFCURVE"
);
},
{
closed = 1;
nodes = (
"255 393 CURVE SMOOTH",
"312 393 OFFCURVE",
"325 328 OFFCURVE",
"325 246 CURVE SMOOTH",
"325 171 OFFCURVE",
"314 109 OFFCURVE",
"265 109 CURVE SMOOTH",
"208 109 OFFCURVE",
"195 175 OFFCURVE",
"195 256 CURVE SMOOTH",
"195 333 OFFCURVE",
"206 393 OFFCURVE"
);
},
{
closed = 1;
nodes = (
"332 628 LINE",
"149 842 LINE",
"45 743 LINE",
"129 639 OFFCURVE",
"254 565 OFFCURVE",
"265 557 CURVE"
);
}
);
width = 520;
}
);
leftKerningGroup = o;
rightKerningGroup = o;
unicode = 00F2;
},
{
glyphname = oslash;
layers = (
{
layerId = "5DBF9900-19CD-41BF-A30E-BB0302EA3177";
paths = (
{
closed = 1;
nodes = (
"263 510 CURVE SMOOTH",
"110 510 OFFCURVE",
"35 395 OFFCURVE",
"35 244 CURVE SMOOTH",
"35 151 OFFCURVE",
"58 80 OFFCURVE",
"107 37 CURVE",
"80 -19 LINE",
"158 -54 LINE",
"183 -2 LINE",
"204 -7 OFFCURVE",
"228 -10 OFFCURVE",
"254 -10 CURVE SMOOTH",
"407 -10 OFFCURVE",
"482 105 OFFCURVE",
"482 255 CURVE SMOOTH",
"482 348 OFFCURVE",
"459 419 OFFCURVE",
"409 463 CURVE",
"436 518 LINE",
"359 553 LINE",
"334 502 LINE",
"313 507 OFFCURVE",
"289 510 OFFCURVE"
);
},
{
closed = 1;
nodes = (
"253 426 CURVE SMOOTH",
"268 426 OFFCURVE",
"282 423 OFFCURVE",
"293 418 CURVE",
"167 160 LINE",
"160 187 OFFCURVE",
"158 219 OFFCURVE",
"158 254 CURVE SMOOTH",
"158 351 OFFCURVE",
"176 426 OFFCURVE"
);
},
{
closed = 1;
nodes = (
"359 245 CURVE SMOOTH",
"359 149 OFFCURVE",
"341 74 OFFCURVE",
"264 74 CURVE SMOOTH",
"248 74 OFFCURVE",
"235 76 OFFCURVE",
"224 81 CURVE",
"349 340 LINE",
"356 312 OFFCURVE",
"359 280 OFFCURVE"
);
}
);
width = 517;
},
{
layerId = "EB17B230-7FBB-41DE-BCDE-73D8D15F9114";
paths = (
{
closed = 1;
nodes = (
"264 512 CURVE SMOOTH",
"105 512 OFFCURVE",
"27 397 OFFCURVE",
"27 245 CURVE SMOOTH",
"27 156 OFFCURVE",
"49 86 OFFCURVE",
"97 42 CURVE",
"66 -21 LINE",
"165 -68 LINE",
"196 -4 LINE",
"214 -8 OFFCURVE",
"234 -10 OFFCURVE",
"256 -10 CURVE SMOOTH",
"414 -10 OFFCURVE",
"492 105 OFFCURVE",
"492 256 CURVE SMOOTH",
"492 346 OFFCURVE",
"470 415 OFFCURVE",
"422 459 CURVE",
"454 524 LINE",
"355 570 LINE",
"324 506 LINE",
"305 510 OFFCURVE",
"285 512 OFFCURVE"
);
},
{
closed = 1;
nodes = (
"255 393 CURVE SMOOTH",
"259 393 OFFCURVE",
"264 393 OFFCURVE",
"268 392 CURVE",
"195 243 LINE",
"195 256 LINE SMOOTH",
"195 333 OFFCURVE",
"206 393 OFFCURVE"
);
},
{
closed = 1;
nodes = (
"265 109 CURVE SMOOTH",
"260 109 OFFCURVE",
"256 109 OFFCURVE",
"252 110 CURVE",
"325 259 LINE",
"325 246 LINE SMOOTH",
"325 171 OFFCURVE",
"314 109 OFFCURVE"
);
}
);
width = 520;
}
);
leftKerningGroup = o;
rightKerningGroup = o;
unicode = 00F8;
},
{
glyphname = otilde;
layers = (
{
layerId = "5DBF9900-19CD-41BF-A30E-BB0302EA3177";
paths = (
{
closed = 1;
nodes = (
"263 510 CURVE SMOOTH",
"110 510 OFFCURVE",
"35 395 OFFCURVE",
"35 244 CURVE SMOOTH",
"35 86 OFFCURVE",
"101 -10 OFFCURVE",
"254 -10 CURVE SMOOTH",
"407 -10 OFFCURVE",
"482 105 OFFCURVE",
"482 255 CURVE SMOOTH",
"482 414 OFFCURVE",
"416 510 OFFCURVE"
);
},
{
closed = 1;
nodes = (
"253 426 CURVE SMOOTH",
"339 426 OFFCURVE",
"359 345 OFFCURVE",
"359 245 CURVE SMOOTH",
"359 149 OFFCURVE",
"341 74 OFFCURVE",
"264 74 CURVE SMOOTH",
"178 74 OFFCURVE",
"158 155 OFFCURVE",
"158 254 CURVE SMOOTH",
"158 351 OFFCURVE",
"176 426 OFFCURVE"
);
},
{
closed = 1;
nodes = (
"95 589 LINE",
"95 589 OFFCURVE",
"129 603 OFFCURVE",
"174 603 CURVE SMOOTH",
"223 603 OFFCURVE",
"278 583 OFFCURVE",
"327 583 CURVE SMOOTH",
"372 583 OFFCURVE",
"407 606 OFFCURVE",
"407 606 CURVE",
"407 680 LINE",
"407 680 OFFCURVE",
"372 666 OFFCURVE",
"327 666 CURVE SMOOTH",
"278 666 OFFCURVE",
"223 686 OFFCURVE",
"174 686 CURVE SMOOTH",
"129 686 OFFCURVE",
"95 663 OFFCURVE",
"95 663 CURVE"
);
}
);
width = 517;
},
{
layerId = "EB17B230-7FBB-41DE-BCDE-73D8D15F9114";
paths = (
{
closed = 1;
nodes = (
"264 512 CURVE SMOOTH",
"105 512 OFFCURVE",
"27 397 OFFCURVE",
"27 245 CURVE SMOOTH",
"27 87 OFFCURVE",
"96 -10 OFFCURVE",
"256 -10 CURVE SMOOTH",
"414 -10 OFFCURVE",
"492 105 OFFCURVE",
"492 256 CURVE SMOOTH",
"492 416 OFFCURVE",
"423 512 OFFCURVE"
);
},
{
closed = 1;
nodes = (
"255 393 CURVE SMOOTH",
"312 393 OFFCURVE",
"325 328 OFFCURVE",
"325 246 CURVE SMOOTH",
"325 171 OFFCURVE",
"314 109 OFFCURVE",
"265 109 CURVE SMOOTH",
"208 109 OFFCURVE",
"195 175 OFFCURVE",
"195 256 CURVE SMOOTH",
"195 333 OFFCURVE",
"206 393 OFFCURVE"
);
},
{
closed = 1;
nodes = (
"99 586 LINE",
"99 586 OFFCURVE",
"138 600 OFFCURVE",
"187 600 CURVE SMOOTH",
"239 600 OFFCURVE",
"294 580 OFFCURVE",
"347 580 CURVE SMOOTH",
"396 580 OFFCURVE",
"427 603 OFFCURVE",
"427 603 CURVE",
"427 703 LINE",
"427 703 OFFCURVE",
"396 689 OFFCURVE",
"347 689 CURVE SMOOTH",
"294 689 OFFCURVE",
"239 709 OFFCURVE",
"187 709 CURVE SMOOTH",
"138 709 OFFCURVE",
"99 686 OFFCURVE",
"99 686 CURVE"
);
}
);
width = 520;
}
);
leftKerningGroup = o;
rightKerningGroup = o;
unicode = 00F5;
},
{
glyphname = oe;
layers = (
{
layerId = "5DBF9900-19CD-41BF-A30E-BB0302EA3177";
paths = (
{
closed = 1;
nodes = (
"263 510 CURVE SMOOTH",
"110 510 OFFCURVE",
"35 395 OFFCURVE",
"35 244 CURVE SMOOTH",
"35 86 OFFCURVE",
"101 -10 OFFCURVE",
"254 -10 CURVE SMOOTH",
"324 -10 OFFCURVE",
"377 19 OFFCURVE",
"414 64 CURVE",
"449 20 OFFCURVE",
"501 -7 OFFCURVE",
"578 -7 CURVE SMOOTH",
"678 -7 OFFCURVE",
"765 39 OFFCURVE",
"765 39 CURVE",
"735 110 LINE",
"735 110 OFFCURVE",
"651 75 OFFCURVE",
"593 75 CURVE SMOOTH",
"514 75 OFFCURVE",
"489 126 OFFCURVE",
"482 188 CURVE",
"659 190 OFFCURVE",
"769 272 OFFCURVE",
"769 368 CURVE SMOOTH",
"769 448 OFFCURVE",
"721 510 OFFCURVE",
"603 510 CURVE SMOOTH",
"532 510 OFFCURVE",
"471 482 OFFCURVE",
"428 432 CURVE",
"393 479 OFFCURVE",
"339 510 OFFCURVE"
);
},
{
closed = 1;
nodes = (
"253 426 CURVE SMOOTH",
"339 426 OFFCURVE",
"359 345 OFFCURVE",
"359 245 CURVE SMOOTH",
"359 149 OFFCURVE",
"341 74 OFFCURVE",
"264 74 CURVE SMOOTH",
"178 74 OFFCURVE",
"158 155 OFFCURVE",
"158 254 CURVE SMOOTH",
"158 351 OFFCURVE",
"176 426 OFFCURVE"
);
},
{
closed = 1;
nodes = (
"594 432 CURVE SMOOTH",
"630 432 OFFCURVE",
"656 407 OFFCURVE",
"656 368 CURVE SMOOTH",
"656 321 OFFCURVE",
"607 265 OFFCURVE",
"480 260 CURVE",
"482 342 OFFCURVE",
"506 432 OFFCURVE"
);
}
);
width = 800;
},
{
layerId = "EB17B230-7FBB-41DE-BCDE-73D8D15F9114";
paths = (
{
closed = 1;
nodes = (
"264 512 CURVE SMOOTH",
"105 512 OFFCURVE",
"27 397 OFFCURVE",
"27 245 CURVE SMOOTH",
"27 87 OFFCURVE",
"96 -10 OFFCURVE",
"256 -10 CURVE SMOOTH",
"319 -10 OFFCURVE",
"368 11 OFFCURVE",
"404 44 CURVE",
"438 11 OFFCURVE",
"488 -9 OFFCURVE",
"557 -9 CURVE SMOOTH",
"663 -9 OFFCURVE",
"754 36 OFFCURVE",
"754 36 CURVE",
"724 140 LINE",
"724 140 OFFCURVE",
"640 108 OFFCURVE",
"582 108 CURVE SMOOTH",
"532 108 OFFCURVE",
"509 135 OFFCURVE",
"500 175 CURVE",
"659 188 OFFCURVE",
"758 264 OFFCURVE",
"758 361 CURVE SMOOTH",
"758 447 OFFCURVE",
"708 512 OFFCURVE",
"583 512 CURVE SMOOTH",
"519 512 OFFCURVE",
"463 491 OFFCURVE",
"421 452 CURVE",
"386 489 OFFCURVE",
"335 512 OFFCURVE"
);
},
{
closed = 1;
nodes = (
"255 393 CURVE SMOOTH",
"312 393 OFFCURVE",
"325 328 OFFCURVE",
"325 246 CURVE SMOOTH",
"325 171 OFFCURVE",
"314 109 OFFCURVE",
"265 109 CURVE SMOOTH",
"208 109 OFFCURVE",
"195 175 OFFCURVE",
"195 256 CURVE SMOOTH",
"195 333 OFFCURVE",
"206 393 OFFCURVE"
);
},
{
closed = 1;
nodes = (
"563 399 CURVE SMOOTH",
"585 399 OFFCURVE",
"601 382 OFFCURVE",
"601 357 CURVE SMOOTH",
"601 325 OFFCURVE",
"571 278 OFFCURVE",
"492 276 CURVE",
"494 333 OFFCURVE",
"512 399 OFFCURVE"
);
}
);
width = 781;
}
);
leftKerningGroup = o;
rightKerningGroup = e;
unicode = 0153;
},
{
glyphname = p;
layers = (
{
layerId = "5DBF9900-19CD-41BF-A30E-BB0302EA3177";
paths = (
{
closed = 1;
nodes = (
"188 -201 LINE",
"188 0 LINE",
"214 -3 OFFCURVE",
"241 -6 OFFCURVE",
"266 -6 CURVE SMOOTH",
"409 -6 OFFCURVE",
"505 106 OFFCURVE",
"505 258 CURVE SMOOTH",
"505 408 OFFCURVE",
"447 506 OFFCURVE",
"322 506 CURVE SMOOTH",
"235 506 OFFCURVE",
"187 464 OFFCURVE",
"165 384 CURVE",
"156 460 OFFCURVE",
"115 501 OFFCURVE",
"115 501 CURVE",
"25 465 LINE",
"25 465 OFFCURVE",
"74 411 OFFCURVE",
"74 252 CURVE SMOOTH",
"74 -221 LINE"
);
},
{
closed = 1;
nodes = (
"303 426 CURVE SMOOTH",
"376 426 OFFCURVE",
"383 341 OFFCURVE",
"383 248 CURVE SMOOTH",
"383 147 OFFCURVE",
"354 74 OFFCURVE",
"253 74 CURVE SMOOTH",
"233 74 OFFCURVE",
"201 81 OFFCURVE",
"188 85 CURVE",
"188 229 LINE SMOOTH",
"188 327 OFFCURVE",
"237 426 OFFCURVE"
);
}
);
width = 541;
},
{
layerId = "EB17B230-7FBB-41DE-BCDE-73D8D15F9114";
paths = (
{
closed = 1;
nodes = (
"230 -194 LINE",
"230 0 LINE",
"246 -4 OFFCURVE",
"265 -6 OFFCURVE",
"282 -6 CURVE SMOOTH",
"419 -6 OFFCURVE",
"522 110 OFFCURVE",
"522 259 CURVE SMOOTH",
"522 410 OFFCURVE",
"460 509 OFFCURVE",
"334 509 CURVE SMOOTH",
"263 509 OFFCURVE",
"219 470 OFFCURVE",
"194 395 CURVE",
"185 470 OFFCURVE",
"144 509 OFFCURVE",
"144 509 CURVE",
"17 469 LINE",
"17 469 OFFCURVE",
"72 418 OFFCURVE",
"72 260 CURVE SMOOTH",
"72 -221 LINE"
);
},
{
closed = 1;
nodes = (
"303 393 CURVE SMOOTH",
"351 393 OFFCURVE",
"354 324 OFFCURVE",
"354 249 CURVE SMOOTH",
"354 169 OFFCURVE",
"336 110 OFFCURVE",
"271 110 CURVE SMOOTH",
"258 110 OFFCURVE",
"239 115 OFFCURVE",
"230 117 CURVE",
"230 242 LINE SMOOTH",
"230 322 OFFCURVE",
"262 393 OFFCURVE"
);
}
);
width = 549;
}
);
leftKerningGroup = n;
rightKerningGroup = o;
unicode = 0070;
},
{
glyphname = thorn;
layers = (
{
layerId = "5DBF9900-19CD-41BF-A30E-BB0302EA3177";
paths = (
{
closed = 1;
nodes = (
"179 725 LINE",
"65 705 LINE",
"65 -221 LINE",
"179 -201 LINE",
"179 0 LINE",
"205 -3 OFFCURVE",
"232 -6 OFFCURVE",
"258 -6 CURVE SMOOTH",
"400 -6 OFFCURVE",
"497 106 OFFCURVE",
"497 258 CURVE SMOOTH",
"497 408 OFFCURVE",
"438 506 OFFCURVE",
"313 506 CURVE SMOOTH",
"248 506 OFFCURVE",
"205 483 OFFCURVE",
"179 437 CURVE"
);
},
{
closed = 1;
nodes = (
"294 425 CURVE SMOOTH",
"367 425 OFFCURVE",
"374 341 OFFCURVE",
"374 248 CURVE SMOOTH",
"374 147 OFFCURVE",
"345 74 OFFCURVE",
"245 74 CURVE SMOOTH",
"223 74 OFFCURVE",
"191 81 OFFCURVE",
"179 84 CURVE",
"179 235 LINE SMOOTH",
"179 332 OFFCURVE",
"229 425 OFFCURVE"
);
}
);
width = 532;
},
{
layerId = "EB17B230-7FBB-41DE-BCDE-73D8D15F9114";
paths = (
{
closed = 1;
nodes = (
"215 725 LINE",
"57 698 LINE",
"57 -221 LINE",
"215 -194 LINE",
"215 0 LINE",
"231 -4 OFFCURVE",
"250 -6 OFFCURVE",
"267 -6 CURVE SMOOTH",
"404 -6 OFFCURVE",
"507 110 OFFCURVE",
"507 259 CURVE SMOOTH",
"507 410 OFFCURVE",
"445 509 OFFCURVE",
"326 509 CURVE SMOOTH",
"278 509 OFFCURVE",
"241 491 OFFCURVE",
"215 457 CURVE"
);
},
{
closed = 1;
nodes = (
"288 392 CURVE SMOOTH",
"336 392 OFFCURVE",
"339 324 OFFCURVE",
"339 249 CURVE SMOOTH",
"339 169 OFFCURVE",
"321 110 OFFCURVE",
"256 110 CURVE SMOOTH",
"243 110 OFFCURVE",
"223 115 OFFCURVE",
"215 117 CURVE",
"215 252 LINE SMOOTH",
"215 328 OFFCURVE",
"248 392 OFFCURVE"
);
}
);
width = 534;
}
);
leftKerningGroup = b;
rightKerningGroup = o;
unicode = 00FE;
},
{
glyphname = q;
layers = (
{
layerId = "5DBF9900-19CD-41BF-A30E-BB0302EA3177";
paths = (
{
closed = 1;
nodes = (
"467 477 LINE",
"467 477 OFFCURVE",
"354 506 OFFCURVE",
"274 506 CURVE SMOOTH",
"132 506 OFFCURVE",
"35 394 OFFCURVE",
"35 242 CURVE SMOOTH",
"35 92 OFFCURVE",
"94 -6 OFFCURVE",
"219 -6 CURVE SMOOTH",
"283 -6 OFFCURVE",
"326 17 OFFCURVE",
"353 62 CURVE",
"353 -201 LINE",
"467 -222 LINE"
);
},
{
closed = 1;
nodes = (
"238 75 CURVE SMOOTH",
"165 75 OFFCURVE",
"158 159 OFFCURVE",
"158 252 CURVE SMOOTH",
"158 353 OFFCURVE",
"187 426 OFFCURVE",
"287 426 CURVE SMOOTH",
"308 426 OFFCURVE",
"340 419 OFFCURVE",
"353 415 CURVE",
"353 271 LINE SMOOTH",
"353 172 OFFCURVE",
"303 75 OFFCURVE"
);
}
);
width = 532;
},
{
layerId = "EB17B230-7FBB-41DE-BCDE-73D8D15F9114";
paths = (
{
closed = 1;
nodes = (
"477 480 LINE",
"477 480 OFFCURVE",
"361 509 OFFCURVE",
"278 509 CURVE SMOOTH",
"129 509 OFFCURVE",
"27 396 OFFCURVE",
"27 243 CURVE SMOOTH",
"27 93 OFFCURVE",
"89 -6 OFFCURVE",
"215 -6 CURVE SMOOTH",
"261 -6 OFFCURVE",
"294 12 OFFCURVE",
"319 43 CURVE",
"319 -194 LINE",
"477 -221 LINE"
);
},
{
closed = 1;
nodes = (
"246 110 CURVE SMOOTH",
"198 110 OFFCURVE",
"195 179 OFFCURVE",
"195 253 CURVE SMOOTH",
"195 334 OFFCURVE",
"213 393 OFFCURVE",
"278 393 CURVE SMOOTH",
"290 393 OFFCURVE",
"310 389 OFFCURVE",
"319 385 CURVE",
"319 278 LINE SMOOTH",
"319 190 OFFCURVE",
"289 110 OFFCURVE"
);
}
);
width = 534;
}
);
leftKerningGroup = o;
unicode = 0071;
},
{
glyphname = r;
layers = (
{
layerId = "5DBF9900-19CD-41BF-A30E-BB0302EA3177";
paths = (
{
closed = 1;
nodes = (
"288 394 CURVE SMOOTH",
"321 394 OFFCURVE",
"338 383 OFFCURVE",
"337 383 CURVE",
"369 494 LINE",
"370 494 OFFCURVE",
"338 505 OFFCURVE",
"307 505 CURVE SMOOTH",
"243 505 OFFCURVE",
"190 473 OFFCURVE",
"163 396 CURVE",
"151 465 OFFCURVE",
"115 501 OFFCURVE",
"115 501 CURVE",
"25 465 LINE",
"25 465 OFFCURVE",
"74 411 OFFCURVE",
"74 252 CURVE SMOOTH",
"74 0 LINE",
"188 0 LINE",
"188 274 LINE SMOOTH",
"188 345 OFFCURVE",
"240 394 OFFCURVE"
);
}
);
width = 369;
},
{
layerId = "EB17B230-7FBB-41DE-BCDE-73D8D15F9114";
paths = (
{
closed = 1;
nodes = (
"307 358 CURVE SMOOTH",
"329 358 OFFCURVE",
"345 352 OFFCURVE",
"354 347 CURVE",
"395 498 LINE",
"380 503 OFFCURVE",
"358 509 OFFCURVE",
"330 509 CURVE SMOOTH",
"268 509 OFFCURVE",
"222 483 OFFCURVE",
"189 419 CURVE",
"175 478 OFFCURVE",
"144 509 OFFCURVE",
"144 509 CURVE",
"17 469 LINE",
"17 469 OFFCURVE",
"72 418 OFFCURVE",
"72 260 CURVE SMOOTH",
"72 0 LINE",
"230 0 LINE",
"230 255 LINE SMOOTH",
"230 327 OFFCURVE",
"279 358 OFFCURVE"
);
}
);
width = 398;
}
);
leftKerningGroup = n;
unicode = 0072;
},
{
glyphname = s;
layers = (
{
layerId = "5DBF9900-19CD-41BF-A30E-BB0302EA3177";
paths = (
{
closed = 1;
nodes = (
"212 510 CURVE SMOOTH",
"291 510 OFFCURVE",
"367 471 OFFCURVE",
"367 471 CURVE",
"333 393 LINE",
"333 393 OFFCURVE",
"267 426 OFFCURVE",
"215 426 CURVE SMOOTH",
"185 426 OFFCURVE",
"159 411 OFFCURVE",
"159 382 CURVE SMOOTH",
"159 344 OFFCURVE",
"185 315 OFFCURVE",
"242 293 CURVE SMOOTH",
"326 261 OFFCURVE",
"376 224 OFFCURVE",
"376 139 CURVE SMOOTH",
"376 64 OFFCURVE",
"312 -10 OFFCURVE",
"202 -10 CURVE SMOOTH",
"114 -10 OFFCURVE",
"23 39 OFFCURVE",
"24 38 CURVE",
"61 122 LINE",
"60 122 OFFCURVE",
"141 74 OFFCURVE",
"192 74 CURVE SMOOTH",
"239 74 OFFCURVE",
"261 94 OFFCURVE",
"261 125 CURVE SMOOTH",
"261 160 OFFCURVE",
"236 190 OFFCURVE",
"187 208 CURVE SMOOTH",
"85 246 OFFCURVE",
"43 292 OFFCURVE",
"43 370 CURVE SMOOTH",
"43 446 OFFCURVE",
"115 510 OFFCURVE"
);
}
);
width = 412;
},
{
layerId = "EB17B230-7FBB-41DE-BCDE-73D8D15F9114";
paths = (
{
closed = 1;
nodes = (
"212 511 CURVE SMOOTH",
"312 511 OFFCURVE",
"393 469 OFFCURVE",
"393 469 CURVE",
"343 357 LINE",
"321 368 OFFCURVE",
"275 393 OFFCURVE",
"234 393 CURVE SMOOTH",
"213 393 OFFCURVE",
"196 384 OFFCURVE",
"196 364 CURVE SMOOTH",
"196 343 OFFCURVE",
"226 322 OFFCURVE",
"271 303 CURVE SMOOTH",
"350 270 OFFCURVE",
"396 228 OFFCURVE",
"396 151 CURVE SMOOTH",
"396 65 OFFCURVE",
"334 -10 OFFCURVE",
"216 -10 CURVE SMOOTH",
"124 -10 OFFCURVE",
"50 21 OFFCURVE",
"17 36 CURVE",
"69 151 LINE",
"82 145 OFFCURVE",
"141 110 OFFCURVE",
"186 110 CURVE SMOOTH",
"214 110 OFFCURVE",
"234 121 OFFCURVE",
"234 142 CURVE SMOOTH",
"234 167 OFFCURVE",
"209 188 OFFCURVE",
"175 201 CURVE SMOOTH",
"75 241 OFFCURVE",
"35 287 OFFCURVE",
"35 362 CURVE SMOOTH",
"35 447 OFFCURVE",
"101 511 OFFCURVE"
);
}
);
width = 423;
}
);
unicode = 0073;
},
{
glyphname = germandbls;
layers = (
{
layerId = "5DBF9900-19CD-41BF-A30E-BB0302EA3177";
paths = (
{
closed = 1;
nodes = (
"209 486 LINE SMOOTH",
"209 559 OFFCURVE",
"232 638 OFFCURVE",
"313 638 CURVE SMOOTH",
"354 638 OFFCURVE",
"392 620 OFFCURVE",
"392 575 CURVE SMOOTH",
"392 506 OFFCURVE",
"284 482 OFFCURVE",
"284 383 CURVE SMOOTH",
"284 226 OFFCURVE",
"432 238 OFFCURVE",
"432 143 CURVE SMOOTH",
"432 99 OFFCURVE",
"400 79 OFFCURVE",
"348 79 CURVE SMOOTH",
"317 79 OFFCURVE",
"280 100 OFFCURVE",
"270 105 CURVE",
"236 30 LINE",
"244 25 OFFCURVE",
"299 -7 OFFCURVE",
"363 -7 CURVE SMOOTH",
"473 -7 OFFCURVE",
"547 58 OFFCURVE",
"547 152 CURVE SMOOTH",
"547 315 OFFCURVE",
"390 309 OFFCURVE",
"390 402 CURVE SMOOTH",
"390 461 OFFCURVE",
"505 470 OFFCURVE",
"505 585 CURVE SMOOTH",
"505 657 OFFCURVE",
"451 725 OFFCURVE",
"329 725 CURVE SMOOTH",
"173 725 OFFCURVE",
"95 624 OFFCURVE",
"95 478 CURVE SMOOTH",
"95 14 LINE SMOOTH",
"95 -27 OFFCURVE",
"95 -103 OFFCURVE",
"-5 -154 CURVE",
"38 -223 LINE",
"117 -182 OFFCURVE",
"209 -134 OFFCURVE",
"209 25 CURVE SMOOTH"
);
}
);
width = 578;
},
{
layerId = "EB17B230-7FBB-41DE-BCDE-73D8D15F9114";
paths = (
{
closed = 1;
nodes = (
"238 486 LINE SMOOTH",
"238 562 OFFCURVE",
"267 613 OFFCURVE",
"326 613 CURVE SMOOTH",
"364 613 OFFCURVE",
"395 596 OFFCURVE",
"395 560 CURVE SMOOTH",
"395 492 OFFCURVE",
"287 470 OFFCURVE",
"287 378 CURVE SMOOTH",
"287 248 OFFCURVE",
"435 252 OFFCURVE",
"435 168 CURVE SMOOTH",
"435 135 OFFCURVE",
"417 117 OFFCURVE",
"377 117 CURVE SMOOTH",
"354 117 OFFCURVE",
"328 129 OFFCURVE",
"313 136 CURVE",
"265 30 LINE",
"267 29 OFFCURVE",
"324 -7 OFFCURVE",
"407 -7 CURVE SMOOTH",
"529 -7 OFFCURVE",
"601 71 OFFCURVE",
"601 165 CURVE SMOOTH",
"601 336 OFFCURVE",
"444 329 OFFCURVE",
"444 406 CURVE SMOOTH",
"444 465 OFFCURVE",
"559 470 OFFCURVE",
"559 585 CURVE SMOOTH",
"559 657 OFFCURVE",
"503 738 OFFCURVE",
"358 738 CURVE SMOOTH",
"183 738 OFFCURVE",
"80 628 OFFCURVE",
"80 494 CURVE SMOOTH",
"80 14 LINE SMOOTH",
"80 -49 OFFCURVE",
"53 -102 OFFCURVE",
"-20 -140 CURVE",
"33 -224 LINE",
"140 -181 OFFCURVE",
"238 -130 OFFCURVE",
"238 25 CURVE SMOOTH"
);
}
);
width = 623;
}
);
unicode = 00DF;
},
{
glyphname = t;
layers = (
{
layerId = "5DBF9900-19CD-41BF-A30E-BB0302EA3177";
paths = (
{
closed = 1;
nodes = (
"10 417 LINE",
"100 417 LINE",
"100 108 LINE SMOOTH",
"100 26 OFFCURVE",
"154 -4 OFFCURVE",
"228 -4 CURVE SMOOTH",
"303 -4 OFFCURVE",
"357 19 OFFCURVE",
"356 19 CURVE",
"337 94 LINE",
"337 94 OFFCURVE",
"297 80 OFFCURVE",
"259 80 CURVE SMOOTH",
"236 80 OFFCURVE",
"214 87 OFFCURVE",
"214 121 CURVE SMOOTH",
"214 417 LINE",
"323 417 LINE",
"337 498 LINE",
"214 498 LINE",
"214 636 LINE",
"120 615 LINE",
"100 498 LINE",
"10 498 LINE"
);
}
);
width = 361;
},
{
layerId = "EB17B230-7FBB-41DE-BCDE-73D8D15F9114";
paths = (
{
closed = 1;
nodes = (
"10 382 LINE",
"89 382 LINE",
"89 132 LINE SMOOTH",
"89 33 OFFCURVE",
"149 -4 OFFCURVE",
"249 -4 CURVE SMOOTH",
"317 -4 OFFCURVE",
"364 11 OFFCURVE",
"391 20 CURVE",
"364 126 LINE",
"364 126 OFFCURVE",
"324 115 OFFCURVE",
"292 115 CURVE SMOOTH",
"262 115 OFFCURVE",
"246 130 OFFCURVE",
"246 159 CURVE SMOOTH",
"246 382 LINE",
"345 382 LINE",
"364 498 LINE",
"246 498 LINE",
"246 631 LINE",
"109 601 LINE",
"92 498 LINE",
"10 498 LINE"
);
}
);
width = 392;
}
);
unicode = 0074;
},
{
glyphname = u;
layers = (
{
anchors = (
{
name = top;
position = "{271, 506}";
}
);
layerId = "5DBF9900-19CD-41BF-A30E-BB0302EA3177";
paths = (
{
closed = 1;
nodes = (
"361 254 LINE SMOOTH",
"361 148 OFFCURVE",
"299 78 OFFCURVE",
"240 78 CURVE SMOOTH",
"192 78 OFFCURVE",
"174 113 OFFCURVE",
"174 168 CURVE SMOOTH",
"174 498 LINE",
"60 498 LINE",
"60 166 LINE SMOOTH",
"60 60 OFFCURVE",
"101 -6 OFFCURVE",
"206 -6 CURVE SMOOTH",
"277 -6 OFFCURVE",
"348 25 OFFCURVE",
"384 103 CURVE",
"393 30 OFFCURVE",
"434 -8 OFFCURVE",
"434 -8 CURVE",
"523 28 LINE",
"523 28 OFFCURVE",
"475 83 OFFCURVE",
"475 241 CURVE SMOOTH",
"475 498 LINE",
"361 498 LINE"
);
}
);
width = 549;
},
{
anchors = (
{
name = top;
position = "{271, 506}";
}
);
layerId = "EB17B230-7FBB-41DE-BCDE-73D8D15F9114";
paths = (
{
closed = 1;
nodes = (
"327 252 LINE SMOOTH",
"327 165 OFFCURVE",
"288 111 OFFCURVE",
"251 111 CURVE SMOOTH",
"220 111 OFFCURVE",
"211 142 OFFCURVE",
"211 189 CURVE SMOOTH",
"211 502 LINE",
"52 502 LINE",
"52 168 LINE SMOOTH",
"52 62 OFFCURVE",
"91 -6 OFFCURVE",
"196 -6 CURVE SMOOTH",
"266 -6 OFFCURVE",
"331 22 OFFCURVE",
"366 84 CURVE",
"380 24 OFFCURVE",
"413 -8 OFFCURVE",
"413 -8 CURVE",
"540 32 LINE",
"540 32 OFFCURVE",
"485 83 OFFCURVE",
"485 241 CURVE SMOOTH",
"485 502 LINE",
"327 502 LINE"
);
}
);
width = 557;
}
);
leftKerningGroup = u;
rightKerningGroup = u;
unicode = 0075;
},
{
glyphname = uacute;
layers = (
{
layerId = "5DBF9900-19CD-41BF-A30E-BB0302EA3177";
paths = (
{
closed = 1;
nodes = (
"361 254 LINE SMOOTH",
"361 148 OFFCURVE",
"299 78 OFFCURVE",
"240 78 CURVE SMOOTH",
"192 78 OFFCURVE",
"174 113 OFFCURVE",
"174 168 CURVE SMOOTH",
"174 498 LINE",
"60 498 LINE",
"60 166 LINE SMOOTH",
"60 60 OFFCURVE",
"101 -6 OFFCURVE",
"206 -6 CURVE SMOOTH",
"277 -6 OFFCURVE",
"348 25 OFFCURVE",
"384 103 CURVE",
"393 30 OFFCURVE",
"434 -8 OFFCURVE",
"434 -8 CURVE",
"523 28 LINE",
"523 28 OFFCURVE",
"475 83 OFFCURVE",
"475 241 CURVE SMOOTH",
"475 498 LINE",
"361 498 LINE"
);
},
{
closed = 1;
nodes = (
"263 538 LINE",
"263 538 OFFCURVE",
"381 610 OFFCURVE",
"460 708 CURVE",
"384 779 LINE",
"214 590 LINE"
);
}
);
width = 549;
},
{
layerId = "EB17B230-7FBB-41DE-BCDE-73D8D15F9114";
paths = (
{
closed = 1;
nodes = (
"327 252 LINE SMOOTH",
"327 165 OFFCURVE",
"288 111 OFFCURVE",
"251 111 CURVE SMOOTH",
"220 111 OFFCURVE",
"211 142 OFFCURVE",
"211 189 CURVE SMOOTH",
"211 502 LINE",
"52 502 LINE",
"52 168 LINE SMOOTH",
"52 62 OFFCURVE",
"91 -6 OFFCURVE",
"196 -6 CURVE SMOOTH",
"266 -6 OFFCURVE",
"331 22 OFFCURVE",
"366 84 CURVE",
"380 24 OFFCURVE",
"413 -8 OFFCURVE",
"413 -8 CURVE",
"540 32 LINE",
"540 32 OFFCURVE",
"485 83 OFFCURVE",
"485 241 CURVE SMOOTH",
"485 502 LINE",
"327 502 LINE"
);
},
{
closed = 1;
nodes = (
"275 557 LINE",
"275 557 OFFCURVE",
"410 639 OFFCURVE",
"494 743 CURVE",
"390 842 LINE",
"208 628 LINE"
);
}
);
width = 557;
}
);
leftKerningGroup = u;
rightKerningGroup = u;
unicode = 00FA;
},
{
glyphname = ucircumflex;
layers = (
{
layerId = "5DBF9900-19CD-41BF-A30E-BB0302EA3177";
paths = (
{
closed = 1;
nodes = (
"361 254 LINE SMOOTH",
"361 148 OFFCURVE",
"299 78 OFFCURVE",
"240 78 CURVE SMOOTH",
"192 78 OFFCURVE",
"174 113 OFFCURVE",
"174 168 CURVE SMOOTH",
"174 498 LINE",
"60 498 LINE",
"60 166 LINE SMOOTH",
"60 60 OFFCURVE",
"101 -6 OFFCURVE",
"206 -6 CURVE SMOOTH",
"277 -6 OFFCURVE",
"348 25 OFFCURVE",
"384 103 CURVE",
"393 30 OFFCURVE",
"434 -8 OFFCURVE",
"434 -8 CURVE",
"523 28 LINE",
"523 28 OFFCURVE",
"475 83 OFFCURVE",
"475 241 CURVE SMOOTH",
"475 498 LINE",
"361 498 LINE"
);
},
{
closed = 1;
nodes = (
"134 538 LINE",
"133 538 OFFCURVE",
"202 576 OFFCURVE",
"279 642 CURVE",
"354 577 OFFCURVE",
"424 538 OFFCURVE",
"423 538 CURVE",
"466 592 LINE",
"279 779 LINE",
"91 592 LINE"
);
}
);
width = 549;
},
{
layerId = "EB17B230-7FBB-41DE-BCDE-73D8D15F9114";
paths = (
{
closed = 1;
nodes = (
"327 252 LINE SMOOTH",
"327 165 OFFCURVE",
"288 111 OFFCURVE",
"251 111 CURVE SMOOTH",
"220 111 OFFCURVE",
"211 142 OFFCURVE",
"211 189 CURVE SMOOTH",
"211 502 LINE",
"52 502 LINE",
"52 168 LINE SMOOTH",
"52 62 OFFCURVE",
"91 -6 OFFCURVE",
"196 -6 CURVE SMOOTH",
"266 -6 OFFCURVE",
"331 22 OFFCURVE",
"366 84 CURVE",
"380 24 OFFCURVE",
"413 -8 OFFCURVE",
"413 -8 CURVE",
"540 32 LINE",
"540 32 OFFCURVE",
"485 83 OFFCURVE",
"485 241 CURVE SMOOTH",
"485 502 LINE",
"327 502 LINE"
);
},
{
closed = 1;
nodes = (
"138 557 LINE",
"166 571 OFFCURVE",
"214 595 OFFCURVE",
"272 639 CURVE",
"330 595 OFFCURVE",
"379 570 OFFCURVE",
"405 557 CURVE",
"466 631 LINE",
"272 828 LINE",
"77 631 LINE"
);
}
);
width = 557;
}
);
leftKerningGroup = u;
rightKerningGroup = u;
unicode = 00FB;
},
{
glyphname = udieresis;
layers = (
{
layerId = "5DBF9900-19CD-41BF-A30E-BB0302EA3177";
paths = (
{
closed = 1;
nodes = (
"361 254 LINE SMOOTH",
"361 148 OFFCURVE",
"299 78 OFFCURVE",
"240 78 CURVE SMOOTH",
"192 78 OFFCURVE",
"174 113 OFFCURVE",
"174 168 CURVE SMOOTH",
"174 498 LINE",
"60 498 LINE",
"60 166 LINE SMOOTH",
"60 60 OFFCURVE",
"101 -6 OFFCURVE",
"206 -6 CURVE SMOOTH",
"277 -6 OFFCURVE",
"348 25 OFFCURVE",
"384 103 CURVE",
"393 30 OFFCURVE",
"434 -8 OFFCURVE",
"434 -8 CURVE",
"523 28 LINE",
"523 28 OFFCURVE",
"475 83 OFFCURVE",
"475 241 CURVE SMOOTH",
"475 498 LINE",
"361 498 LINE"
);
},
{
closed = 1;
nodes = (
"233 651 CURVE SMOOTH",
"233 687 OFFCURVE",
"211 714 OFFCURVE",
"172 714 CURVE SMOOTH",
"131 714 OFFCURVE",
"109 686 OFFCURVE",
"109 649 CURVE SMOOTH",
"109 615 OFFCURVE",
"131 587 OFFCURVE",
"169 587 CURVE SMOOTH",
"211 587 OFFCURVE",
"233 615 OFFCURVE"
);
},
{
closed = 1;
nodes = (
"433 651 CURVE SMOOTH",
"433 687 OFFCURVE",
"411 714 OFFCURVE",
"372 714 CURVE SMOOTH",
"330 714 OFFCURVE",
"308 686 OFFCURVE",
"308 649 CURVE SMOOTH",
"308 615 OFFCURVE",
"330 587 OFFCURVE",
"369 587 CURVE SMOOTH",
"411 587 OFFCURVE",
"433 615 OFFCURVE"
);
}
);
width = 549;
},
{
layerId = "EB17B230-7FBB-41DE-BCDE-73D8D15F9114";
paths = (
{
closed = 1;
nodes = (
"327 252 LINE SMOOTH",
"327 165 OFFCURVE",
"288 111 OFFCURVE",
"251 111 CURVE SMOOTH",
"220 111 OFFCURVE",
"211 142 OFFCURVE",
"211 189 CURVE SMOOTH",
"211 502 LINE",
"52 502 LINE",
"52 168 LINE SMOOTH",
"52 62 OFFCURVE",
"91 -6 OFFCURVE",
"196 -6 CURVE SMOOTH",
"266 -6 OFFCURVE",
"331 22 OFFCURVE",
"366 84 CURVE",
"380 24 OFFCURVE",
"413 -8 OFFCURVE",
"413 -8 CURVE",
"540 32 LINE",
"540 32 OFFCURVE",
"485 83 OFFCURVE",
"485 241 CURVE SMOOTH",
"485 502 LINE",
"327 502 LINE"
);
},
{
closed = 1;
nodes = (
"243 667 CURVE SMOOTH",
"243 707 OFFCURVE",
"217 741 OFFCURVE",
"171 741 CURVE SMOOTH",
"121 741 OFFCURVE",
"96 707 OFFCURVE",
"96 663 CURVE SMOOTH",
"96 623 OFFCURVE",
"121 590 OFFCURVE",
"168 590 CURVE SMOOTH",
"217 590 OFFCURVE",
"243 623 OFFCURVE"
);
},
{
closed = 1;
nodes = (
"458 667 CURVE SMOOTH",
"458 707 OFFCURVE",
"432 741 OFFCURVE",
"386 741 CURVE SMOOTH",
"336 741 OFFCURVE",
"311 707 OFFCURVE",
"311 663 CURVE SMOOTH",
"311 623 OFFCURVE",
"336 590 OFFCURVE",
"383 590 CURVE SMOOTH",
"432 590 OFFCURVE",
"458 623 OFFCURVE"
);
}
);
width = 557;
}
);
leftKerningGroup = u;
rightKerningGroup = u;
unicode = 00FC;
},
{
glyphname = ugrave;
layers = (
{
layerId = "5DBF9900-19CD-41BF-A30E-BB0302EA3177";
paths = (
{
closed = 1;
nodes = (
"361 254 LINE SMOOTH",
"361 148 OFFCURVE",
"299 78 OFFCURVE",
"240 78 CURVE SMOOTH",
"192 78 OFFCURVE",
"174 113 OFFCURVE",
"174 168 CURVE SMOOTH",
"174 498 LINE",
"60 498 LINE",
"60 166 LINE SMOOTH",
"60 60 OFFCURVE",
"101 -6 OFFCURVE",
"206 -6 CURVE SMOOTH",
"277 -6 OFFCURVE",
"348 25 OFFCURVE",
"384 103 CURVE",
"393 30 OFFCURVE",
"434 -8 OFFCURVE",
"434 -8 CURVE",
"523 28 LINE",
"523 28 OFFCURVE",
"475 83 OFFCURVE",
"475 241 CURVE SMOOTH",
"475 498 LINE",
"361 498 LINE"
);
},
{
closed = 1;
nodes = (
"319 590 LINE",
"149 779 LINE",
"73 708 LINE",
"152 610 OFFCURVE",
"271 538 OFFCURVE",
"271 538 CURVE"
);
}
);
width = 549;
},
{
layerId = "EB17B230-7FBB-41DE-BCDE-73D8D15F9114";
paths = (
{
closed = 1;
nodes = (
"327 252 LINE SMOOTH",
"327 165 OFFCURVE",
"288 111 OFFCURVE",
"251 111 CURVE SMOOTH",
"220 111 OFFCURVE",
"211 142 OFFCURVE",
"211 189 CURVE SMOOTH",
"211 502 LINE",
"52 502 LINE",
"52 168 LINE SMOOTH",
"52 62 OFFCURVE",
"91 -6 OFFCURVE",
"196 -6 CURVE SMOOTH",
"266 -6 OFFCURVE",
"331 22 OFFCURVE",
"366 84 CURVE",
"380 24 OFFCURVE",
"413 -8 OFFCURVE",
"413 -8 CURVE",
"540 32 LINE",
"540 32 OFFCURVE",
"485 83 OFFCURVE",
"485 241 CURVE SMOOTH",
"485 502 LINE",
"327 502 LINE"
);
},
{
closed = 1;
nodes = (
"345 628 LINE",
"162 842 LINE",
"58 743 LINE",
"142 639 OFFCURVE",
"267 565 OFFCURVE",
"278 557 CURVE"
);
}
);
width = 557;
}
);
leftKerningGroup = u;
rightKerningGroup = u;
unicode = 00F9;
},
{
glyphname = v;
layers = (
{
layerId = "5DBF9900-19CD-41BF-A30E-BB0302EA3177";
paths = (
{
closed = 1;
nodes = (
"353 498 LINE",
"353 499 OFFCURVE",
"364 439 OFFCURVE",
"364 384 CURVE SMOOTH",
"364 232 OFFCURVE",
"336 75 OFFCURVE",
"240 75 CURVE SMOOTH",
"192 75 OFFCURVE",
"174 113 OFFCURVE",
"174 169 CURVE SMOOTH",
"174 498 LINE",
"60 498 LINE",
"60 166 LINE SMOOTH",
"60 60 OFFCURVE",
"101 -5 OFFCURVE",
"206 -5 CURVE SMOOTH",
"393 -5 OFFCURVE",
"479 100 OFFCURVE",
"479 396 CURVE SMOOTH",
"479 447 OFFCURVE",
"469 499 OFFCURVE",
"469 498 CURVE"
);
}
);
width = 524;
},
{
layerId = "EB17B230-7FBB-41DE-BCDE-73D8D15F9114";
paths = (
{
closed = 1;
nodes = (
"318 502 LINE",
"322 476 OFFCURVE",
"330 433 OFFCURVE",
"330 367 CURVE SMOOTH",
"330 245 OFFCURVE",
"309 106 OFFCURVE",
"246 106 CURVE SMOOTH",
"220 106 OFFCURVE",
"210 137 OFFCURVE",
"210 176 CURVE SMOOTH",
"210 502 LINE",
"52 502 LINE",
"52 173 LINE SMOOTH",
"52 65 OFFCURVE",
"105 -6 OFFCURVE",
"219 -6 CURVE SMOOTH",
"402 -6 OFFCURVE",
"488 98 OFFCURVE",
"488 375 CURVE SMOOTH",
"488 427 OFFCURVE",
"481 481 OFFCURVE",
"476 502 CURVE"
);
}
);
width = 525;
}
);
leftKerningGroup = u;
unicode = 0076;
},
{
glyphname = w;
layers = (
{
layerId = "5DBF9900-19CD-41BF-A30E-BB0302EA3177";
paths = (
{
closed = 1;
nodes = (
"600 498 LINE",
"600 499 OFFCURVE",
"611 445 OFFCURVE",
"611 384 CURVE SMOOTH",
"611 232 OFFCURVE",
"608 75 OFFCURVE",
"515 75 CURVE SMOOTH",
"467 75 OFFCURVE",
"447 116 OFFCURVE",
"447 172 CURVE SMOOTH",
"447 236 OFFCURVE",
"449 498 OFFCURVE",
"449 498 CURVE",
"336 498 LINE",
"336 269 LINE SMOOTH",
"336 130 OFFCURVE",
"302 75 OFFCURVE",
"240 75 CURVE SMOOTH",
"192 75 OFFCURVE",
"174 116 OFFCURVE",
"174 172 CURVE SMOOTH",
"174 498 LINE",
"60 498 LINE",
"60 163 LINE SMOOTH",
"60 57 OFFCURVE",
"102 -7 OFFCURVE",
"206 -7 CURVE SMOOTH",
"288 -7 OFFCURVE",
"324 18 OFFCURVE",
"348 73 CURVE",
"372 19 OFFCURVE",
"415 -7 OFFCURVE",
"481 -7 CURVE SMOOTH",
"665 -7 OFFCURVE",
"726 100 OFFCURVE",
"726 396 CURVE SMOOTH",
"726 448 OFFCURVE",
"716 499 OFFCURVE",
"716 498 CURVE"
);
}
);
width = 771;
},
{
layerId = "EB17B230-7FBB-41DE-BCDE-73D8D15F9114";
paths = (
{
closed = 1;
nodes = (
"564 502 LINE",
"567 476 OFFCURVE",
"575 434 OFFCURVE",
"575 367 CURVE SMOOTH",
"575 230 OFFCURVE",
"569 106 OFFCURVE",
"510 106 CURVE SMOOTH",
"484 106 OFFCURVE",
"470 138 OFFCURVE",
"470 176 CURVE SMOOTH",
"470 225 OFFCURVE",
"472 501 OFFCURVE",
"472 502 CURVE",
"314 502 LINE",
"314 304 LINE SMOOTH",
"314 165 OFFCURVE",
"294 106 OFFCURVE",
"250 106 CURVE SMOOTH",
"224 106 OFFCURVE",
"210 138 OFFCURVE",
"210 176 CURVE SMOOTH",
"210 502 LINE",
"52 502 LINE",
"52 172 LINE SMOOTH",
"52 64 OFFCURVE",
"91 -6 OFFCURVE",
"204 -6 CURVE SMOOTH",
"270 -6 OFFCURVE",
"316 8 OFFCURVE",
"352 60 CURVE",
"378 17 OFFCURVE",
"418 -6 OFFCURVE",
"472 -6 CURVE SMOOTH",
"654 -6 OFFCURVE",
"733 98 OFFCURVE",
"733 375 CURVE SMOOTH",
"733 427 OFFCURVE",
"726 481 OFFCURVE",
"722 502 CURVE"
);
}
);
width = 771;
}
);
leftKerningGroup = u;
unicode = 0077;
},
{
glyphname = x;
layers = (
{
layerId = "5DBF9900-19CD-41BF-A30E-BB0302EA3177";
paths = (
{
closed = 1;
nodes = (
"123 0 LINE",
"198 128 LINE",
"237 202 LINE",
"276 129 LINE",
"350 0 LINE",
"480 0 LINE",
"318 263 LINE",
"346 294 OFFCURVE",
"378 335 OFFCURVE",
"400 375 CURVE SMOOTH",
"440 449 OFFCURVE",
"454 499 OFFCURVE",
"454 498 CURVE",
"336 498 LINE",
"336 499 OFFCURVE",
"323 452 OFFCURVE",
"291 393 CURVE SMOOTH",
"279 371 OFFCURVE",
"263 346 OFFCURVE",
"247 322 CURVE",
"234 350 OFFCURVE",
"219 382 OFFCURVE",
"211 395 CURVE SMOOTH",
"148 498 LINE",
"16 498 LINE",
"162 264 LINE",
"-5 0 LINE"
);
}
);
width = 480;
},
{
layerId = "EB17B230-7FBB-41DE-BCDE-73D8D15F9114";
paths = (
{
closed = 1;
nodes = (
"161 0 LINE",
"230 115 LINE",
"253 160 LINE",
"261 143 OFFCURVE",
"269 126 OFFCURVE",
"276 115 CURVE SMOOTH",
"342 0 LINE",
"518 0 LINE",
"356 264 LINE",
"387 296 OFFCURVE",
"419 334 OFFCURVE",
"442 375 CURVE SMOOTH",
"473 430 OFFCURVE",
"488 473 OFFCURVE",
"492 498 CURVE",
"328 498 LINE",
"325 479 OFFCURVE",
"315 447 OFFCURVE",
"296 410 CURVE SMOOTH",
"289 397 OFFCURVE",
"277 372 OFFCURVE",
"267 357 CURVE",
"261 373 OFFCURVE",
"252 391 OFFCURVE",
"246 402 CURVE SMOOTH",
"186 498 LINE",
"8 498 LINE",
"157 264 LINE",
"-13 0 LINE"
);
}
);
width = 511;
}
);
unicode = 0078;
},
{
glyphname = y;
layers = (
{
anchors = (
{
name = top;
position = "{268, 506}";
}
);
layerId = "5DBF9900-19CD-41BF-A30E-BB0302EA3177";
paths = (
{
closed = 1;
nodes = (
"477 498 LINE",
"360 498 LINE",
"360 227 LINE SMOOTH",
"360 141 OFFCURVE",
"292 79 OFFCURVE",
"240 79 CURVE SMOOTH",
"192 79 OFFCURVE",
"174 114 OFFCURVE",
"174 169 CURVE SMOOTH",
"174 498 LINE",
"60 498 LINE",
"60 166 LINE SMOOTH",
"60 60 OFFCURVE",
"101 -6 OFFCURVE",
"206 -6 CURVE SMOOTH",
"274 -6 OFFCURVE",
"341 22 OFFCURVE",
"378 92 CURVE",
"391 59 OFFCURVE",
"398 26 OFFCURVE",
"398 -7 CURVE SMOOTH",
"398 -77 OFFCURVE",
"366 -127 OFFCURVE",
"292 -127 CURVE SMOOTH",
"241 -127 OFFCURVE",
"185 -103 OFFCURVE",
"147 -88 CURVE",
"119 -175 LINE",
"134 -184 OFFCURVE",
"222 -217 OFFCURVE",
"302 -217 CURVE SMOOTH",
"424 -217 OFFCURVE",
"502 -147 OFFCURVE",
"502 -7 CURVE SMOOTH",
"502 73 OFFCURVE",
"471 122 OFFCURVE",
"472 202 CURVE SMOOTH"
);
}
);
width = 538;
},
{
anchors = (
{
name = top;
position = "{268, 506}";
}
);
layerId = "EB17B230-7FBB-41DE-BCDE-73D8D15F9114";
paths = (
{
closed = 1;
nodes = (
"486 502 LINE",
"327 502 LINE",
"327 246 LINE SMOOTH",
"327 164 OFFCURVE",
"286 111 OFFCURVE",
"251 111 CURVE SMOOTH",
"220 111 OFFCURVE",
"211 143 OFFCURVE",
"211 189 CURVE SMOOTH",
"211 502 LINE",
"52 502 LINE",
"52 168 LINE SMOOTH",
"52 62 OFFCURVE",
"91 -6 OFFCURVE",
"196 -6 CURVE SMOOTH",
"265 -6 OFFCURVE",
"329 20 OFFCURVE",
"364 79 CURVE",
"374 53 OFFCURVE",
"378 33 OFFCURVE",
"378 6 CURVE SMOOTH",
"378 -51 OFFCURVE",
"342 -83 OFFCURVE",
"289 -83 CURVE SMOOTH",
"240 -83 OFFCURVE",
"201 -71 OFFCURVE",
"142 -51 CURVE",
"105 -173 LINE",
"168 -199 OFFCURVE",
"238 -215 OFFCURVE",
"299 -215 CURVE SMOOTH",
"434 -215 OFFCURVE",
"519 -136 OFFCURVE",
"519 3 CURVE SMOOTH",
"519 89 OFFCURVE",
"481 146 OFFCURVE",
"482 231 CURVE SMOOTH"
);
}
);
width = 547;
}
);
leftKerningGroup = u;
rightKerningGroup = y;
unicode = 0079;
},
{
glyphname = yacute;
layers = (
{
layerId = "5DBF9900-19CD-41BF-A30E-BB0302EA3177";
paths = (
{
closed = 1;
nodes = (
"477 498 LINE",
"360 498 LINE",
"360 227 LINE SMOOTH",
"360 141 OFFCURVE",
"292 79 OFFCURVE",
"240 79 CURVE SMOOTH",
"192 79 OFFCURVE",
"174 114 OFFCURVE",
"174 169 CURVE SMOOTH",
"174 498 LINE",
"60 498 LINE",
"60 166 LINE SMOOTH",
"60 60 OFFCURVE",
"101 -6 OFFCURVE",
"206 -6 CURVE SMOOTH",
"274 -6 OFFCURVE",
"341 22 OFFCURVE",
"378 92 CURVE",
"391 59 OFFCURVE",
"398 26 OFFCURVE",
"398 -7 CURVE SMOOTH",
"398 -77 OFFCURVE",
"366 -127 OFFCURVE",
"292 -127 CURVE SMOOTH",
"241 -127 OFFCURVE",
"185 -103 OFFCURVE",
"147 -88 CURVE",
"119 -175 LINE",
"134 -184 OFFCURVE",
"222 -217 OFFCURVE",
"302 -217 CURVE SMOOTH",
"424 -217 OFFCURVE",
"502 -147 OFFCURVE",
"502 -7 CURVE SMOOTH",
"502 73 OFFCURVE",
"471 122 OFFCURVE",
"472 202 CURVE SMOOTH"
);
},
{
closed = 1;
nodes = (
"260 538 LINE",
"260 538 OFFCURVE",
"378 610 OFFCURVE",
"457 708 CURVE",
"381 779 LINE",
"211 590 LINE"
);
}
);
width = 538;
},
{
layerId = "EB17B230-7FBB-41DE-BCDE-73D8D15F9114";
paths = (
{
closed = 1;
nodes = (
"486 502 LINE",
"327 502 LINE",
"327 246 LINE SMOOTH",
"327 164 OFFCURVE",
"286 111 OFFCURVE",
"251 111 CURVE SMOOTH",
"220 111 OFFCURVE",
"211 143 OFFCURVE",
"211 189 CURVE SMOOTH",
"211 502 LINE",
"52 502 LINE",
"52 168 LINE SMOOTH",
"52 62 OFFCURVE",
"91 -6 OFFCURVE",
"196 -6 CURVE SMOOTH",
"265 -6 OFFCURVE",
"329 20 OFFCURVE",
"364 79 CURVE",
"374 53 OFFCURVE",
"378 33 OFFCURVE",
"378 6 CURVE SMOOTH",
"378 -51 OFFCURVE",
"342 -83 OFFCURVE",
"289 -83 CURVE SMOOTH",
"240 -83 OFFCURVE",
"201 -71 OFFCURVE",
"142 -51 CURVE",
"105 -173 LINE",
"168 -199 OFFCURVE",
"238 -215 OFFCURVE",
"299 -215 CURVE SMOOTH",
"434 -215 OFFCURVE",
"519 -136 OFFCURVE",
"519 3 CURVE SMOOTH",
"519 89 OFFCURVE",
"481 146 OFFCURVE",
"482 231 CURVE SMOOTH"
);
},
{
closed = 1;
nodes = (
"274 557 LINE",
"274 557 OFFCURVE",
"409 639 OFFCURVE",
"493 743 CURVE",
"389 842 LINE",
"207 628 LINE"
);
}
);
width = 547;
}
);
leftKerningGroup = u;
rightKerningGroup = y;
unicode = 00FD;
},
{
glyphname = ydieresis;
layers = (
{
layerId = "5DBF9900-19CD-41BF-A30E-BB0302EA3177";
paths = (
{
closed = 1;
nodes = (
"477 498 LINE",
"360 498 LINE",
"360 227 LINE SMOOTH",
"360 141 OFFCURVE",
"292 79 OFFCURVE",
"240 79 CURVE SMOOTH",
"192 79 OFFCURVE",
"174 114 OFFCURVE",
"174 169 CURVE SMOOTH",
"174 498 LINE",
"60 498 LINE",
"60 166 LINE SMOOTH",
"60 60 OFFCURVE",
"101 -6 OFFCURVE",
"206 -6 CURVE SMOOTH",
"274 -6 OFFCURVE",
"341 22 OFFCURVE",
"378 92 CURVE",
"391 59 OFFCURVE",
"398 26 OFFCURVE",
"398 -7 CURVE SMOOTH",
"398 -77 OFFCURVE",
"366 -127 OFFCURVE",
"292 -127 CURVE SMOOTH",
"241 -127 OFFCURVE",
"185 -103 OFFCURVE",
"147 -88 CURVE",
"119 -175 LINE",
"134 -184 OFFCURVE",
"222 -217 OFFCURVE",
"302 -217 CURVE SMOOTH",
"424 -217 OFFCURVE",
"502 -147 OFFCURVE",
"502 -7 CURVE SMOOTH",
"502 73 OFFCURVE",
"471 122 OFFCURVE",
"472 202 CURVE SMOOTH"
);
},
{
closed = 1;
nodes = (
"229 651 CURVE SMOOTH",
"229 687 OFFCURVE",
"207 714 OFFCURVE",
"168 714 CURVE SMOOTH",
"127 714 OFFCURVE",
"105 686 OFFCURVE",
"105 649 CURVE SMOOTH",
"105 615 OFFCURVE",
"127 587 OFFCURVE",
"165 587 CURVE SMOOTH",
"207 587 OFFCURVE",
"229 615 OFFCURVE"
);
},
{
closed = 1;
nodes = (
"429 651 CURVE SMOOTH",
"429 687 OFFCURVE",
"407 714 OFFCURVE",
"368 714 CURVE SMOOTH",
"326 714 OFFCURVE",
"304 686 OFFCURVE",
"304 649 CURVE SMOOTH",
"304 615 OFFCURVE",
"326 587 OFFCURVE",
"365 587 CURVE SMOOTH",
"407 587 OFFCURVE",
"429 615 OFFCURVE"
);
}
);
width = 538;
},
{
layerId = "EB17B230-7FBB-41DE-BCDE-73D8D15F9114";
paths = (
{
closed = 1;
nodes = (
"486 502 LINE",
"327 502 LINE",
"327 246 LINE SMOOTH",
"327 164 OFFCURVE",
"286 111 OFFCURVE",
"251 111 CURVE SMOOTH",
"220 111 OFFCURVE",
"211 143 OFFCURVE",
"211 189 CURVE SMOOTH",
"211 502 LINE",
"52 502 LINE",
"52 168 LINE SMOOTH",
"52 62 OFFCURVE",
"91 -6 OFFCURVE",
"196 -6 CURVE SMOOTH",
"265 -6 OFFCURVE",
"329 20 OFFCURVE",
"364 79 CURVE",
"374 53 OFFCURVE",
"378 33 OFFCURVE",
"378 6 CURVE SMOOTH",
"378 -51 OFFCURVE",
"342 -83 OFFCURVE",
"289 -83 CURVE SMOOTH",
"240 -83 OFFCURVE",
"201 -71 OFFCURVE",
"142 -51 CURVE",
"105 -173 LINE",
"168 -199 OFFCURVE",
"238 -215 OFFCURVE",
"299 -215 CURVE SMOOTH",
"434 -215 OFFCURVE",
"519 -136 OFFCURVE",
"519 3 CURVE SMOOTH",
"519 89 OFFCURVE",
"481 146 OFFCURVE",
"482 231 CURVE SMOOTH"
);
},
{
closed = 1;
nodes = (
"242 667 CURVE SMOOTH",
"242 707 OFFCURVE",
"216 741 OFFCURVE",
"170 741 CURVE SMOOTH",
"120 741 OFFCURVE",
"95 707 OFFCURVE",
"95 663 CURVE SMOOTH",
"95 623 OFFCURVE",
"120 590 OFFCURVE",
"167 590 CURVE SMOOTH",
"216 590 OFFCURVE",
"242 623 OFFCURVE"
);
},
{
closed = 1;
nodes = (
"457 667 CURVE SMOOTH",
"457 707 OFFCURVE",
"431 741 OFFCURVE",
"385 741 CURVE SMOOTH",
"335 741 OFFCURVE",
"310 707 OFFCURVE",
"310 663 CURVE SMOOTH",
"310 623 OFFCURVE",
"335 590 OFFCURVE",
"382 590 CURVE SMOOTH",
"431 590 OFFCURVE",
"457 623 OFFCURVE"
);
}
);
width = 547;
}
);
leftKerningGroup = u;
rightKerningGroup = y;
unicode = 00FF;
},
{
glyphname = z;
layers = (
{
layerId = "5DBF9900-19CD-41BF-A30E-BB0302EA3177";
paths = (
{
closed = 1;
nodes = (
"393 0 LINE",
"393 83 LINE",
"256 83 LINE SMOOTH",
"225 83 OFFCURVE",
"196 82 OFFCURVE",
"166 80 CURVE",
"384 430 LINE",
"384 498 LINE",
"38 498 LINE",
"52 415 LINE",
"150 415 LINE SMOOTH",
"183 415 OFFCURVE",
"217 416 OFFCURVE",
"251 418 CURVE",
"30 68 LINE",
"30 0 LINE"
);
}
);
width = 418;
},
{
layerId = "EB17B230-7FBB-41DE-BCDE-73D8D15F9114";
paths = (
{
closed = 1;
nodes = (
"406 0 LINE",
"406 115 LINE",
"269 115 LINE SMOOTH",
"251 115 OFFCURVE",
"234 114 OFFCURVE",
"217 113 CURVE",
"397 401 LINE",
"397 498 LINE",
"30 498 LINE",
"50 382 LINE",
"142 382 LINE SMOOTH",
"164 382 OFFCURVE",
"187 383 OFFCURVE",
"212 384 CURVE",
"22 88 LINE",
"22 0 LINE"
);
}
);
width = 423;
}
);
unicode = 007A;
},
{
glyphname = ordfeminine;
layers = (
{
layerId = "5DBF9900-19CD-41BF-A30E-BB0302EA3177";
paths = (
{
closed = 1;
nodes = (
"337 667 LINE",
"338 667 OFFCURVE",
"254 686 OFFCURVE",
"201 686 CURVE SMOOTH",
"103 686 OFFCURVE",
"35 611 OFFCURVE",
"35 507 CURVE SMOOTH",
"35 404 OFFCURVE",
"77 335 OFFCURVE",
"167 335 CURVE SMOOTH",
"216 335 OFFCURVE",
"248 356 OFFCURVE",
"265 396 CURVE",
"277 357 OFFCURVE",
"304 334 OFFCURVE",
"304 334 CURVE",
"370 360 LINE",
"370 360 OFFCURVE",
"337 401 OFFCURVE",
"337 505 CURVE SMOOTH"
);
},
{
closed = 1;
nodes = (
"178 399 CURVE SMOOTH",
"136 399 OFFCURVE",
"132 456 OFFCURVE",
"132 513 CURVE SMOOTH",
"132 577 OFFCURVE",
"149 624 OFFCURVE",
"210 624 CURVE SMOOTH",
"220 624 OFFCURVE",
"236 620 OFFCURVE",
"248 618 CURVE",
"248 539 LINE SMOOTH",
"248 468 OFFCURVE",
"217 399 OFFCURVE"
);
}
);
width = 400;
},
{
layerId = "EB17B230-7FBB-41DE-BCDE-73D8D15F9114";
paths = (
{
closed = 1;
nodes = (
"354 674 LINE",
"327 681 OFFCURVE",
"271 693 OFFCURVE",
"218 693 CURVE SMOOTH",
"97 693 OFFCURVE",
"27 613 OFFCURVE",
"27 505 CURVE SMOOTH",
"27 399 OFFCURVE",
"77 327 OFFCURVE",
"164 327 CURVE SMOOTH",
"211 327 OFFCURVE",
"240 354 OFFCURVE",
"255 392 CURVE",
"264 352 OFFCURVE",
"289 330 OFFCURVE",
"295 325 CURVE",
"396 356 LINE",
"387 364 OFFCURVE",
"354 402 OFFCURVE",
"354 503 CURVE SMOOTH"
);
},
{
closed = 1;
nodes = (
"189 425 CURVE SMOOTH",
"166 425 OFFCURVE",
"164 467 OFFCURVE",
"164 511 CURVE SMOOTH",
"164 558 OFFCURVE",
"175 597 OFFCURVE",
"209 597 CURVE SMOOTH",
"215 597 OFFCURVE",
"222 595 OFFCURVE",
"228 593 CURVE",
"228 529 LINE SMOOTH",
"228 475 OFFCURVE",
"211 425 OFFCURVE"
);
}
);
width = 418;
}
);
unicode = 00AA;
},
{
glyphname = ordmasculine;
layers = (
{
layerId = "5DBF9900-19CD-41BF-A30E-BB0302EA3177";
paths = (
{
closed = 1;
nodes = (
"208 686 CURVE SMOOTH",
"98 686 OFFCURVE",
"45 608 OFFCURVE",
"45 504 CURVE SMOOTH",
"45 398 OFFCURVE",
"92 332 OFFCURVE",
"202 332 CURVE SMOOTH",
"311 332 OFFCURVE",
"364 410 OFFCURVE",
"364 512 CURVE SMOOTH",
"364 620 OFFCURVE",
"317 686 OFFCURVE"
);
},
{
closed = 1;
nodes = (
"201 619 CURVE SMOOTH",
"255 619 OFFCURVE",
"267 569 OFFCURVE",
"267 507 CURVE SMOOTH",
"267 445 OFFCURVE",
"256 399 OFFCURVE",
"209 399 CURVE SMOOTH",
"154 399 OFFCURVE",
"142 449 OFFCURVE",
"142 511 CURVE SMOOTH",
"142 573 OFFCURVE",
"153 619 OFFCURVE"
);
}
);
width = 409;
},
{
layerId = "EB17B230-7FBB-41DE-BCDE-73D8D15F9114";
paths = (
{
closed = 1;
nodes = (
"218 693 CURVE SMOOTH",
"94 693 OFFCURVE",
"37 613 OFFCURVE",
"37 506 CURVE SMOOTH",
"37 395 OFFCURVE",
"87 327 OFFCURVE",
"212 327 CURVE SMOOTH",
"335 327 OFFCURVE",
"391 408 OFFCURVE",
"391 514 CURVE SMOOTH",
"391 626 OFFCURVE",
"342 693 OFFCURVE"
);
},
{
closed = 1;
nodes = (
"211 608 CURVE SMOOTH",
"244 608 OFFCURVE",
"254 563 OFFCURVE",
"254 508 CURVE SMOOTH",
"254 455 OFFCURVE",
"245 412 OFFCURVE",
"218 412 CURVE SMOOTH",
"185 412 OFFCURVE",
"175 459 OFFCURVE",
"175 514 CURVE SMOOTH",
"175 567 OFFCURVE",
"183 608 OFFCURVE"
);
}
);
width = 429;
}
);
unicode = 00BA;
},
{
glyphname = zero;
layers = (
{
layerId = "5DBF9900-19CD-41BF-A30E-BB0302EA3177";
paths = (
{
closed = 1;
nodes = (
"288 642 CURVE SMOOTH",
"115 642 OFFCURVE",
"45 511 OFFCURVE",
"45 311 CURVE SMOOTH",
"45 108 OFFCURVE",
"110 -6 OFFCURVE",
"275 -6 CURVE SMOOTH",
"448 -6 OFFCURVE",
"518 128 OFFCURVE",
"518 327 CURVE SMOOTH",
"518 528 OFFCURVE",
"453 642 OFFCURVE"
);
},
{
closed = 1;
nodes = (
"275 555 CURVE SMOOTH",
"376 555 OFFCURVE",
"393 448 OFFCURVE",
"393 315 CURVE SMOOTH",
"393 175 OFFCURVE",
"371 81 OFFCURVE",
"287 81 CURVE SMOOTH",
"187 81 OFFCURVE",
"169 189 OFFCURVE",
"169 322 CURVE SMOOTH",
"169 464 OFFCURVE",
"192 555 OFFCURVE"
);
}
);
width = 563;
},
{
layerId = "EB17B230-7FBB-41DE-BCDE-73D8D15F9114";
paths = (
{
closed = 1;
nodes = (
"304 645 CURVE SMOOTH",
"131 645 OFFCURVE",
"37 509 OFFCURVE",
"37 309 CURVE SMOOTH",
"37 106 OFFCURVE",
"126 -9 OFFCURVE",
"291 -9 CURVE SMOOTH",
"464 -9 OFFCURVE",
"556 126 OFFCURVE",
"556 325 CURVE SMOOTH",
"556 526 OFFCURVE",
"469 645 OFFCURVE"
);
},
{
closed = 1;
nodes = (
"291 534 CURVE SMOOTH",
"368 534 OFFCURVE",
"385 446 OFFCURVE",
"385 313 CURVE SMOOTH",
"385 173 OFFCURVE",
"363 101 OFFCURVE",
"303 101 CURVE SMOOTH",
"225 101 OFFCURVE",
"207 187 OFFCURVE",
"207 320 CURVE SMOOTH",
"207 462 OFFCURVE",
"230 534 OFFCURVE"
);
}
);
width = 594;
}
);
unicode = 0030;
},
{
glyphname = one;
layers = (
{
layerId = "5DBF9900-19CD-41BF-A30E-BB0302EA3177";
paths = (
{
closed = 1;
nodes = (
"200 637 LINE",
"124 555 OFFCURVE",
"65 531 OFFCURVE",
"0 504 CURVE",
"45 422 LINE",
"84 433 OFFCURVE",
"130 466 OFFCURVE",
"171 504 CURVE",
"171 0 LINE",
"285 0 LINE",
"285 637 LINE"
);
}
);
width = 385;
},
{
layerId = "EB17B230-7FBB-41DE-BCDE-73D8D15F9114";
paths = (
{
closed = 1;
nodes = (
"207 640 LINE",
"142 571 OFFCURVE",
"68 536 OFFCURVE",
"0 507 CURVE",
"55 405 LINE",
"97 419 OFFCURVE",
"137 442 OFFCURVE",
"171 468 CURVE",
"171 0 LINE",
"329 0 LINE",
"329 640 LINE"
);
}
);
width = 421;
}
);
unicode = 0031;
},
{
glyphname = two;
layers = (
{
layerId = "5DBF9900-19CD-41BF-A30E-BB0302EA3177";
paths = (
{
closed = 1;
nodes = (
"78 507 LINE",
"140 533 OFFCURVE",
"181 555 OFFCURVE",
"233 555 CURVE SMOOTH",
"278 555 OFFCURVE",
"310 522 OFFCURVE",
"310 471 CURVE SMOOTH",
"310 403 OFFCURVE",
"278 359 OFFCURVE",
"173 238 CURVE",
"151 214 OFFCURVE",
"58 119 OFFCURVE",
"36 94 CURVE",
"35 0 LINE",
"451 0 LINE",
"451 91 LINE",
"180 91 LINE",
"272 192 LINE SMOOTH",
"373 303 OFFCURVE",
"434 382 OFFCURVE",
"434 469 CURVE SMOOTH",
"434 601 OFFCURVE",
"351 642 OFFCURVE",
"257 642 CURVE SMOOTH",
"178 642 OFFCURVE",
"92 610 OFFCURVE",
"39 586 CURVE"
);
}
);
width = 492;
},
{
layerId = "EB17B230-7FBB-41DE-BCDE-73D8D15F9114";
paths = (
{
closed = 1;
nodes = (
"86 465 LINE",
"148 494 OFFCURVE",
"191 513 OFFCURVE",
"227 513 CURVE SMOOTH",
"264 513 OFFCURVE",
"286 485 OFFCURVE",
"286 450 CURVE SMOOTH",
"286 399 OFFCURVE",
"251 345 OFFCURVE",
"151 239 CURVE",
"109 179 OFFCURVE",
"51 101 OFFCURVE",
"9 42 CURVE",
"27 0 LINE",
"472 0 LINE",
"472 135 LINE",
"255 135 LINE",
"315 198 LINE SMOOTH",
"410 298 OFFCURVE",
"455 378 OFFCURVE",
"455 464 CURVE SMOOTH",
"455 594 OFFCURVE",
"368 645 OFFCURVE",
"256 645 CURVE SMOOTH",
"176 645 OFFCURVE",
"84 608 OFFCURVE",
"28 582 CURVE"
);
}
);
width = 505;
}
);
unicode = 0032;
},
{
glyphname = three;
layers = (
{
layerId = "5DBF9900-19CD-41BF-A30E-BB0302EA3177";
paths = (
{
closed = 1;
nodes = (
"247 642 CURVE SMOOTH",
"165 642 OFFCURVE",
"114 623 OFFCURVE",
"48 593 CURVE",
"87 516 LINE",
"149 540 OFFCURVE",
"180 555 OFFCURVE",
"231 555 CURVE SMOOTH",
"278 555 OFFCURVE",
"306 533 OFFCURVE",
"306 492 CURVE SMOOTH",
"306 419 OFFCURVE",
"216 398 OFFCURVE",
"120 365 CURVE",
"151 287 LINE",
"157 288 OFFCURVE",
"203 299 OFFCURVE",
"248 299 CURVE SMOOTH",
"296 299 OFFCURVE",
"338 257 OFFCURVE",
"338 196 CURVE SMOOTH",
"338 118 OFFCURVE",
"280 81 OFFCURVE",
"219 81 CURVE SMOOTH",
"172 81 OFFCURVE",
"128 102 OFFCURVE",
"69 129 CURVE",
"35 46 LINE",
"96 18 OFFCURVE",
"162 -6 OFFCURVE",
"222 -6 CURVE SMOOTH",
"397 -6 OFFCURVE",
"454 97 OFFCURVE",
"454 198 CURVE SMOOTH",
"454 271 OFFCURVE",
"407 342 OFFCURVE",
"323 367 CURVE",
"364 386 OFFCURVE",
"425 425 OFFCURVE",
"425 503 CURVE SMOOTH",
"425 585 OFFCURVE",
"364 642 OFFCURVE"
);
}
);
width = 500;
},
{
layerId = "EB17B230-7FBB-41DE-BCDE-73D8D15F9114";
paths = (
{
closed = 1;
nodes = (
"254 645 CURVE SMOOTH",
"181 645 OFFCURVE",
"107 619 OFFCURVE",
"39 585 CURVE",
"97 467 LINE",
"149 494 OFFCURVE",
"187 513 OFFCURVE",
"233 513 CURVE SMOOTH",
"260 513 OFFCURVE",
"275 498 OFFCURVE",
"275 475 CURVE SMOOTH",
"275 426 OFFCURVE",
"189 399 OFFCURVE",
"100 373 CURVE",
"146 261 LINE",
"152 262 OFFCURVE",
"203 275 OFFCURVE",
"233 275 CURVE SMOOTH",
"269 275 OFFCURVE",
"305 249 OFFCURVE",
"305 208 CURVE SMOOTH",
"305 153 OFFCURVE",
"265 122 OFFCURVE",
"223 122 CURVE SMOOTH",
"178 122 OFFCURVE",
"117 151 OFFCURVE",
"79 170 CURVE",
"27 49 LINE",
"88 21 OFFCURVE",
"179 -9 OFFCURVE",
"239 -9 CURVE SMOOTH",
"414 -9 OFFCURVE",
"474 101 OFFCURVE",
"474 202 CURVE SMOOTH",
"474 271 OFFCURVE",
"433 336 OFFCURVE",
"356 358 CURVE",
"406 383 OFFCURVE",
"445 429 OFFCURVE",
"445 495 CURVE SMOOTH",
"445 592 OFFCURVE",
"366 645 OFFCURVE"
);
}
);
width = 511;
}
);
unicode = 0033;
},
{
glyphname = four;
layers = (
{
layerId = "5DBF9900-19CD-41BF-A30E-BB0302EA3177";
paths = (
{
closed = 1;
nodes = (
"300 0 LINE",
"413 0 LINE",
"413 176 LINE",
"494 176 LINE",
"510 262 LINE",
"413 262 LINE",
"413 486 LINE",
"300 466 LINE",
"300 262 LINE",
"144 262 LINE",
"319 637 LINE",
"202 637 LINE",
"20 240 LINE",
"20 176 LINE",
"300 176 LINE"
);
}
);
width = 525;
},
{
layerId = "EB17B230-7FBB-41DE-BCDE-73D8D15F9114";
paths = (
{
closed = 1;
nodes = (
"271 0 LINE",
"429 0 LINE",
"429 152 LINE",
"497 152 LINE",
"520 283 LINE",
"429 283 LINE",
"429 450 LINE",
"271 423 LINE",
"271 283 LINE",
"188 283 LINE",
"337 640 LINE",
"179 640 LINE",
"12 240 LINE",
"12 152 LINE",
"271 152 LINE"
);
}
);
width = 528;
}
);
unicode = 0034;
},
{
glyphname = five;
layers = (
{
layerId = "5DBF9900-19CD-41BF-A30E-BB0302EA3177";
paths = (
{
closed = 1;
nodes = (
"112 287 LINE",
"119 290 OFFCURVE",
"158 315 OFFCURVE",
"237 315 CURVE SMOOTH",
"297 315 OFFCURVE",
"337 277 OFFCURVE",
"337 207 CURVE SMOOTH",
"337 123 OFFCURVE",
"307 81 OFFCURVE",
"230 81 CURVE SMOOTH",
"182 81 OFFCURVE",
"140 102 OFFCURVE",
"79 129 CURVE",
"45 46 LINE",
"113 15 OFFCURVE",
"182 -7 OFFCURVE",
"252 -7 CURVE SMOOTH",
"404 -7 OFFCURVE",
"460 101 OFFCURVE",
"460 206 CURVE SMOOTH",
"460 316 OFFCURVE",
"390 404 OFFCURVE",
"279 404 CURVE SMOOTH",
"217 404 OFFCURVE",
"188 392 OFFCURVE",
"178 385 CURVE",
"199 546 LINE",
"411 546 LINE",
"427 637 LINE",
"99 637 LINE",
"65 322 LINE"
);
}
);
width = 509;
},
{
layerId = "EB17B230-7FBB-41DE-BCDE-73D8D15F9114";
paths = (
{
closed = 1;
nodes = (
"131 259 LINE",
"148 266 OFFCURVE",
"180 279 OFFCURVE",
"228 279 CURVE SMOOTH",
"279 279 OFFCURVE",
"312 256 OFFCURVE",
"312 211 CURVE SMOOTH",
"312 152 OFFCURVE",
"279 122 OFFCURVE",
"234 122 CURVE SMOOTH",
"188 122 OFFCURVE",
"128 151 OFFCURVE",
"89 170 CURVE",
"37 49 LINE",
"100 20 OFFCURVE",
"191 -9 OFFCURVE",
"253 -9 CURVE SMOOTH",
"423 -9 OFFCURVE",
"483 102 OFFCURVE",
"483 204 CURVE SMOOTH",
"483 311 OFFCURVE",
"422 411 OFFCURVE",
"289 411 CURVE SMOOTH",
"258 411 OFFCURVE",
"236 406 OFFCURVE",
"219 402 CURVE",
"233 505 LINE",
"434 505 LINE",
"458 640 LINE",
"97 640 LINE",
"61 311 LINE"
);
}
);
width = 523;
}
);
unicode = 0035;
},
{
glyphname = six;
layers = (
{
layerId = "5DBF9900-19CD-41BF-A30E-BB0302EA3177";
paths = (
{
closed = 1;
nodes = (
"443 613 LINE",
"408 628 OFFCURVE",
"365 640 OFFCURVE",
"316 640 CURVE SMOOTH",
"122 640 OFFCURVE",
"45 489 OFFCURVE",
"45 318 CURVE SMOOTH",
"45 129 OFFCURVE",
"101 -6 OFFCURVE",
"268 -6 CURVE SMOOTH",
"411 -6 OFFCURVE",
"489 86 OFFCURVE",
"489 205 CURVE SMOOTH",
"489 336 OFFCURVE",
"417 413 OFFCURVE",
"301 413 CURVE SMOOTH",
"233 413 OFFCURVE",
"189 375 OFFCURVE",
"167 349 CURVE",
"170 460 OFFCURVE",
"196 552 OFFCURVE",
"312 552 CURVE SMOOTH",
"346 552 OFFCURVE",
"383 544 OFFCURVE",
"412 534 CURVE"
);
},
{
closed = 1;
nodes = (
"279 327 CURVE SMOOTH",
"350 327 OFFCURVE",
"373 273 OFFCURVE",
"373 204 CURVE SMOOTH",
"373 130 OFFCURVE",
"344 79 OFFCURVE",
"277 79 CURVE SMOOTH",
"202 79 OFFCURVE",
"172 143 OFFCURVE",
"167 280 CURVE",
"175 288 OFFCURVE",
"225 327 OFFCURVE"
);
}
);
width = 524;
},
{
layerId = "EB17B230-7FBB-41DE-BCDE-73D8D15F9114";
paths = (
{
closed = 1;
nodes = (
"470 615 LINE",
"435 632 OFFCURVE",
"376 644 OFFCURVE",
"327 644 CURVE SMOOTH",
"133 644 OFFCURVE",
"37 489 OFFCURVE",
"37 318 CURVE SMOOTH",
"37 129 OFFCURVE",
"112 -9 OFFCURVE",
"279 -9 CURVE SMOOTH",
"428 -9 OFFCURVE",
"520 82 OFFCURVE",
"520 205 CURVE SMOOTH",
"520 347 OFFCURVE",
"436 413 OFFCURVE",
"327 413 CURVE SMOOTH",
"276 413 OFFCURVE",
"237 391 OFFCURVE",
"209 369 CURVE",
"217 461 OFFCURVE",
"247 524 OFFCURVE",
"322 524 CURVE SMOOTH",
"356 524 OFFCURVE",
"396 514 OFFCURVE",
"428 504 CURVE"
);
},
{
closed = 1;
nodes = (
"285 304 CURVE SMOOTH",
"330 304 OFFCURVE",
"358 274 OFFCURVE",
"358 204 CURVE SMOOTH",
"358 149 OFFCURVE",
"339 99 OFFCURVE",
"289 99 CURVE SMOOTH",
"239 99 OFFCURVE",
"213 147 OFFCURVE",
"208 269 CURVE",
"223 283 OFFCURVE",
"254 304 OFFCURVE"
);
}
);
width = 547;
}
);
unicode = 0036;
},
